<?xml version="1.0" encoding="utf-8"?>
<!-- Generator: Adobe Illustrator 16.0.0, SVG Export Plug-In . SVG Version: 6.00 Build 0)  -->
<!DOCTYPE svg PUBLIC "-//W3C//DTD SVG 1.1//EN" "http://www.w3.org/Graphics/SVG/1.1/DTD/svg11.dtd" [
	<!ENTITY ns_flows "http://ns.adobe.com/Flows/1.0/">
	<!ENTITY ns_extend "http://ns.adobe.com/Extensibility/1.0/">
	<!ENTITY ns_ai "http://ns.adobe.com/AdobeIllustrator/10.0/">
	<!ENTITY ns_graphs "http://ns.adobe.com/Graphs/1.0/">
]>
<svg version="1.1" id="Capa_1" xmlns:x="&ns_extend;" xmlns:i="&ns_ai;" xmlns:graph="&ns_graphs;"
	 xmlns="http://www.w3.org/2000/svg" xmlns:xlink="http://www.w3.org/1999/xlink" xmlns:a="http://ns.adobe.com/AdobeSVGViewerExtensions/3.0/"
	 x="0px" y="0px" width="24px" height="613.067px" viewBox="0 0 24 613.067" enable-background="new 0 0 24 613.067"
	 xml:space="preserve">
<g>
	<path d="M8.741,298.647c-0.034,0-0.067-0.012-0.094-0.035l-0.984-0.857l-1.07,0.653c-0.053,0.033-0.121,0.027-0.168-0.013
		c-0.047-0.04-0.063-0.107-0.039-0.164l0.474-1.147l-0.92-0.877c-0.043-0.041-0.057-0.106-0.032-0.162
		c0.025-0.056,0.082-0.087,0.143-0.085l1.247,0.094l0.54-1.142c0.025-0.054,0.081-0.088,0.142-0.082
		c0.06,0.005,0.11,0.047,0.127,0.104l0.334,1.199l1.219,0.182c0.061,0.008,0.109,0.055,0.12,0.115
		c0.011,0.061-0.018,0.121-0.071,0.152l-1.065,0.599l0.241,1.296c0.011,0.061-0.017,0.121-0.07,0.151
		C8.791,298.642,8.766,298.647,8.741,298.647 M7.678,297.434c0.034,0,0.067,0.012,0.094,0.035l0.752,0.655l-0.184-0.991
		c-0.011-0.061,0.018-0.121,0.071-0.151l0.788-0.443l-0.895-0.133c-0.056-0.009-0.102-0.05-0.117-0.104l-0.256-0.917l-0.417,0.882
		c-0.025,0.054-0.081,0.086-0.141,0.082l-0.943-0.071l0.7,0.667c0.043,0.041,0.057,0.104,0.033,0.159l-0.343,0.831l0.783-0.479
		C7.626,297.44,7.652,297.434,7.678,297.434"/>
	<path d="M11.881,302.876c-3.245,0-7.869-0.306-7.916-0.31l-0.139-0.009l-0.048-0.13c-0.017-0.045-0.417-1.112-0.434-2.133
		c-0.013-0.825,0.245-1.882,0.496-2.902c0.059-0.242,0.117-0.479,0.17-0.709c0.264-1.137,0.515-3.675,0.517-3.7l0.025-0.252
		l0.245,0.064c0.016,0.004,1.558,0.408,2.706,0.47c0.765,0.043,1.606-0.136,2.146-0.249c0.287-0.061,0.476-0.101,0.595-0.101
		c0.289,0.026,0.441,0.331,0.777,0.999c0.262,0.521,0.587,1.169,0.977,1.672c0.733,0.946,2.118,1.795,4,2.453
		c0.713,0.249,1.442,0.39,2.149,0.526c1.124,0.217,2.097,0.404,2.657,0.974c0.931,0.944,0.347,2.661,0.32,2.733l-0.047,0.136
		l-0.145,0.009c0,0-4.321,0.249-7.342,0.419C13.129,302.862,12.554,302.876,11.881,302.876 M4.136,302.146
		c0.803,0.051,4.834,0.299,7.745,0.299c0.665,0,1.233-0.013,1.689-0.038c2.687-0.151,6.401-0.364,7.19-0.41
		c0.105-0.392,0.349-1.533-0.262-2.153c-0.47-0.475-1.379-0.649-2.434-0.854c-0.688-0.132-1.468-0.282-2.21-0.542
		c-1.964-0.688-3.416-1.583-4.199-2.597c-0.416-0.535-0.751-1.204-1.021-1.742c-0.148-0.295-0.33-0.657-0.422-0.759
		c-0.095,0.009-0.281,0.048-0.476,0.089c-0.562,0.118-1.444,0.304-2.258,0.258c-0.925-0.05-2.058-0.304-2.548-0.422
		c-0.071,0.676-0.278,2.544-0.501,3.506c-0.053,0.231-0.111,0.471-0.171,0.715c-0.244,0.994-0.496,2.022-0.483,2.793
		C3.789,301.036,4.033,301.839,4.136,302.146"/>
	<path d="M11.49,301.346c-3.673,0-7.847-0.313-7.89-0.315l0.032-0.431c0.046,0.003,4.647,0.348,8.438,0.312
		c3.783-0.037,8.978-0.464,9.028-0.468l0.035,0.429c-0.051,0.005-5.262,0.434-9.059,0.471
		C11.882,301.345,11.687,301.346,11.49,301.346"/>
	
		<rect x="11.681" y="296.217" transform="matrix(-0.6532 -0.7572 0.7572 -0.6532 -204.9794 499.5011)" width="0.432" height="0.949"/>
	<rect x="10.61" y="294.94" transform="matrix(-0.5971 -0.8022 0.8022 -0.5971 -219.7114 480.5468)" width="0.431" height="1.02"/>
	
		<rect x="13.067" y="297.241" transform="matrix(-0.9042 -0.4272 0.4272 -0.9042 -101.872 572.5422)" width="0.431" height="0.913"/>
	<rect x="14.598" y="297.871" transform="matrix(-0.9097 -0.4152 0.4152 -0.9097 -95.5971 576.015)" width="0.43" height="1.055"/>
	<path d="M16.737,300.998l-0.426-0.064c0.004-0.027,0.104-0.672,0.455-1.288c0.359-0.636,1.207-1.092,1.242-1.11l0.203,0.381
		c-0.008,0.004-0.771,0.417-1.07,0.942C16.831,300.406,16.738,300.992,16.737,300.998"/>
	<g>
		<path d="M12.003,286.999c6,0,10.932,4.883,10.998,10.884c0.031,2.938-1.084,5.712-3.139,7.812
			c-2.056,2.101-4.806,3.272-7.744,3.306h-0.121c-5.999,0-10.932-4.882-10.995-10.883C0.937,292.053,5.818,287.065,11.883,287
			L12.003,286.999 M12.002,285.999c-0.043,0-0.086,0.001-0.13,0.001c-6.627,0.071-11.942,5.501-11.871,12.128
			C0.071,304.711,5.43,310,11.997,310c0.043,0,0.088-0.002,0.132-0.002c6.627-0.069,11.942-5.5,11.872-12.126
			C23.928,291.288,18.57,285.999,12.002,285.999L12.002,285.999z"/>
	</g>
</g>
<g>
	<g>
		<path d="M12,208.999c6.065,0,11,4.935,11,11s-4.936,11-11,11s-11-4.935-11-11S5.935,208.999,12,208.999 M12,207.999
			c-6.626,0-12,5.372-12,12s5.374,12,12,12c6.627,0,12-5.372,12-12S18.627,207.999,12,207.999L12,207.999z"/>
	</g>
	<path d="M8.111,226.219L8.111,226.219c-0.982,0-1.639-0.031-1.645-0.031l-0.085-0.005l-0.069-0.049
		c-0.02-0.015-0.49-0.357-0.624-1.027c-0.098-0.487,0.279-0.976,0.555-1.332c0.04-0.051,0.087-0.112,0.125-0.165
		c-0.023-0.018-0.048-0.035-0.07-0.051c-0.237-0.17-0.595-0.428-0.769-0.903c-0.17-0.47,0.142-0.958,0.417-1.389
		c0.177-0.276,0.377-0.591,0.36-0.779c-0.011-0.116-0.353-0.184-0.685-0.25c-0.464-0.092-1.042-0.206-1.568-0.556
		c-0.307-0.205-0.491-0.481-0.548-0.824c-0.134-0.795,0.508-1.649,0.536-1.687c0.014-0.021,0.583-0.871,1.059-1.288l0.057-0.051
		c1.674-1.482,3.69-2.364,5.992-2.625c0.304-0.034,0.609-0.052,0.907-0.052c3.229,0,5.409,2.003,6.293,3.719
		c0.979,1.898,1.392,6.885,1.409,7.096l0.017,0.217l-0.203,0.075c-0.03,0.012-3.2,1.188-6.366,1.64
		C11.369,226.163,9.421,226.219,8.111,226.219 M6.59,225.617c0.583,0.023,3.683,0.122,6.534-0.285
		c2.646-0.378,5.297-1.271,6.041-1.535c-0.092-0.991-0.514-5.078-1.326-6.659c-0.811-1.572-2.812-3.407-5.782-3.407
		c-0.276,0-0.56,0.017-0.842,0.049c-2.182,0.246-4.091,1.082-5.675,2.483l-0.06,0.053c-0.419,0.367-0.965,1.182-0.97,1.189
		c-0.155,0.206-0.514,0.804-0.437,1.26c0.03,0.18,0.129,0.323,0.3,0.438c0.432,0.286,0.926,0.385,1.361,0.471
		c0.539,0.106,1.096,0.217,1.146,0.762c0.035,0.385-0.211,0.77-0.449,1.142c-0.204,0.318-0.434,0.679-0.361,0.882
		c0.112,0.309,0.363,0.488,0.563,0.633c0.171,0.122,0.318,0.229,0.355,0.41c0.04,0.197-0.092,0.367-0.291,0.624
		c-0.184,0.238-0.492,0.637-0.446,0.868C6.317,225.319,6.497,225.527,6.59,225.617"/>
	<path d="M5.928,222.886l-0.029-0.43c0.045-0.003,4.503-0.307,6.58-0.751c2.078-0.446,6.43-1.868,6.473-1.883l0.135,0.41
		c-0.043,0.015-4.416,1.444-6.517,1.894C10.462,222.577,6.111,222.874,5.928,222.886"/>
	<path d="M17.87,224.422l-0.287-0.027c0.002-0.019,0.168-1.829-0.42-3.778l0.274-0.083C18.043,222.539,17.875,224.347,17.87,224.422
		"/>
	<path d="M16.395,224.918l-0.286-0.019c0.001-0.019,0.113-1.879-0.478-3.83l0.275-0.083
		C16.513,222.989,16.401,224.84,16.395,224.918"/>
	<path d="M14.648,225.309l-0.284-0.045c0.002-0.018,0.27-1.74-0.316-3.685l0.274-0.083
		C14.928,223.506,14.659,225.236,14.648,225.309"/>
	<path d="M12.749,225.715c-0.008-0.186-0.008-0.39-0.011-0.606c-0.009-0.947-0.021-2.125-0.362-3.217l0.276-0.085
		c0.353,1.132,0.365,2.333,0.374,3.299c0.002,0.215,0.003,0.417,0.01,0.601L12.749,225.715z"/>
	
		<rect x="9.259" y="223.931" transform="matrix(-0.0505 -0.9987 0.9987 -0.0505 -212.0962 246.5004)" width="3.744" height="0.287"/>
	<path d="M9.33,226.028c-0.017-0.04-0.392-0.993-0.216-1.875c0.163-0.814,0.038-1.698,0.037-1.707l0.284-0.042
		c0.005,0.038,0.133,0.94-0.04,1.805c-0.159,0.799,0.197,1.704,0.201,1.713L9.33,226.028z"/>
	<path d="M7.579,225.908c-0.021-0.041-0.501-1.012-0.036-1.853c0.381-0.688-0.224-1.438-0.23-1.444l0.221-0.184
		c0.03,0.037,0.737,0.907,0.26,1.767c-0.391,0.706,0.036,1.575,0.041,1.584L7.579,225.908z"/>
</g>
<g>
	<g>
		<path d="M12,52.999c6.065,0,11,4.935,11,11s-4.936,11-11,11s-11-4.935-11-11S5.935,52.999,12,52.999 M12,51.999
			c-6.628,0-12,5.372-12,12c0,6.627,5.372,12,12,12c6.627,0,12-5.373,12-12C24,57.371,18.627,51.999,12,51.999L12,51.999z"/>
	</g>
	<path d="M12.212,71.507c-0.082,0-0.164-0.002-0.246-0.003c-0.185,0.004-0.371,0.001-0.555-0.005v-0.018
		c-2.463-0.149-4.715-0.92-4.824-0.958L6.43,70.468l0.563-7.561l-2.662-1.529l0.098-0.185c0.181-0.342,1.797-3.354,2.719-3.869
		c0.909-0.508,1.691-0.705,1.725-0.713l0.15-0.037l0.083,0.13c0.007,0.009,0.74,1.072,2.99,1.072c2.261,0,2.9-1.158,2.908-1.17
		l0.093-0.173l0.181,0.074c0.026,0.012,0.678,0.282,1.571,0.781c0.924,0.515,2.539,3.544,2.72,3.888l0.098,0.184l-2.66,1.537
		l0.563,7.568l-0.156,0.055c-0.108,0.038-2.359,0.81-4.824,0.959v0.02C12.464,71.504,12.337,71.507,12.212,71.507 M6.887,70.168
		c0.602,0.19,2.841,0.856,5.083,0.904c2.262-0.036,4.536-0.714,5.144-0.906l-0.621-8.341l0.43-0.044l0.08,0.621l2.09-1.207
		c-0.547-1.01-1.807-3.17-2.451-3.529c-0.616-0.344-1.121-0.579-1.366-0.688c-0.286,0.373-1.164,1.23-3.177,1.23
		c-2.048,0-2.966-0.814-3.251-1.14c-0.253,0.076-0.841,0.273-1.486,0.633c-0.645,0.359-1.903,2.506-2.449,3.512l2.087,1.199
		l0.081-0.626l0.429,0.044L6.887,70.168z"/>
</g>
<g>
	<g>
		<path d="M12,27c6.065,0,11,4.935,11,11s-4.936,11-11,11S1,44.064,1,38C1,31.934,5.935,27,12,27 M12,26C5.374,26,0,31.372,0,38
			c0,6.626,5.374,12,12,12c6.627,0,12-5.373,12-12C24,31.372,18.627,26,12,26L12,26z"/>
	</g>
	<path d="M10.959,32.968l-0.148-0.17c-0.005-0.007-0.646-0.746-1.146-1.401c-0.502-0.656-0.847-1.103-0.847-1.103l-0.13-0.167
		l1.973-1.599l0.075,0.341c0.001,0.011,0.235,1.054,0.577,1.57c0.357,0.536,0.85,1.082,0.854,1.087l0.142,0.155L10.959,32.968z
		 M9.286,30.196c0.145,0.188,0.401,0.521,0.721,0.938c0.349,0.456,0.766,0.954,0.982,1.208l0.719-0.686
		c-0.179-0.208-0.495-0.591-0.755-0.979c-0.259-0.389-0.454-1.003-0.556-1.382L9.286,30.196z"/>
	<path d="M5.127,43.616l-0.43-0.034l0.159-2.022c0.039-0.367,0.933-8.86,1.229-9.708c0.315-0.904,2.688-1.811,2.958-1.912
		l0.15,0.404c-0.944,0.354-2.513,1.111-2.701,1.649c-0.232,0.665-0.95,7.159-1.208,9.606L5.127,43.616z"/>
	<path d="M12.258,45.862c-0.063,0-1.582-0.002-2.896-0.23c-1.316-0.229-2.683-0.747-2.74-0.769L6.45,44.796l0.039-0.18
		c0.007-0.034,0.713-3.42,0.87-5.244C7.513,37.558,7.203,34.629,7.2,34.6l0.429-0.046c0.012,0.122,0.318,3,0.16,4.856
		c-0.138,1.602-0.69,4.377-0.84,5.113c0.409,0.146,1.479,0.51,2.488,0.684c1.277,0.223,2.807,0.225,2.821,0.225V45.862z"/>
	<polygon points="6.695,44.876 4.315,44.835 4.203,43.342 6.859,43.379 6.853,43.811 4.669,43.78 4.716,44.41 6.704,44.445 	"/>
	<path d="M13.042,32.968l-1.349-1.287l0.14-0.156c0.006-0.005,0.498-0.551,0.854-1.087c0.345-0.516,0.576-1.559,0.578-1.57
		l0.075-0.341l1.828,1.488l-0.066,0.151c-0.012,0.022-0.255,0.561-0.768,1.23c-0.5,0.655-1.142,1.394-1.146,1.401L13.042,32.968z
		 M12.292,31.657l0.718,0.686c0.218-0.255,0.636-0.752,0.982-1.208c0.327-0.427,0.539-0.801,0.643-0.998l-1.032-0.839
		c-0.104,0.378-0.297,0.992-0.556,1.381C12.788,31.066,12.471,31.45,12.292,31.657"/>
	<path d="M18.874,43.616l-0.158-2.021c-0.258-2.441-0.977-8.936-1.207-9.6c-0.188-0.54-1.691-1.312-2.596-1.67l0.159-0.4
		c0.259,0.103,2.528,1.027,2.843,1.929c0.297,0.848,1.191,9.341,1.229,9.703l0.159,2.027L18.874,43.616z"/>
	<path d="M11.742,45.862V45.43c0.015,0,1.545-0.002,2.822-0.225c1.011-0.175,2.079-0.538,2.487-0.684
		c-0.148-0.735-0.702-3.511-0.84-5.113c-0.158-1.856,0.146-4.734,0.16-4.856l0.428,0.048c-0.002,0.029-0.313,2.958-0.157,4.773
		c0.155,1.824,0.862,5.21,0.87,5.244l0.037,0.18l-0.172,0.066c-0.058,0.022-1.424,0.541-2.74,0.769
		C13.325,45.859,11.806,45.862,11.742,45.862"/>
	<polygon points="17.304,44.876 17.295,44.445 19.286,44.41 19.331,43.785 17.308,43.852 17.293,43.421 19.797,43.337 
		19.685,44.835 	"/>
	<rect x="5.084" y="38.514" transform="matrix(-0.0095 -1 1 -0.0095 -26.4687 51.0975)" width="13.977" height="0.287"/>
</g>
<g>
	<g>
		<path d="M12,130.999c6.065,0,11,4.935,11,11s-4.936,11-11,11s-11-4.935-11-11S5.935,130.999,12,130.999 M12,129.999
			c-6.628,0-12,5.374-12,12c0,6.627,5.372,12,12,12c6.627,0,12-5.373,12-12S18.627,129.999,12,129.999L12,129.999z"/>
	</g>
	<path d="M10.103,137.642c-0.308,0-0.595-0.079-0.851-0.235c-1.189-0.725-1.002-2.492-0.993-2.566l0.011-0.098l1.53-1.047
		l0.121,0.182c0,0,0.563,0.844,0.991,1.473c0.417,0.609,0.986,1.227,0.992,1.232l0.149,0.162l-0.164,0.146
		C11.855,136.921,11.033,137.642,10.103,137.642 M8.68,134.984c-0.018,0.349-0.019,1.558,0.796,2.054
		c0.188,0.115,0.399,0.174,0.627,0.174c0.542,0,1.067-0.321,1.329-0.51c-0.206-0.233-0.574-0.666-0.875-1.108
		c-0.307-0.451-0.683-1.013-0.873-1.295L8.68,134.984z"/>
	<path d="M13.454,137.642L13.454,137.642c-0.93,0-1.751-0.722-1.787-0.752l-0.164-0.146l0.149-0.162
		c0.006-0.006,0.576-0.623,0.992-1.232c0.428-0.628,0.989-1.473,0.989-1.473l0.121-0.182l1.531,1.046l0.012,0.099
		c0.01,0.075,0.197,1.841-0.992,2.566C14.047,137.563,13.76,137.642,13.454,137.642 M12.125,136.702
		c0.262,0.188,0.788,0.51,1.329,0.51c0.229,0,0.439-0.059,0.627-0.174c0.818-0.498,0.815-1.705,0.797-2.054l-1.004-0.687
		c-0.189,0.283-0.564,0.846-0.875,1.295C12.7,136.035,12.33,136.468,12.125,136.702"/>
	<path d="M11.99,149.882c-0.065,0-1.628-0.002-2.979-0.219c-1.351-0.216-3.511-0.909-3.603-0.938
		c-0.084-0.026-0.151-0.091-0.181-0.173c-0.031-0.083-0.022-0.176,0.024-0.25c0.018-0.029,1.802-2.956,1.957-4.628
		c0.155-1.677-0.66-3.895-0.669-3.917c-0.02-0.055-0.023-0.111-0.01-0.165c0.002-0.012,0.237-1.054-0.028-1.714
		c-0.277-0.69-0.841-1.271-0.847-1.276c-0.064-0.066-0.094-0.159-0.078-0.25c0.016-0.091,0.074-0.169,0.157-0.209l2.624-1.28
		l0.252,0.517l-2.286,1.115c0.215,0.266,0.518,0.688,0.711,1.17c0.286,0.711,0.129,1.678,0.072,1.971
		c0.151,0.43,0.826,2.452,0.674,4.092c-0.137,1.482-1.371,3.73-1.852,4.56c0.672,0.205,2.178,0.65,3.173,0.809
		c1.307,0.21,2.872,0.212,2.888,0.212L11.99,149.882L11.99,149.882z"/>
	<path d="M11.705,149.882v-0.575c0.016,0,1.583-0.002,2.887-0.212c0.988-0.157,2.479-0.596,3.158-0.805
		c-0.539-0.843-1.924-3.136-2.063-4.624c-0.151-1.644,0.687-3.803,0.878-4.271c-0.059-0.271-0.182-1.042,0.096-1.73
		c0.191-0.48,0.493-0.902,0.709-1.17l-2.389-1.154l0.251-0.518l3.088,1.494l-0.278,0.285c-0.008,0.006-0.571,0.586-0.848,1.276
		c-0.264,0.653-0.053,1.46-0.051,1.468l0.025,0.095l-0.039,0.093c-0.01,0.023-1.023,2.413-0.869,4.081
		c0.154,1.666,2.156,4.647,2.177,4.676l0.213,0.318l-0.362,0.116c-0.094,0.029-2.252,0.723-3.604,0.938
		C13.333,149.88,11.77,149.882,11.705,149.882"/>
	<rect x="11.389" y="136.84" width="0.431" height="12.65"/>
</g>
<g>
	<g>
		<path d="M12,260.999c6.065,0,11,4.935,11,11s-4.936,11-11,11s-11-4.935-11-11S5.936,260.999,12,260.999 M12,259.999
			c-6.627,0-12,5.373-12,12s5.372,12,12,12c6.627,0,12-5.373,12-12S18.627,259.999,12,259.999L12,259.999z"/>
	</g>
	<path d="M19.34,278.407l-0.568-0.079c0.01-0.072,0.249-1.775,0.59-3.009c0.284-1.031,0.795-2.45,0.967-2.919
		c-0.295-0.365-1.127-1.429-1.625-2.427c-0.521-1.041-0.693-3.388-0.738-4.153l-1.043-0.134c0.088,0.867,0.154,2.996-1.066,4.339
		c-0.805,0.885-2.211,1.443-3.661,1.409c-1.281-0.014-2.399-0.463-3.07-1.231c-1.228-1.407-1.541-3.693-1.616-4.525l-1.113,0.143
		c-0.043,0.766-0.216,3.112-0.738,4.153c-0.499,0.998-1.331,2.062-1.625,2.427c0.171,0.469,0.683,1.888,0.967,2.919
		c0.34,1.234,0.558,2.935,0.567,3.006l-0.57,0.073c-0.002-0.018-0.222-1.731-0.551-2.927c-0.332-1.201-1.002-3.009-1.009-3.026
		l-0.059-0.156l0.107-0.128c0.011-0.014,1.088-1.303,1.658-2.444c0.559-1.118,0.688-4.133,0.69-4.163l0.01-0.242l2.205-0.282
		l0.013,0.312c0.001,0.029,0.141,2.929,1.497,4.484c0.563,0.646,1.526,1.022,2.643,1.034c1.292,0.025,2.532-0.454,3.229-1.221
		c1.343-1.476,0.879-4.207,0.874-4.234l-0.068-0.386l2.282,0.293l0.009,0.242c0.002,0.03,0.132,3.045,0.69,4.163
		c0.57,1.142,1.646,2.431,1.658,2.444l0.106,0.128l-0.06,0.156c-0.006,0.018-0.678,1.825-1.008,3.026
		C19.584,276.669,19.344,278.39,19.34,278.407"/>
	<path d="M11.968,266.84c-2.586,0-4.256-1.261-4.326-1.315l0.263-0.342c0.016,0.013,1.63,1.226,4.063,1.226
		c2.453,0,4.617-1.229,4.639-1.241l0.216,0.374C16.73,265.594,14.54,266.84,11.968,266.84"/>
	<path d="M19.116,278.365c-0.037-0.003-3.718-0.254-6.936-0.254c-3.218,0-6.897,0.251-6.935,0.254l-0.029-0.431
		c0.037-0.002,3.731-0.255,6.964-0.255c3.232,0,6.928,0.253,6.965,0.255L19.116,278.365z"/>
	<path d="M19.12,276.938c-0.035-0.002-3.719-0.254-6.938-0.254c-3.22,0-6.902,0.252-6.939,0.254l-0.02-0.287
		c0.037-0.002,3.728-0.254,6.959-0.254c3.229,0,6.923,0.252,6.96,0.254L19.12,276.938z"/>
</g>
<g>
	<g>
		<path d="M11.999,1L11.999,1h0.071C18.135,1.039,23.04,6.005,23,12.07C22.961,18.097,18.029,23,12.002,23h-0.073
			C5.864,22.96,0.962,17.994,1.001,11.929C1.04,5.903,5.973,1,11.999,1 M11.999,0C5.408,0,0.043,5.323,0.001,11.923
			c-0.042,6.627,5.295,12.034,11.922,12.076c0.027,0,0.053,0,0.08,0C18.595,24,23.958,18.677,24,12.077
			C24.042,5.449,18.706,0.043,12.077,0C12.05,0,12.025,0,11.999,0L11.999,0z"/>
	</g>
	<path d="M9.225,16.431c-1.15,0-2.347-0.17-3.56-0.506c-1.94-0.536-4.035-2.176-4.124-2.246l-0.485-0.383l0.619-0.002
		c0.013,0,1.374-0.01,2.643-0.458c0.891-0.314,1.719-1.003,2.06-1.39c0.378-0.429,0.651-1.069,0.94-1.746
		c0.437-1.024,0.887-2.082,1.779-2.554c0.618-0.327,1.465-0.515,2.325-0.515c1.429,0,2.676,0.505,3.42,1.384
		c0.742,0.88,0.959,1.428,1.15,1.911c0.156,0.401,0.295,0.749,0.725,1.233c0.383,0.43,1.461,1.067,2.457,1.333
		c1.213,0.323,2.463,0.357,2.943,0.357c0.148,0,0.234-0.003,0.236-0.003l0.463-0.018l-0.283,0.366
		c-0.037,0.046-0.945,1.189-2.595,1.104l-0.089-0.005c-0.576-0.03-1.121-0.059-1.668-0.059c-1.027,0-1.893,0.106-2.797,0.343
		c-0.784,0.206-1.307,0.496-1.811,0.777c-0.582,0.325-1.186,0.661-2.167,0.861C10.708,16.358,9.973,16.431,9.225,16.431
		 M2.288,13.692c0.729,0.515,2.171,1.451,3.493,1.818c1.937,0.536,3.831,0.631,5.541,0.282c0.917-0.187,1.466-0.493,2.046-0.815
		c0.527-0.294,1.072-0.598,1.909-0.817c0.943-0.247,1.841-0.357,2.906-0.357c0.558,0,1.108,0.029,1.69,0.06l0.088,0.005
		c0.865,0.049,1.498-0.306,1.863-0.591c-0.613-0.015-1.699-0.085-2.761-0.368c-1.106-0.293-2.246-0.987-2.669-1.462
		c-0.48-0.542-0.639-0.939-0.805-1.361c-0.188-0.475-0.381-0.966-1.078-1.791c-0.662-0.782-1.789-1.231-3.091-1.231
		c-0.792,0-1.565,0.17-2.124,0.465c-0.756,0.4-1.177,1.387-1.583,2.342c-0.303,0.71-0.588,1.38-1.013,1.862
		c-0.443,0.504-1.333,1.191-2.239,1.512C3.654,13.527,2.828,13.644,2.288,13.692"/>
	<path d="M11.569,11.609c-2.398,0-4.546-0.449-4.567-0.453l0.06-0.281c0.021,0.004,2.141,0.447,4.508,0.447
		c2.356,0,4.492-0.826,4.515-0.833l0.104,0.268C16.167,10.764,13.981,11.609,11.569,11.609"/>
	<path d="M11.509,12.37c-2.401,0-4.909-0.593-4.933-0.599l0.066-0.279c0.025,0.005,2.5,0.591,4.867,0.591
		c2.361,0,4.975-0.908,5-0.917l0.097,0.271C16.579,11.446,13.918,12.37,11.509,12.37"/>
	<path d="M8.668,16.392l-0.003-0.287c0.045-0.001,4.546-0.061,7.498-0.651c2.941-0.588,5.276-1.88,5.301-1.893l0.141,0.251
		c-0.023,0.013-2.398,1.326-5.385,1.923C13.243,16.331,8.714,16.392,8.668,16.392"/>
</g>
<g>
	<g>
		<path d="M12,156.999c6.065,0,11,4.935,11,11s-4.936,11-11,11s-11-4.935-11-11S5.936,156.999,12,156.999 M12,155.999
			c-6.628,0-12,5.374-12,12s5.372,12,12,12c6.627,0,12-5.373,12-12S18.627,155.999,12,155.999L12,155.999z"/>
	</g>
	<path d="M14.911,174.845c-0.299,0-0.522-0.018-0.688-0.055c-1.155-0.256-2.236-1.017-3.209-2.259
		c-0.569-0.725-1.059-1.117-1.34-1.308l-0.538,3.572H5.271l-0.033-0.177c-0.004-0.025-0.454-2.479-0.593-4.118
		c-0.09-1.059,0.277-2.446,0.601-3.67c0.194-0.734,0.378-1.428,0.438-1.954c0.159-1.388-0.09-3.291-0.093-3.31l-0.031-0.238
		l6.716-0.183l-0.019,0.239c-0.002,0.033-0.247,3.406,1.23,5.194c0.965,1.166,2.086,1.391,3.17,1.607
		c0.592,0.119,1.15,0.229,1.639,0.492c1.074,0.579,1.486,1.347,1.621,1.683l0.342-0.013l-0.217,3.906l-0.17,0.028
		C19.734,174.308,16.536,174.845,14.911,174.845 M9.337,170.565l0.258,0.113c0.031,0.014,0.792,0.356,1.757,1.587
		c0.912,1.161,1.908,1.869,2.964,2.104c0.132,0.029,0.33,0.045,0.593,0.045c1.381,0,4.025-0.414,4.719-0.526l0.172-3.09
		l-0.201,0.008l-0.042-0.169c-0.011-0.037-0.259-0.926-1.468-1.577c-0.43-0.231-0.957-0.337-1.518-0.449
		c-1.104-0.221-2.357-0.472-3.418-1.756c-1.369-1.655-1.373-4.431-1.341-5.264l-5.767,0.157c0.064,0.564,0.198,2.019,0.066,3.178
		c-0.064,0.558-0.251,1.266-0.45,2.016c-0.314,1.19-0.672,2.539-0.588,3.523c0.116,1.363,0.451,3.309,0.555,3.899h3.135
		L9.337,170.565z"/>
	<path d="M14.741,171.944c-1.947,0-4.463-0.381-5.994-1.195l0.203-0.381c1.698,0.903,4.681,1.25,6.623,1.119
		c1.824-0.124,4.217-1.089,4.24-1.099l0.163,0.399c-0.101,0.041-2.479,1.001-4.375,1.129
		C15.331,171.936,15.042,171.944,14.741,171.944"/>
	<path d="M5.84,163.57l-1.926-0.602c-0.088-0.026-0.148-0.106-0.152-0.198c-0.002-0.093,0.053-0.176,0.139-0.209l1.869-0.715
		l0.154,0.403l-1.289,0.493l1.334,0.416L5.84,163.57z"/>
	<path d="M5.872,164.99l-1.969-0.675c-0.089-0.031-0.148-0.115-0.146-0.209c0.002-0.094,0.065-0.176,0.155-0.202l1.97-0.579
		l0.121,0.414l-1.318,0.388l1.328,0.455L5.872,164.99z"/>
	<path d="M9.875,171.375c-0.011-0.009-1.129-0.784-2.286-1.073c-1.157-0.288-2.656-0.053-2.67-0.05l-0.068-0.426
		c0.065-0.011,1.603-0.252,2.843,0.058c1.235,0.308,2.381,1.104,2.429,1.138L9.875,171.375z"/>
	<path d="M8.061,166.42c-1.27,0-2.21-0.242-2.261-0.255l0.11-0.418c0.015,0.005,1.532,0.394,3.267,0.173
		c1.72-0.219,3.11-1.337,3.124-1.349l0.272,0.335c-0.061,0.05-1.501,1.208-3.342,1.441C8.823,166.399,8.428,166.42,8.061,166.42"/>
	<path d="M8.541,168.396c-1.698,0-3.151-0.317-3.221-0.332l0.093-0.422c0.019,0.004,1.872,0.408,3.779,0.306
		c1.877-0.101,3.934-1.489,3.955-1.503l0.243,0.356c-0.087,0.06-2.176,1.47-4.174,1.577C8.988,168.391,8.763,168.396,8.541,168.396"
		/>
	<path d="M6.627,167.555c-0.267,0-0.484-0.217-0.484-0.483c0-0.266,0.217-0.483,0.484-0.483c0.266,0,0.483,0.217,0.483,0.483
		C7.11,167.338,6.893,167.555,6.627,167.555 M6.627,166.875c-0.108,0-0.196,0.088-0.196,0.196c0,0.108,0.088,0.196,0.196,0.196
		s0.195-0.088,0.195-0.196C6.822,166.963,6.735,166.875,6.627,166.875"/>
	<path d="M8.439,167.641c-0.267,0-0.484-0.218-0.484-0.484c0-0.266,0.217-0.484,0.484-0.484s0.484,0.218,0.484,0.484
		C8.923,167.423,8.707,167.641,8.439,167.641 M8.439,166.96c-0.107,0-0.196,0.088-0.196,0.196c0,0.107,0.089,0.196,0.196,0.196
		c0.108,0,0.197-0.089,0.197-0.196C8.636,167.048,8.547,166.96,8.439,166.96"/>
	<path d="M10.274,167.382c-0.266,0-0.483-0.217-0.483-0.484s0.217-0.483,0.483-0.483c0.268,0,0.484,0.217,0.484,0.483
		C10.759,167.165,10.542,167.382,10.274,167.382 M10.274,166.701c-0.107,0-0.195,0.088-0.195,0.196s0.088,0.196,0.195,0.196
		c0.108,0,0.197-0.088,0.197-0.196S10.382,166.701,10.274,166.701"/>
	<path d="M11.842,166.754c-0.267,0-0.484-0.218-0.484-0.484s0.217-0.483,0.484-0.483c0.266,0,0.483,0.217,0.483,0.483
		S12.108,166.754,11.842,166.754 M11.842,166.073c-0.108,0-0.196,0.089-0.196,0.196c0,0.108,0.088,0.196,0.196,0.196
		c0.108,0,0.195-0.088,0.195-0.196C12.038,166.162,11.95,166.073,11.842,166.073"/>
</g>
<g>
	<g>
		<path d="M12,234.999c6.065,0,11,4.935,11,11s-4.936,11-11,11s-11-4.935-11-11S5.936,234.999,12,234.999 M12,233.999
			c-6.627,0-12,5.373-12,12s5.373,12,12,12c6.627,0,12-5.373,12-12S18.627,233.999,12,233.999L12,233.999z"/>
	</g>
	<path d="M13.665,251.913l-0.029-0.001c-1.133-0.03-2.348-0.894-3.094-2.199c-0.827-1.45-2.405-3.319-2.948-3.319
		c-0.421,0.61-0.557,2.994-0.557,4.455v0.287H5.904l0.017-0.304c0.001-0.024,0.135-2.513-0.119-3.654
		c-0.088-0.397-0.239-0.795-0.385-1.18c-0.285-0.752-0.58-1.529-0.411-2.323c0.188-0.886,1.25-3.312,1.841-3.376H6.85
		c0.377,0,0.649,0.415,1.565,2.04c0.262,0.464,0.527,0.936,0.762,1.309c0.152,0.243,0.34,0.558,0.549,0.912
		c0.749,1.265,1.881,3.178,2.611,3.64c1.32,0.834,2.005,1.01,2.351,1.01c0.158,0,0.27-0.036,0.342-0.108
		c0.512-0.511,0.792-1.308,0.795-1.316l0.098-0.279l4.193,1.603c0.219,0.165,0.531,0.558,0.316,0.989
		c-0.293,0.583-6.163,1.816-6.764,1.816h-0.004V251.913z M7.593,245.818c1.146,0,3.108,3.016,3.447,3.609
		c0.737,1.291,1.843,1.89,2.61,1.909l0.019,0.288v-0.287c0.994,0,5.668-1.203,6.258-1.537c0.002-0.077-0.088-0.171-0.133-0.213
		l-3.535-1.341c-0.141,0.32-0.416,0.855-0.82,1.261c-0.184,0.183-0.436,0.276-0.749,0.276c-0.612,0-1.507-0.37-2.658-1.099
		c-0.847-0.537-1.975-2.441-2.799-3.833c-0.206-0.35-0.391-0.66-0.541-0.899c-0.239-0.38-0.509-0.859-0.776-1.332
		c-0.323-0.571-0.79-1.4-1.026-1.683c-0.334,0.404-1.121,1.919-1.32,2.855c-0.133,0.629,0.119,1.295,0.387,2.001
		c0.152,0.403,0.311,0.82,0.409,1.259c0.108,0.484,0.151,1.17,0.165,1.826c0.072-1.078,0.223-2.284,0.536-2.77
		C7.187,245.922,7.374,245.818,7.593,245.818"/>
</g>
<g>
	<g>
		<g>
			<path d="M12.001,182.999c6.065,0,11,4.935,11,11s-4.935,11-11,11c-6.066,0-11-4.935-11-11S5.935,182.999,12.001,182.999
				 M12.001,181.999c-6.627,0-12,5.372-12,12s5.374,12,12,12c6.626,0,12-5.372,12-12S18.627,181.999,12.001,181.999L12.001,181.999z
				"/>
		</g>
		<path d="M7.546,202.331c-0.073,0-0.144-0.038-0.183-0.103c-0.017-0.027-0.406-0.662-0.627-1.224
			c-0.058-0.147-0.103-0.27-0.134-0.366l-0.658,0.167c-0.056,0.013-0.115,0.004-0.166-0.025c-0.049-0.03-0.084-0.079-0.098-0.136
			c-0.032-0.142-0.086-0.302-0.121-0.361c-0.173-0.072-0.318-0.18-0.429-0.321c-0.361-0.463-0.183-1.525,0.007-2.649
			c0.07-0.413,0.135-0.802,0.166-1.131c0.098-1.023,1.667-8.438,2.305-9.342c0.621-0.879,2.282-1.172,2.352-1.184
			c0.063-0.012,0.128,0.006,0.177,0.049c0.049,0.042,0.076,0.103,0.075,0.167c0,0.023-0.039,2.417,0.077,3.833
			c0.111,1.346,0.629,5.149,0.85,6.772l0.041,0.293c0.18,1.329,0.523,4.459,0.527,4.489c0.012,0.111-0.061,0.213-0.169,0.235
			l-3.945,0.831C7.576,202.33,7.562,202.331,7.546,202.331 M6.979,200.397c0.009,0.039,0.041,0.155,0.157,0.45
			c0.151,0.381,0.393,0.814,0.516,1.025l3.604-0.76c-0.079-0.706-0.352-3.153-0.505-4.286l-0.04-0.291
			c-0.222-1.628-0.741-5.438-0.852-6.796c-0.096-1.151-0.089-2.931-0.083-3.604c-0.462,0.111-1.428,0.402-1.817,0.954
			c-0.52,0.734-2.108,7.873-2.227,9.134c-0.034,0.343-0.1,0.74-0.17,1.16c-0.15,0.891-0.337,2-0.092,2.313
			c0.068,0.088,0.163,0.154,0.279,0.198c0.053,0.021,0.178,0.069,0.294,0.44l0.669-0.169c0.111-0.027,0.224,0.036,0.258,0.144
			C6.979,200.339,6.982,200.368,6.979,200.397"/>
		<path d="M6.672,200.266c0-0.023-0.002-2.292,0.197-4.278c0.198-1.979,0.6-4.646,0.604-4.673l0.426,0.065
			c-0.003,0.026-0.404,2.681-0.602,4.65c-0.197,1.964-0.195,4.212-0.195,4.234L6.672,200.266z"/>
		<path d="M16.465,202.346c-0.014,0-0.028-0.001-0.045-0.005l-3.947-0.845c-0.108-0.022-0.181-0.124-0.169-0.233
			c0.003-0.031,0.335-3.159,0.512-4.489l0.046-0.352c0.215-1.61,0.715-5.381,0.819-6.71c0.112-1.416,0.063-3.809,0.063-3.833
			c-0.002-0.064,0.025-0.126,0.074-0.168s0.114-0.059,0.178-0.049c0.07,0.012,1.731,0.311,2.354,1.191
			c0.642,0.904,2.235,8.325,2.336,9.35c0.033,0.328,0.101,0.718,0.171,1.13c0.193,1.126,0.376,2.189,0.016,2.65
			c-0.108,0.141-0.252,0.249-0.428,0.321c-0.033,0.06-0.088,0.219-0.119,0.359c-0.013,0.057-0.048,0.105-0.098,0.136
			c-0.051,0.031-0.107,0.04-0.166,0.025l-0.656-0.168c-0.033,0.104-0.08,0.225-0.135,0.364c-0.221,0.561-0.605,1.194-0.623,1.222
			C16.611,202.308,16.54,202.346,16.465,202.346 M12.752,201.115l3.607,0.772c0.123-0.212,0.363-0.643,0.512-1.023
			c0.114-0.294,0.146-0.41,0.156-0.45c-0.004-0.028,0-0.059,0.01-0.088c0.033-0.108,0.148-0.171,0.258-0.142l0.67,0.171
			c0.115-0.372,0.24-0.419,0.291-0.439c0.117-0.045,0.211-0.109,0.279-0.198c0.242-0.311,0.053-1.42-0.102-2.312
			c-0.072-0.421-0.141-0.816-0.176-1.161c-0.123-1.26-1.735-8.405-2.26-9.142c-0.39-0.552-1.354-0.847-1.819-0.96
			c0.01,0.675,0.022,2.452-0.068,3.603c-0.104,1.34-0.606,5.119-0.821,6.732l-0.045,0.353
			C13.092,197.963,12.829,200.41,12.752,201.115"/>
		<path d="M16.903,200.282c0-0.022-0.006-2.271-0.209-4.234c-0.203-1.97-0.613-4.627-0.617-4.653l0.426-0.065
			c0.004,0.026,0.416,2.693,0.621,4.674c0.205,1.987,0.211,4.256,0.211,4.278H16.903z"/>
		<rect x="11.43" y="201.048" width="1.396" height="0.432"/>
	</g>
	<rect x="9.98" y="185.685" width="4.024" height="0.575"/>
</g>
<g>
	<path d="M4.834,122.35l-0.048-3.665l0.255-0.032c0.109-0.013,2.697-0.329,5.091,0.042c0.934,0.146,1.702,0.392,2.447,0.63
		c1.185,0.378,2.207,0.707,3.644,0.561c1.715-0.175,3.051-0.657,3.647-0.905c0-0.016,0.002-0.034,0.006-0.052
		c0.033-0.214,0.049-0.953-1.263-1.38c-0.419-0.137-0.899-0.259-1.407-0.39c-1.367-0.351-2.916-0.749-4.176-1.608
		c-1.792-1.226-1.754-5.929-1.751-6.129l0.575,0.007c-0.016,1.274,0.225,4.774,1.501,5.647c1.177,0.804,2.673,1.188,3.993,1.525
		c0.518,0.134,1.008,0.26,1.443,0.401c1.432,0.466,1.653,1.327,1.664,1.775c0.061,0.013,0.109,0.022,0.109,0.022l0.148,0.025
		l0.608,1.336l-0.157,0.141c-0.053,0.048-1.336,1.174-4.672,1.632c-1.883,0.258-3.242-0.192-4.443-0.592
		c-0.852-0.282-1.599-0.529-2.374-0.461l-0.25,1.423L4.834,122.35z M5.368,119.196l0.034,2.572l3.542-0.034l0.24-1.364l0.202-0.032
		c0.989-0.158,1.891,0.142,2.847,0.459c1.141,0.378,2.434,0.807,4.184,0.567c2.49-0.343,3.771-1.075,4.199-1.366l-0.273-0.597
		c-0.434,0.2-1.961,0.841-4.063,1.055c-1.558,0.159-2.684-0.203-3.876-0.585c-0.722-0.231-1.469-0.471-2.358-0.608
		C8.153,118.971,6.079,119.126,5.368,119.196"/>
	<path d="M5.162,118.937c-0.012-0.082-0.273-2.024,0.473-3.768c0.672-1.573-0.351-4.867-0.361-4.901l0.548-0.172
		c0.045,0.144,1.097,3.531,0.341,5.299c-0.684,1.598-0.435,3.444-0.432,3.462L5.162,118.937z"/>
	<path d="M5.367,110.363l-0.148-0.555c0.068-0.02,1.683-0.449,2.901-0.583c1.212-0.133,3.574-0.124,3.674-0.126l-0.002,0.575
		c-0.022,0-2.429-0.007-3.609,0.123C7.008,109.926,5.384,110.359,5.367,110.363"/>
	<rect x="13.116" y="115.531" transform="matrix(-0.8717 -0.49 0.49 -0.8717 -32.0417 224.2222)" width="0.432" height="1.548"/>
	<rect x="11.475" y="113.589" transform="matrix(-0.471 -0.8821 0.8821 -0.471 -83.712 178.5854)" width="0.432" height="1.608"/>
	<rect x="10.694" y="111.154" transform="matrix(-0.2359 -0.9718 0.9718 -0.2359 -95.296 148.9395)" width="0.431" height="1.565"/>
	<rect x="8.577" y="109.519" width="0.575" height="6.9"/>
	<g>
		<path d="M12.003,103.998v1c6.019,0,10.953,4.899,10.998,10.92c0.021,2.938-1.104,5.709-3.164,7.801
			c-2.063,2.093-4.816,3.257-7.756,3.279h-0.083c-6.018,0-10.951-4.899-10.996-10.92c-0.044-6.064,4.855-11.035,10.92-11.08h0.081
			L12.003,103.998 M12.001,103.998c-0.029,0-0.059,0-0.088,0c-6.627,0.05-11.96,5.46-11.913,12.087
			c0.049,6.597,5.411,11.913,11.996,11.913c0.03,0,0.061,0,0.091,0c6.628-0.049,11.96-5.46,11.912-12.087
			C23.952,109.313,18.588,103.997,12.001,103.998L12.001,103.998z"/>
	</g>
</g>
<g>
	<g>
		<path d="M12,78.999L12,78.999h0.071c2.938,0.019,5.693,1.181,7.758,3.271c2.064,2.091,3.191,4.86,3.172,7.798
			c-0.039,6.026-4.973,10.929-10.998,10.929H11.93c-6.064-0.039-10.967-5.004-10.928-11.069C1.039,83.902,5.973,79,12,78.999
			 M12,77.999C5.408,78,0.043,83.321,0.001,89.922c-0.042,6.627,5.295,12.033,11.922,12.075c0.027,0,0.053,0,0.08,0
			c6.591,0,11.955-5.322,11.998-11.922c0.043-6.627-5.295-12.033-11.922-12.076C12.051,77.999,12.026,77.999,12,77.999L12,77.999z"
			/>
	</g>
	<path d="M12.005,97.761c-4.363,0-6.55-1.568-6.641-1.635L5.25,96.043l0.031-0.139c0.003-0.016,0.384-1.673,1.442-4.468
		c0.906-2.392,1.979-3.645,2.322-4.005l-1.171-2.698l0.184-0.09c0.038-0.02,0.949-0.462,1.818-0.462
		c0.144,0,0.281,0.013,0.408,0.037c0.686,0.132,1.198,0.578,1.452,0.845c0.265-0.293,0.824-0.795,1.563-0.849
		c0.973-0.07,2.138,0.369,2.183,0.387l0.2,0.077l-1.087,2.872c0.37,0.337,1.501,1.5,2.403,3.886
		c1.062,2.801,1.353,4.544,1.363,4.617l0.02,0.123l-0.096,0.079C18.209,96.317,16.375,97.761,12.005,97.761 M5.737,95.855
		c0.504,0.314,2.61,1.474,6.268,1.474c3.66,0,5.479-1.049,5.91-1.336c-0.088-0.456-0.436-2.074-1.316-4.404
		c-1.027-2.712-2.376-3.793-2.391-3.804l-0.123-0.098l1.041-2.754c-0.359-0.117-1.135-0.335-1.793-0.288
		c-0.83,0.059-1.41,0.868-1.416,0.876l-0.171,0.243l-0.178-0.238c-0.006-0.007-0.555-0.729-1.366-0.885
		C9.569,84.52,8.79,84.8,8.436,84.947l1.123,2.586l-0.111,0.104c-0.013,0.012-1.29,1.229-2.322,3.951
		C6.257,93.886,5.852,95.4,5.737,95.855"/>
	<rect x="9.178" y="87.416" width="5.287" height="0.431"/>
	<rect x="8.908" y="81.642" width="0.431" height="2.892"/>
	<rect x="14.036" y="81.642" width="0.432" height="2.892"/>
</g>
<g>
	<path fill="#03D4AD" d="M11.919,321.711c0.009-0.02,0.014-0.028,0.018-0.039c0.165-0.414,0.402-0.781,0.703-1.107
		c0.504-0.544,1.125-0.878,1.844-1.018c0.3-0.059,0.601-0.08,0.901-0.069c0.482,0.017,0.947,0.114,1.386,0.326
		c0.59,0.282,1.045,0.717,1.392,1.276c0.297,0.483,0.483,1.008,0.567,1.57c0.028,0.191,0.045,0.381,0.045,0.569
		c0,0.831-0.215,1.592-0.659,2.282c-0.23,0.363-0.498,0.693-0.785,1.012c-0.396,0.434-5.407,5.313-5.407,5.313l-0.016-0.015
		c0,0-4.329-4.249-4.753-4.649c-0.432-0.404-0.834-0.834-1.189-1.314c-0.26-0.346-0.478-0.717-0.633-1.125
		c-0.135-0.354-0.216-0.721-0.246-1.1c-0.014-0.174-0.025-0.35-0.016-0.523c0.049-0.965,0.365-1.816,0.995-2.536
		c0.478-0.543,1.073-0.876,1.771-1.017c0.294-0.061,0.592-0.08,0.895-0.07c0.477,0.02,0.939,0.107,1.379,0.305
		c0.646,0.288,1.15,0.752,1.529,1.36c0.103,0.169,0.194,0.347,0.264,0.53C11.908,321.683,11.913,321.692,11.919,321.711"/>
	<path fill="none" stroke="#000000" stroke-width="0.75" stroke-miterlimit="10" d="M11.919,321.711
		c0.009-0.02,0.014-0.028,0.018-0.039c0.165-0.414,0.402-0.781,0.703-1.107c0.504-0.544,1.125-0.878,1.844-1.018
		c0.3-0.059,0.601-0.08,0.901-0.069c0.482,0.017,0.947,0.114,1.386,0.326c0.59,0.282,1.045,0.717,1.392,1.276
		c0.297,0.483,0.483,1.008,0.567,1.57c0.028,0.191,0.045,0.381,0.045,0.569c0,0.831-0.215,1.592-0.659,2.282
		c-0.23,0.363-0.498,0.693-0.785,1.012c-0.396,0.434-5.407,5.313-5.407,5.313l-0.016-0.015c0,0-4.329-4.249-4.753-4.649
		c-0.432-0.404-0.834-0.834-1.189-1.314c-0.26-0.346-0.478-0.717-0.633-1.125c-0.135-0.354-0.216-0.721-0.246-1.1
		c-0.014-0.174-0.025-0.35-0.016-0.523c0.049-0.965,0.365-1.816,0.995-2.536c0.478-0.543,1.073-0.876,1.771-1.017
		c0.294-0.061,0.592-0.08,0.895-0.07c0.477,0.02,0.939,0.107,1.379,0.305c0.646,0.288,1.15,0.752,1.529,1.36
		c0.103,0.169,0.194,0.347,0.264,0.53C11.908,321.683,11.913,321.692,11.919,321.711z"/>
	<g>
		<path d="M12.004,312v1c6.02,0,10.954,4.897,10.997,10.92c0.022,2.938-1.101,5.707-3.162,7.801
			c-2.063,2.093-4.816,3.257-7.754,3.279h-0.081c-6.022,0-10.957-4.898-11-10.92c-0.044-6.064,4.854-11.035,10.919-11.08h0.081
			L12.004,312 M12.003,312c-0.029,0-0.059,0-0.088,0c-6.627,0.049-11.96,5.459-11.912,12.086c0.047,6.598,5.41,11.914,12,11.914
			c0.029,0,0.059,0,0.088,0c6.626-0.051,11.96-5.461,11.91-12.088C23.954,317.316,18.592,311.999,12.003,312L12.003,312z"/>
	</g>
</g>
<g>
	<polygon fill="#03D4AD" points="7.958,357.293 8.367,353.245 5.513,353.245 5.513,344.638 19.182,344.638 19.182,353.245 
		12.213,353.245 	"/>
	<polygon fill="none" stroke="#000000" stroke-width="0.75" stroke-linejoin="round" stroke-miterlimit="10" points="7.958,357.293 
		8.367,353.245 5.513,353.245 5.513,344.638 19.182,344.638 19.182,353.245 12.213,353.245 	"/>
	<g>
		<path d="M12.004,338v1c6.019,0,10.954,4.897,10.997,10.92c0.045,6.063-4.854,11.033-10.917,11.078h-0.081
			c-6.021,0-10.955-4.897-11-10.92c-0.044-6.063,4.855-11.033,10.92-11.078h0.081L12.004,338 M12.003,338c-0.029,0-0.059,0-0.088,0
			C5.286,338.049-0.046,343.459,0,350.086c0.05,6.597,5.411,11.912,12,11.912c0.029,0,0.059,0,0.088,0
			c6.625-0.049,11.959-5.459,11.911-12.086C23.952,343.316,18.59,337.999,12.003,338L12.003,338z"/>
	</g>
</g>
<g>
	<path fill="#03D4AD" d="M12.197,370.579c0.002-0.006,0.002-0.008,0.005-0.01c0.054-0.125,0.127-0.236,0.223-0.334
		c0.162-0.164,0.357-0.268,0.583-0.307c0.094-0.02,0.188-0.023,0.287-0.02c0.15,0.004,0.297,0.032,0.436,0.098
		c0.186,0.084,0.328,0.219,0.438,0.387c0.095,0.146,0.151,0.307,0.18,0.477c0.009,0.059,0.014,0.115,0.014,0.174
		c0,0.25-0.068,0.48-0.21,0.691c-0.073,0.107-0.159,0.205-0.25,0.305c-0.125,0.131-0.261,0.248-0.401,0.363
		c-0.16,0.131-0.32,0.262-0.479,0.393c-0.128,0.104-0.254,0.205-0.374,0.32c-0.15,0.137-0.286,0.287-0.404,0.453
		c-0.02,0.021-0.034,0.049-0.052,0.072c-0.002-0.002-0.005-0.004-0.005-0.006c-0.08-0.125-0.176-0.238-0.276-0.348
		c-0.112-0.125-0.234-0.238-0.364-0.347c-0.146-0.123-0.292-0.244-0.441-0.364c-0.139-0.115-0.279-0.23-0.414-0.353
		c-0.135-0.123-0.263-0.252-0.376-0.397c-0.081-0.105-0.148-0.218-0.198-0.341c-0.042-0.108-0.065-0.219-0.078-0.334
		c-0.003-0.053-0.005-0.106-0.004-0.159c0.017-0.289,0.117-0.548,0.318-0.765c0.149-0.164,0.339-0.267,0.558-0.308
		c0.096-0.02,0.189-0.022,0.286-0.02c0.149,0.004,0.294,0.033,0.435,0.09c0.203,0.09,0.36,0.229,0.48,0.414
		c0.031,0.053,0.063,0.104,0.082,0.162C12.193,370.571,12.193,370.573,12.197,370.579"/>
	<path fill="none" stroke="#000000" stroke-width="0.75" stroke-miterlimit="10" d="M12.197,370.579
		c0.002-0.006,0.002-0.008,0.005-0.01c0.054-0.125,0.127-0.236,0.223-0.334c0.162-0.164,0.357-0.268,0.583-0.307
		c0.094-0.02,0.188-0.023,0.287-0.02c0.15,0.004,0.297,0.032,0.436,0.098c0.186,0.084,0.328,0.219,0.438,0.387
		c0.095,0.146,0.151,0.307,0.18,0.477c0.009,0.059,0.014,0.115,0.014,0.174c0,0.25-0.068,0.48-0.21,0.691
		c-0.073,0.107-0.159,0.205-0.25,0.305c-0.125,0.131-0.261,0.248-0.401,0.363c-0.16,0.131-0.32,0.262-0.479,0.393
		c-0.128,0.104-0.254,0.205-0.374,0.32c-0.15,0.137-0.286,0.287-0.404,0.453c-0.02,0.021-0.034,0.049-0.052,0.072
		c-0.002-0.002-0.005-0.004-0.005-0.006c-0.08-0.125-0.176-0.238-0.276-0.348c-0.112-0.125-0.234-0.238-0.364-0.347
		c-0.146-0.123-0.292-0.244-0.441-0.364c-0.139-0.115-0.279-0.23-0.414-0.353c-0.135-0.123-0.263-0.252-0.376-0.397
		c-0.081-0.105-0.148-0.218-0.198-0.341c-0.042-0.108-0.065-0.219-0.078-0.334c-0.003-0.053-0.005-0.106-0.004-0.159
		c0.017-0.289,0.117-0.548,0.318-0.765c0.149-0.164,0.339-0.267,0.558-0.308c0.096-0.02,0.189-0.022,0.286-0.02
		c0.149,0.004,0.294,0.033,0.435,0.09c0.203,0.09,0.36,0.229,0.48,0.414c0.031,0.053,0.063,0.104,0.082,0.162
		C12.193,370.571,12.193,370.573,12.197,370.579z"/>
	<path fill="#03D4AD" d="M17.333,376.821l4.033,1.398c0.385,0.131,0.697,0.605,0.696,1.045l-0.002,0.176
		c-0.001,0.441-0.333,0.803-0.737,0.803L2.89,380.19c-0.403-0.002-0.732-0.363-0.729-0.807l0.002-0.174
		c0.002-0.439,0.319-0.914,0.707-1.045l4.352-1.449l4.966-1.695l5.173,1.801H17.333L17.333,376.821z"/>
	<path fill="none" stroke="#000000" stroke-width="0.75" stroke-miterlimit="10" d="M17.333,376.821l4.033,1.398
		c0.385,0.131,0.697,0.605,0.696,1.045l-0.002,0.176c-0.001,0.441-0.333,0.803-0.737,0.803L2.89,380.19
		c-0.403-0.002-0.732-0.363-0.729-0.807l0.002-0.174c0.002-0.439,0.319-0.914,0.707-1.045l4.352-1.449l4.966-1.695l5.173,1.801
		H17.333L17.333,376.821z"/>
	<line fill="none" x1="12.188" y1="373.342" x2="12.183" y2="375.153"/>
	
		<line fill="none" stroke="#000000" stroke-width="0.75" stroke-miterlimit="10" x1="12.188" y1="373.342" x2="12.183" y2="375.153"/>
	<g>
		<path d="M12.005,365c6.007,0,10.939,4.891,10.996,10.899c0.053,6.065-4.838,11.045-10.902,11.099L11.996,387
			C5.988,387,1.055,382.108,1,376.098C0.947,370.034,5.837,365.055,11.902,365H12.005 M12.005,364c-0.037,0-0.075,0-0.112,0
			C5.265,364.06-0.057,369.479,0,376.106C0.061,382.696,5.419,388,11.996,388c0.037,0,0.075-0.002,0.112-0.002
			c6.627-0.059,11.95-5.479,11.893-12.106C23.939,369.304,18.583,364,12.005,364L12.005,364z"/>
	</g>
</g>
<g>
	<g>
		<polygon fill="#4EB7A0" points="11.992,394.004 14.596,399.262 20.404,400.096 16.209,404.198 17.209,409.979 12.012,407.258 
			6.824,409.997 7.806,404.213 3.597,400.124 9.404,399.272 		"/>
		<polygon fill="#03D4AD" points="11.992,394.004 14.596,399.262 20.404,400.096 16.209,404.198 17.209,409.979 12.012,407.258 
			6.824,409.997 7.806,404.213 3.597,400.124 9.404,399.272 		"/>
		<polygon fill="none" stroke="#000000" stroke-width="0.75" stroke-miterlimit="10" points="11.992,394.004 14.596,399.262 
			20.404,400.096 16.209,404.198 17.209,409.979 12.012,407.258 6.824,409.997 7.806,404.213 3.597,400.124 9.404,399.272 		"/>
	</g>
	<g display="none">
		<path display="inline" d="M12.002,391c6.008,0,10.943,4.892,10.999,10.902c0.054,6.063-4.838,11.043-10.9,11.098H12
			c-6.01,0-10.945-4.891-11-10.9c-0.053-6.064,4.838-11.043,10.901-11.1H12.002 M12.001,390c-0.036,0-0.072,0-0.108,0
			c-6.628,0.062-11.95,5.48-11.893,12.107C0.06,408.698,5.42,414,11.999,414c0.036,0,0.072,0,0.108,0
			c6.627-0.061,11.95-5.479,11.894-12.107C23.939,395.305,18.581,390,12.001,390L12.001,390z"/>
	</g>
</g>
<g>
	<line fill="none" stroke="#000000" stroke-width="0.75" stroke-miterlimit="10" x1="5.984" y1="463.481" x2="8.178" y2="460.682"/>
	<g>
		<path d="M11.999,443C18.065,443,23,447.934,23,454c0,6.064-4.937,11-11.001,11S1,460.065,1,454C1,447.934,5.934,443,11.999,443
			 M11.999,442C5.372,442,0,447.374,0,454c0,6.625,5.372,12,11.999,12C18.627,466,24,460.625,24,454
			C24,447.374,18.627,442,11.999,442L11.999,442z"/>
	</g>
	<line fill="none" stroke="#000000" stroke-miterlimit="10" x1="12" y1="443" x2="12" y2="446.022"/>
</g>
<g>
	<g>
		<path d="M12,417c6.065,0,11,4.934,11,11c0,6.064-4.936,11-11,11s-11-4.936-11-11C1,421.934,5.935,417,12,417 M12,416
			c-6.627,0-12,5.373-12,12s5.373,12,12,12c6.627,0,12-5.373,12-12S18.627,416,12,416L12,416z"/>
	</g>
	<path fill="none" stroke="#000000" stroke-width="0.75" stroke-miterlimit="10" d="M8.16,426.174
		c1.52-0.795,3.031-1.594,4.549-2.377c0.199-0.104,0.164-0.252,0.17-0.412c0.037-1.105,0.525-1.945,1.535-2.414
		c0.992-0.463,1.951-0.338,2.812,0.344c1.104,0.871,1.299,2.504,0.461,3.637c-0.856,1.156-2.483,1.432-3.662,0.598
		c-0.207-0.145-0.342-0.135-0.553-0.023c-1.439,0.77-2.883,1.533-4.337,2.271c-0.279,0.143-0.271,0.355-0.26,0.566
		c0.006,0.098,0.148,0.217,0.258,0.271c1.392,0.695,2.791,1.377,4.181,2.072c0.187,0.094,0.302,0.08,0.457-0.057
		c0.877-0.764,2.086-0.896,3.062-0.355c0.953,0.529,1.512,1.643,1.35,2.688c-0.184,1.18-1,2.031-2.172,2.266
		c-1.414,0.277-2.871-0.721-3.068-2.15c-0.055-0.381-0.199-0.576-0.543-0.74c-1.424-0.678-2.835-1.387-4.246-2.096
		c-0.199-0.098-0.336-0.092-0.533,0.023c-0.98,0.576-1.977,0.563-2.91-0.08c-0.914-0.633-1.287-1.553-1.092-2.641
		c0.203-1.133,0.908-1.857,2.031-2.125c0.813-0.195,1.564-0.01,2.23,0.502C7.975,426.014,8.064,426.094,8.16,426.174z"/>
</g>
<g>
	<g>
		<path d="M12.001,495.5c5.791,0,10.5,4.73,10.5,10.545s-4.709,10.545-10.5,10.545c-5.79,0-10.501-4.73-10.501-10.545
			S6.211,495.5,12.001,495.5 M12.001,494C5.373,494,0,499.393,0,506.045c0,6.65,5.373,12.045,12.001,12.045
			c6.626,0,12-5.395,12-12.045C24,499.393,18.627,494,12.001,494L12.001,494z"/>
	</g>
	<line fill="none" stroke="#000000" stroke-miterlimit="10" x1="11.641" y1="499.917" x2="11.641" y2="512.167"/>
	<line fill="none" stroke="#000000" stroke-miterlimit="10" x1="17.766" y1="506.042" x2="6.459" y2="506.042"/>
</g>
<g>
	<path d="M1.85,491.229c0.058-0.473,0.117-0.945,0.171-1.416c0.036-0.314,0.062-0.631,0.099-0.945
		c0.055-0.48,0.119-0.957,0.174-1.438c0.05-0.443,0.088-0.891,0.139-1.336c0.053-0.459,0.113-0.916,0.168-1.375
		c0.035-0.299,0.064-0.598,0.1-0.895c0.058-0.48,0.119-0.961,0.173-1.439c0.036-0.32,0.061-0.645,0.096-0.965
		c0.054-0.465,0.114-0.93,0.169-1.395c0.036-0.303,0.064-0.604,0.1-0.9c0.057-0.479,0.118-0.959,0.174-1.438
		c0.05-0.43,0.09-0.861,0.139-1.291c0.055-0.48,0.12-0.959,0.174-1.439c0.024-0.213,0.039-0.426,0.057-0.664h3.615
		c0-0.324-0.005-0.625,0.001-0.93c0.013-0.725,0.151-1.424,0.491-2.068c0.688-1.307,1.745-2.137,3.205-2.424
		c1.389-0.273,2.655,0.025,3.771,0.883c0.87,0.67,1.405,1.578,1.645,2.648c0.072,0.316,0.08,0.654,0.098,0.984
		c0.014,0.289,0.002,0.578,0.002,0.893h3.613c0.064,0.602,0.121,1.186,0.189,1.768c0.082,0.699,0.182,1.396,0.264,2.094
		c0.053,0.457,0.086,0.922,0.139,1.381c0.068,0.582,0.15,1.162,0.217,1.742c0.053,0.453,0.09,0.904,0.141,1.359
		c0.068,0.588,0.148,1.176,0.22,1.764c0.051,0.439,0.088,0.877,0.14,1.314c0.055,0.488,0.118,0.975,0.174,1.465
		c0.051,0.449,0.088,0.904,0.139,1.355c0.053,0.449,0.117,0.9,0.17,1.354c0.037,0.297,0.066,0.596,0.098,0.896
		c0.016,0.15,0.031,0.307,0.045,0.459H1.85V491.229z M21.075,490.282c-0.574-5.027-1.146-10.033-1.719-15.045h-2.75
		c0,0.281,0.006,0.549-0.002,0.816c-0.004,0.111,0.031,0.18,0.121,0.254c0.295,0.25,0.393,0.586,0.313,0.953
		c-0.076,0.355-0.32,0.6-0.656,0.674c-0.409,0.092-0.85-0.004-1.09-0.467c-0.211-0.408-0.102-0.885,0.242-1.158
		c0.041-0.031,0.084-0.094,0.084-0.145c0.008-0.309,0.004-0.621,0.004-0.928H8.379c0,0.326-0.029,0.643,0.016,0.949
		c0.019,0.131,0.211,0.229,0.288,0.363c0.239,0.42,0.183,0.775-0.134,1.148c-0.234,0.275-0.737,0.324-1.07,0.184
		c-0.6-0.258-0.738-1.109-0.207-1.58c0.045-0.041,0.115-0.092,0.117-0.137c0.011-0.311,0.004-0.623,0.004-0.93H4.642
		c-0.023,0.191-0.046,0.365-0.063,0.541c-0.048,0.453-0.088,0.906-0.141,1.357c-0.053,0.496-0.117,0.988-0.172,1.484
		c-0.035,0.299-0.061,0.6-0.096,0.896c-0.056,0.48-0.116,0.959-0.174,1.439c-0.035,0.299-0.063,0.6-0.098,0.898
		c-0.056,0.465-0.117,0.93-0.172,1.396c-0.035,0.318-0.058,0.645-0.093,0.965c-0.056,0.479-0.118,0.957-0.174,1.438
		c-0.05,0.43-0.091,0.859-0.141,1.291c-0.056,0.473-0.115,0.945-0.173,1.418c-0.039,0.318-0.084,0.639-0.121,0.959
		c-0.033,0.314-0.063,0.633-0.096,0.959h18.146V490.282z M15.622,474.272c0-0.33-0.002-0.648,0.002-0.969
		c0.015-0.918-0.326-1.707-0.926-2.375c-0.723-0.805-1.656-1.197-2.729-1.201c-0.658-0.002-1.282,0.18-1.851,0.529
		c-0.728,0.445-1.228,1.07-1.533,1.865c-0.196,0.504-0.222,1.029-0.207,1.559c0.005,0.201,0.001,0.396,0.001,0.592H15.622z"/>
	<g display="none">
		<path display="inline" d="M11.998,469C18.065,469,23,473.934,23,480c0,6.064-4.937,11-11.002,11C5.934,491,1,486.065,1,480
			C1,473.934,5.934,469,11.998,469 M11.998,468C5.371,468,0,473.374,0,480c0,6.625,5.371,12,11.998,12C18.627,492,24,486.625,24,480
			C24,473.374,18.627,468,11.998,468L11.998,468z"/>
	</g>
</g>
<g>
	<path fill="#FFFFFF" d="M1.85,543.229c0.058-0.473,0.117-0.945,0.171-1.416c0.036-0.314,0.062-0.631,0.099-0.945
		c0.055-0.48,0.119-0.957,0.174-1.438c0.05-0.443,0.088-0.891,0.139-1.336c0.053-0.459,0.113-0.916,0.168-1.375
		c0.035-0.299,0.064-0.598,0.1-0.895c0.058-0.48,0.119-0.961,0.173-1.439c0.036-0.32,0.061-0.645,0.096-0.965
		c0.054-0.465,0.114-0.93,0.169-1.395c0.036-0.303,0.064-0.604,0.1-0.9c0.057-0.479,0.118-0.959,0.174-1.438
		c0.05-0.43,0.09-0.861,0.139-1.291c0.055-0.48,0.12-0.959,0.174-1.439c0.024-0.213,0.039-0.426,0.057-0.664h3.615
		c0-0.324-0.005-0.625,0.001-0.93c0.014-0.725,0.15-1.424,0.491-2.068c0.688-1.307,1.745-2.137,3.205-2.424
		c1.389-0.273,2.655,0.025,3.771,0.883c0.87,0.67,1.405,1.578,1.645,2.648c0.072,0.316,0.08,0.654,0.098,0.984
		c0.014,0.289,0.002,0.578,0.002,0.893h3.613c0.064,0.602,0.121,1.186,0.189,1.768c0.082,0.699,0.182,1.396,0.264,2.094
		c0.053,0.457,0.086,0.922,0.139,1.381c0.068,0.582,0.15,1.162,0.217,1.742c0.053,0.453,0.09,0.904,0.141,1.359
		c0.068,0.588,0.148,1.176,0.22,1.764c0.051,0.439,0.088,0.877,0.14,1.314c0.055,0.488,0.118,0.975,0.174,1.465
		c0.051,0.449,0.088,0.904,0.139,1.355c0.053,0.449,0.117,0.9,0.17,1.354c0.037,0.297,0.066,0.596,0.098,0.896
		c0.016,0.15,0.031,0.307,0.045,0.459H1.85V543.229z M21.075,542.282c-0.574-5.027-1.146-10.033-1.719-15.045h-2.75
		c0,0.281,0.006,0.549-0.002,0.816c-0.004,0.111,0.031,0.18,0.121,0.254c0.295,0.25,0.393,0.586,0.313,0.953
		c-0.076,0.355-0.32,0.6-0.656,0.674c-0.409,0.092-0.85-0.004-1.09-0.467c-0.211-0.408-0.102-0.885,0.242-1.158
		c0.041-0.031,0.084-0.094,0.084-0.145c0.008-0.309,0.004-0.621,0.004-0.928H8.379c0,0.326-0.029,0.643,0.016,0.949
		c0.02,0.131,0.211,0.229,0.288,0.363c0.239,0.42,0.183,0.775-0.134,1.148c-0.234,0.275-0.737,0.324-1.07,0.184
		c-0.6-0.258-0.738-1.109-0.207-1.58c0.045-0.041,0.115-0.092,0.117-0.137c0.011-0.311,0.004-0.623,0.004-0.93H4.642
		c-0.023,0.191-0.046,0.365-0.063,0.541c-0.048,0.453-0.088,0.906-0.141,1.357c-0.053,0.496-0.117,0.988-0.172,1.484
		c-0.035,0.299-0.061,0.6-0.096,0.896c-0.056,0.48-0.116,0.959-0.174,1.439c-0.035,0.299-0.063,0.6-0.098,0.898
		c-0.056,0.465-0.117,0.93-0.172,1.396c-0.035,0.318-0.058,0.645-0.093,0.965c-0.056,0.479-0.118,0.957-0.174,1.438
		c-0.05,0.43-0.091,0.859-0.141,1.291c-0.056,0.473-0.115,0.945-0.173,1.418c-0.039,0.318-0.084,0.639-0.121,0.959
		c-0.033,0.314-0.063,0.633-0.096,0.959h18.146V542.282z M15.622,526.272c0-0.33-0.002-0.648,0.002-0.969
		c0.015-0.918-0.326-1.707-0.926-2.375c-0.723-0.805-1.656-1.197-2.729-1.201c-0.658-0.002-1.282,0.18-1.852,0.529
		c-0.728,0.445-1.228,1.07-1.533,1.865c-0.195,0.504-0.222,1.029-0.207,1.559c0.006,0.201,0.002,0.396,0.002,0.592H15.622z"/>
	<g display="none">
		<path display="inline" fill="#FFFFFF" d="M11.999,521C18.065,521,23,525.934,23,532c0,6.064-4.937,11-11.002,11
			C5.934,543,1,538.065,1,532C1,525.934,5.934,521,11.999,521 M11.999,520C5.371,520,0,525.374,0,532c0,6.625,5.371,12,11.999,12
			C18.627,544,24,538.625,24,532C24,525.374,18.627,520,11.999,520L11.999,520z"/>
	</g>
</g>
</svg>
