<?xml version="1.0" encoding="utf-8"?>
<!-- Generator: Adobe Illustrator 16.0.0, SVG Export Plug-In . SVG Version: 6.00 Build 0)  -->
<!DOCTYPE svg PUBLIC "-//W3C//DTD SVG 1.1//EN" "http://www.w3.org/Graphics/SVG/1.1/DTD/svg11.dtd" [
	<!ENTITY ns_flows "http://ns.adobe.com/Flows/1.0/">
	<!ENTITY ns_extend "http://ns.adobe.com/Extensibility/1.0/">
	<!ENTITY ns_ai "http://ns.adobe.com/AdobeIllustrator/10.0/">
	<!ENTITY ns_graphs "http://ns.adobe.com/Graphs/1.0/">
]>
<svg version="1.1" id="Capa_1" xmlns:x="&ns_extend;" xmlns:i="&ns_ai;" xmlns:graph="&ns_graphs;"
	 xmlns="http://www.w3.org/2000/svg" xmlns:xlink="http://www.w3.org/1999/xlink" xmlns:a="http://ns.adobe.com/AdobeSVGViewerExtensions/3.0/"
	 x="0px" y="0px" width="50px" height="533px" viewBox="0 0 50 533" enable-background="new 0 0 50 533" xml:space="preserve">
<g>
	<circle fill="none" stroke="#FFFFFF" stroke-width="1.5" stroke-miterlimit="10" cx="25" cy="508.001" r="24.205"/>
	<path fill="#FFFFFF" d="M27.053,508.079c-0.305,0-0.602-0.115-0.883-0.343c-0.208-0.166-0.397-0.354-0.588-0.544l-0.219-0.216
		c-0.332-0.32-0.518-0.36-0.641-0.36c-0.164,0-0.363,0.081-0.633,0.258l-0.174,0.116c-0.164,0.112-0.33,0.224-0.502,0.32
		c-0.953,0.522-1.889,0.413-2.676-0.304c-0.111-0.099-0.217-0.205-0.322-0.311c-0.068-0.068-0.137-0.138-0.207-0.204
		c-0.316-0.298-0.48-0.338-0.586-0.338c-0.146,0-0.334,0.076-0.59,0.24l-0.248,0.159c-0.158,0.106-0.318,0.214-0.486,0.31
		c-0.975,0.558-2.357,0.401-3.115-0.358c-0.289-0.295-0.494-0.725-0.541-1.121c-0.107-0.881,0.15-1.678,0.725-2.238
		c0.607-0.594,0.814-1.277,0.691-2.287c-0.193-1.557,0.197-3.186,1.102-4.587c1.213-1.89,3.256-3.229,5.602-3.683
		c0.285-0.056,0.572-0.105,0.854-0.156l0.072-0.006l1.75,0.008l0.428,0.084c0.336,0.066,0.68,0.132,1.012,0.219
		c3.795,0.979,6.311,4.24,6.115,7.932l-0.018,0.356c-0.02,0.369-0.037,0.739-0.076,1.106c-0.035,0.347,0.061,0.649,0.301,0.955
		l0.174,0.221c0.184,0.229,0.365,0.462,0.533,0.701c0.629,0.902,0.59,1.938-0.1,2.642c-0.752,0.769-2.111,1.021-3.037,0.556
		l-0.262-0.135c-0.266-0.141-0.518-0.271-0.779-0.359c-0.461-0.158-0.67-0.229-1.133,0.334c-0.215,0.26-0.412,0.494-0.664,0.692
		C27.654,507.964,27.355,508.079,27.053,508.079 M24.722,505.8c0.412,0,0.783,0.182,1.207,0.588l0.231,0.227
		c0.166,0.168,0.334,0.337,0.521,0.486c0.27,0.217,0.473,0.217,0.738,0.002c0.193-0.153,0.354-0.344,0.547-0.576
		c0.369-0.448,0.984-0.941,2.025-0.589c0.32,0.11,0.613,0.263,0.895,0.409l0.25,0.13c0.615,0.31,1.572,0.127,2.088-0.398
		c0.414-0.422,0.418-1.02,0.014-1.602c-0.16-0.226-0.332-0.444-0.504-0.662l-0.178-0.224c-0.369-0.469-0.527-0.988-0.469-1.543
		c0.037-0.354,0.053-0.707,0.07-1.062l0.018-0.36c0.176-3.3-2.088-6.219-5.502-7.099c-0.32-0.083-0.643-0.146-0.963-0.207
		l-0.395-0.078h-1.594c-0.266,0.048-0.535,0.097-0.807,0.147c-2.129,0.41-3.977,1.621-5.07,3.324
		c-0.799,1.24-1.146,2.676-0.977,4.045c0.096,0.791,0.104,1.959-0.932,2.971c-0.387,0.379-0.561,0.933-0.486,1.559
		c0.025,0.217,0.156,0.481,0.313,0.643c0.5,0.503,1.465,0.604,2.129,0.224c0.152-0.087,0.299-0.185,0.443-0.28l0.258-0.17
		c0.4-0.253,0.717-0.365,1.029-0.365c0.49,0,0.871,0.299,1.148,0.563c0.076,0.07,0.15,0.146,0.223,0.221
		c0.096,0.094,0.189,0.189,0.291,0.281c0.537,0.486,1.088,0.546,1.734,0.191c0.15-0.082,0.293-0.18,0.438-0.278l0.186-0.126
		C24.048,505.925,24.392,505.8,24.722,505.8"/>
	<path fill="#FFFFFF" d="M24.843,524.257h-0.697l-0.1-0.166c-0.051-0.084-0.107-0.168-0.164-0.252
		c-0.141-0.211-0.287-0.426-0.371-0.674c-1.455-4.326-2.9-8.656-4.346-12.986l-1.133-3.414l0.637-0.25l0.047,0.172l1.096,3.277
		c1.443,4.33,2.887,8.658,4.344,12.984c0.055,0.161,0.17,0.33,0.291,0.508c0.016,0.026,0.033,0.053,0.051,0.078
		c0.016-0.02,0.027-0.04,0.043-0.061c0.109-0.158,0.215-0.309,0.262-0.447c1.225-3.632,2.44-7.268,3.657-10.902l1.816-5.445
		l0.645,0.217l-1.818,5.443c-1.213,3.635-2.428,7.272-3.655,10.907c-0.078,0.23-0.217,0.427-0.348,0.617
		c-0.055,0.077-0.109,0.154-0.156,0.231L24.843,524.257z"/>
	
		<rect x="21.722" y="504.81" transform="matrix(0.4941 0.8694 -0.8694 0.4941 452.759 237.8882)" fill="#FFFFFF" width="0.51" height="6.323"/>
	
		<rect x="25.013" y="503.649" transform="matrix(0.4933 0.8699 -0.8699 0.4933 456.0232 236.2136)" fill="#FFFFFF" width="0.511" height="11.729"/>
	
		<rect x="25.011" y="508.254" transform="matrix(0.4941 0.8694 -0.8694 0.4941 458.755 237.5492)" fill="#FFFFFF" width="0.51" height="9.399"/>
	
		<rect x="24.759" y="513.096" transform="matrix(0.4933 0.8699 -0.8699 0.4933 461.9939 239.9877)" fill="#FFFFFF" width="0.511" height="6.86"/>
	
		<rect x="24.466" y="518.072" transform="matrix(0.4949 0.869 -0.869 0.4949 464.4454 241.2326)" fill="#FFFFFF" width="0.509" height="4.098"/>
</g>
<g>
	<path fill="#FFFFFF" d="M19.512,26.82c-1.242,0-2.023-0.784-2.651-1.414c-0.121-0.121-0.242-0.241-0.361-0.353
		c-0.841-0.783-1.436-1.045-2.045-0.918c-0.506,0.108-0.961,0.479-1.441,0.873c-0.262,0.215-0.534,0.437-0.83,0.63
		c-0.18,0.117-0.344,0.233-0.499,0.345c-0.576,0.412-1.122,0.802-1.965,0.802c-0.849,0-1.383-0.381-1.95-0.782
		c-0.149-0.106-0.307-0.219-0.483-0.332l0.483-0.742c0.186,0.121,0.353,0.24,0.512,0.352C8.807,25.654,9.153,25.9,9.72,25.9
		c0.56,0,0.914-0.253,1.451-0.637c0.165-0.118,0.34-0.242,0.531-0.367c0.255-0.166,0.497-0.363,0.752-0.572
		c0.541-0.443,1.1-0.901,1.818-1.054c1.156-0.248,2.078,0.437,2.831,1.136c0.129,0.119,0.255,0.247,0.383,0.376
		c0.592,0.593,1.151,1.153,2.026,1.153c0.908,0,1.565-0.643,2.202-1.265c0.114-0.111,0.225-0.22,0.334-0.321
		c0.751-0.699,1.674-1.379,2.829-1.135c0.719,0.152,1.288,0.621,1.838,1.073c0.26,0.215,0.507,0.418,0.765,0.585
		c0.185,0.121,0.353,0.24,0.511,0.354c0.526,0.373,0.873,0.618,1.44,0.618c0.56,0,0.913-0.252,1.451-0.636
		c0.165-0.119,0.338-0.243,0.528-0.367c0.258-0.167,0.498-0.365,0.754-0.574c0.541-0.442,1.1-0.9,1.816-1.052
		c1.158-0.245,2.08,0.437,2.83,1.135l0.109,0.102c0.686,0.639,1.332,1.242,2.389,1.451c0.793,0.155,1.768-0.844,2.047-1.206
		l0.701,0.54c-0.059,0.074-1.428,1.825-2.92,1.533c-1.303-0.257-2.107-1.009-2.818-1.671l-0.109-0.102
		c-0.84-0.78-1.43-1.046-2.045-0.918c-0.506,0.109-0.959,0.479-1.438,0.872c-0.265,0.216-0.536,0.439-0.834,0.631
		c-0.179,0.117-0.343,0.234-0.497,0.345c-0.575,0.413-1.122,0.802-1.965,0.802c-0.851,0-1.385-0.38-1.951-0.782
		c-0.149-0.105-0.307-0.218-0.483-0.333c-0.297-0.193-0.575-0.422-0.842-0.642c-0.492-0.404-0.956-0.785-1.46-0.893
		c-0.611-0.129-1.203,0.138-2.043,0.918c-0.105,0.097-0.209,0.2-0.319,0.307C21.641,25.979,20.782,26.82,19.512,26.82"/>
	<path fill="#FFFFFF" d="M19.512,31.498c-1.242,0-2.023-0.784-2.651-1.414c-0.121-0.121-0.242-0.241-0.361-0.353
		c-0.841-0.782-1.436-1.046-2.045-0.918c-0.506,0.108-0.961,0.479-1.441,0.873c-0.262,0.215-0.534,0.437-0.83,0.629
		c-0.18,0.117-0.344,0.234-0.499,0.345c-0.576,0.413-1.122,0.803-1.965,0.803c-0.849,0-1.383-0.381-1.95-0.782
		c-0.149-0.107-0.307-0.219-0.483-0.332l0.483-0.742c0.186,0.121,0.353,0.24,0.512,0.352c0.525,0.373,0.871,0.619,1.438,0.619
		c0.56,0,0.914-0.253,1.451-0.638c0.165-0.117,0.34-0.242,0.531-0.366c0.255-0.166,0.497-0.364,0.752-0.573
		c0.541-0.443,1.1-0.9,1.818-1.053c1.156-0.246,2.078,0.437,2.831,1.136c0.129,0.118,0.255,0.246,0.383,0.375
		c0.592,0.594,1.151,1.154,2.026,1.154c0.908,0,1.565-0.643,2.202-1.265c0.114-0.111,0.225-0.22,0.334-0.321
		c0.751-0.699,1.674-1.38,2.829-1.135c0.719,0.152,1.288,0.62,1.838,1.073c0.26,0.215,0.507,0.418,0.765,0.585
		c0.185,0.121,0.353,0.24,0.511,0.353c0.526,0.372,0.873,0.618,1.44,0.618c0.56,0,0.913-0.253,1.451-0.637
		c0.165-0.118,0.338-0.242,0.528-0.366c0.258-0.167,0.498-0.365,0.754-0.574c0.541-0.443,1.1-0.9,1.816-1.052
		c1.158-0.245,2.08,0.436,2.83,1.135l0.109,0.102c0.686,0.639,1.332,1.242,2.389,1.45c0.793,0.157,1.768-0.843,2.047-1.205
		l0.701,0.539c-0.059,0.075-1.428,1.822-2.92,1.534c-1.303-0.258-2.107-1.009-2.818-1.672l-0.109-0.101
		c-0.84-0.78-1.43-1.046-2.045-0.918c-0.506,0.109-0.959,0.479-1.438,0.872c-0.265,0.216-0.536,0.438-0.834,0.631
		c-0.179,0.116-0.343,0.234-0.497,0.344c-0.575,0.413-1.122,0.803-1.965,0.803c-0.851,0-1.385-0.38-1.951-0.783
		c-0.149-0.105-0.307-0.218-0.483-0.332c-0.297-0.194-0.575-0.422-0.842-0.643c-0.492-0.403-0.956-0.784-1.46-0.892
		c-0.611-0.128-1.203,0.138-2.043,0.918c-0.105,0.097-0.209,0.2-0.319,0.306C21.641,30.655,20.782,31.498,19.512,31.498"/>
	<path fill="#FFFFFF" d="M19.512,36.232c-1.242,0-2.023-0.784-2.651-1.414c-0.121-0.122-0.242-0.241-0.361-0.354
		c-0.841-0.781-1.436-1.045-2.045-0.917c-0.506,0.108-0.961,0.479-1.441,0.872c-0.262,0.215-0.534,0.438-0.83,0.63
		c-0.18,0.117-0.344,0.234-0.499,0.345c-0.576,0.412-1.122,0.802-1.965,0.802c-0.849,0-1.383-0.38-1.95-0.781
		c-0.149-0.107-0.307-0.22-0.483-0.333l0.483-0.741c0.186,0.121,0.353,0.24,0.512,0.352c0.525,0.372,0.871,0.619,1.438,0.619
		c0.56,0,0.914-0.253,1.451-0.638c0.165-0.117,0.34-0.242,0.531-0.366c0.255-0.167,0.497-0.364,0.752-0.573
		c0.541-0.443,1.1-0.9,1.818-1.053c1.156-0.248,2.078,0.436,2.831,1.135c0.129,0.119,0.255,0.247,0.383,0.376
		c0.592,0.594,1.151,1.154,2.026,1.154c0.908,0,1.565-0.643,2.202-1.265c0.114-0.112,0.225-0.22,0.334-0.321
		c0.751-0.7,1.674-1.38,2.829-1.136c0.719,0.153,1.288,0.621,1.838,1.074c0.26,0.215,0.507,0.418,0.765,0.584
		c0.185,0.121,0.353,0.241,0.511,0.353c0.526,0.373,0.873,0.619,1.44,0.619c0.56,0,0.913-0.253,1.451-0.637
		c0.165-0.118,0.338-0.243,0.528-0.367c0.258-0.166,0.498-0.364,0.754-0.574c0.541-0.442,1.1-0.899,1.816-1.052
		c1.158-0.243,2.08,0.437,2.83,1.136l0.109,0.101c0.686,0.64,1.332,1.243,2.389,1.451c0.793,0.156,1.768-0.843,2.047-1.206
		l0.701,0.54c-0.059,0.075-1.428,1.822-2.92,1.533c-1.303-0.257-2.107-1.008-2.818-1.671l-0.109-0.101
		c-0.84-0.78-1.43-1.046-2.045-0.918c-0.506,0.108-0.959,0.479-1.438,0.871c-0.265,0.216-0.536,0.439-0.834,0.631
		c-0.179,0.117-0.343,0.235-0.497,0.345c-0.575,0.413-1.122,0.803-1.965,0.803c-0.851,0-1.385-0.38-1.951-0.783
		c-0.149-0.105-0.307-0.218-0.483-0.332c-0.297-0.194-0.575-0.422-0.842-0.643c-0.492-0.403-0.956-0.785-1.46-0.892
		c-0.611-0.129-1.203,0.138-2.043,0.918c-0.105,0.097-0.209,0.199-0.319,0.306C21.641,35.39,20.782,36.232,19.512,36.232"/>
	<circle fill="none" stroke="#FFFFFF" stroke-width="1.5" stroke-miterlimit="10" cx="25" cy="24.998" r="24.205"/>
	<path fill="#FFFFFF" d="M33.604,24.517h-0.885c0-4.254-3.461-7.715-7.715-7.715c-4.254,0-7.715,3.461-7.715,7.715h-0.884
		c0-4.742,3.857-8.601,8.599-8.601C29.746,15.916,33.604,19.774,33.604,24.517"/>
	
		<rect x="12.324" y="20.107" transform="matrix(0.9551 0.2964 -0.2964 0.9551 6.7224 -3.2362)" fill="#FFFFFF" width="3.418" height="0.885"/>
	
		<rect x="15.925" y="15.156" transform="matrix(0.6996 0.7145 -0.7145 0.6996 16.4415 -7.9138)" fill="#FFFFFF" width="3.416" height="0.885"/>
	
		<rect x="34.758" y="19.292" transform="matrix(0.2939 0.9558 -0.9558 0.2939 44.9259 -18.818)" fill="#FFFFFF" width="0.884" height="3.415"/>
	
		<rect x="31.159" y="13.89" transform="matrix(0.7142 0.6999 -0.6999 0.7142 19.9474 -17.6601)" fill="#FFFFFF" width="0.885" height="3.417"/>
	
		<rect x="23.943" y="11.64" transform="matrix(0.9999 0.011 -0.011 0.9999 0.149 -0.2686)" fill="#FFFFFF" width="0.884" height="3.416"/>
</g>
<g>
	<circle fill="none" stroke="#FFFFFF" stroke-width="1.5" stroke-miterlimit="10" cx="25" cy="78.665" r="24.205"/>
	<path fill="#FFFFFF" d="M27.164,87.71h-4.413l-12.32-7.539l0.312-0.392c0.046-0.058,1.147-1.431,2.379-2.252
		c0.856-0.571,2.185-0.69,3.149-0.69c0.171,0,0.321,0.004,0.436,0.008c0.418-0.582,1.686-2.085,3.784-2.359
		c2.023-0.263,3.633,0.704,4.244,1.142c0.649-0.385,2.358-1.261,4.153-1.187c1.939,0.09,3.551,1.953,4.078,2.634
		c0.32-0.062,0.877-0.144,1.57-0.144c0.486,0,0.973,0.042,1.439,0.122c1.91,0.327,3.219,2.435,3.275,2.523l0.227,0.373L27.164,87.71
		z M23.001,86.825h3.907l11.338-7.145c-0.422-0.551-1.324-1.567-2.418-1.756c-0.42-0.071-0.854-0.108-1.291-0.108
		c-0.963,0-1.635,0.177-1.641,0.178l-0.301,0.081l-0.178-0.257c-0.018-0.023-1.688-2.406-3.568-2.494
		c-1.953-0.096-3.873,1.195-3.892,1.209l-0.28,0.188L24.419,76.5c-0.015-0.012-1.669-1.415-3.814-1.136
		c-2.138,0.278-3.281,2.146-3.293,2.165l-0.141,0.235l-0.274-0.023c-0.009,0-0.257-0.02-0.626-0.02c-0.69,0-1.952,0.07-2.659,0.542
		c-0.742,0.493-1.454,1.236-1.85,1.685L23.001,86.825z"/>
	<polygon fill="#FFFFFF" points="27.342,94.173 22.291,94.173 22.291,87.268 23.175,87.268 23.175,93.288 26.457,93.288 
		26.457,87.268 27.342,87.268 	"/>
	<path fill="#FFFFFF" d="M12.506,78.863c-0.051,0-0.103-0.01-0.152-0.03c-0.209-0.084-0.31-0.322-0.227-0.531
		c0.041-0.1,0.085-0.2,0.135-0.299c-1.81-0.013-3.032-1.183-3.324-2.391c-0.178-0.742-0.011-1.499,0.469-2.131
		c0.444-0.582,1.104-1.002,1.864-1.184c0.464-0.113,0.946-0.132,1.439-0.058c-0.027-0.088-0.052-0.175-0.072-0.262
		c-0.211-0.871-0.11-1.761,0.285-2.507c0.387-0.733,1.025-1.254,1.754-1.428c0.728-0.177,1.534-0.003,2.211,0.473
		c0.691,0.487,1.186,1.234,1.395,2.104c0.021,0.087,0.038,0.176,0.053,0.266c0.407-0.29,0.845-0.492,1.311-0.603
		c1.455-0.349,3.192,0.263,3.585,1.892c0.285,1.192-0.083,2.238-1.063,3.024c-0.175,0.142-0.432,0.113-0.573-0.063
		c-0.142-0.176-0.113-0.433,0.063-0.574c0.737-0.591,0.99-1.308,0.778-2.197c-0.273-1.132-1.537-1.544-2.601-1.289
		c-0.569,0.137-1.093,0.453-1.556,0.939c-0.117,0.123-0.296,0.161-0.453,0.096c-0.156-0.064-0.256-0.219-0.251-0.388
		c0.009-0.328-0.02-0.635-0.087-0.911c-0.163-0.678-0.543-1.257-1.071-1.628c-0.484-0.341-1.049-0.467-1.55-0.348
		c-0.5,0.12-0.945,0.49-1.224,1.015c-0.299,0.571-0.376,1.259-0.213,1.936c0.066,0.277,0.179,0.563,0.338,0.851
		c0.081,0.148,0.062,0.332-0.047,0.461c-0.11,0.128-0.288,0.174-0.447,0.121c-0.632-0.223-1.243-0.265-1.815-0.129
		c-0.566,0.136-1.078,0.459-1.403,0.885c-0.233,0.307-0.478,0.806-0.324,1.446c0.224,0.939,1.245,1.839,2.759,1.76
		c0.155-0.009,0.314-0.028,0.477-0.057c0.167-0.032,0.333,0.043,0.422,0.188c0.088,0.144,0.079,0.327-0.025,0.462
		c-0.205,0.267-0.367,0.548-0.481,0.833C12.82,78.766,12.667,78.863,12.506,78.863 M15.673,77.281c-0.063,0-0.127-0.015-0.187-0.046
		c-0.534-0.277-0.921-0.772-1.061-1.357c-0.269-1.115,0.42-2.239,1.533-2.506c0.54-0.13,1.098-0.042,1.571,0.247
		c0.474,0.289,0.806,0.747,0.937,1.287c0.081,0.343,0.103,0.507-0.008,0.869c-0.065,0.216-0.292,0.337-0.51,0.272
		c-0.214-0.066-0.336-0.294-0.271-0.51c0.057-0.184,0.056-0.188-0.005-0.441c-0.08-0.327-0.281-0.605-0.569-0.78
		c-0.287-0.176-0.625-0.23-0.952-0.151c-0.676,0.163-1.095,0.845-0.934,1.523c0.086,0.354,0.321,0.655,0.644,0.822
		c0.201,0.104,0.279,0.35,0.175,0.55C15.962,77.201,15.821,77.281,15.673,77.281"/>
	<path fill="#FFFFFF" d="M24.77,71.628c-0.475,0-0.926-0.167-1.289-0.479c-0.401-0.346-0.642-0.827-0.681-1.354
		c-0.081-1.086,0.739-2.037,1.826-2.119c1.085-0.075,2.038,0.739,2.118,1.827c0.041,0.527-0.128,1.038-0.472,1.438
		c-0.345,0.401-0.827,0.643-1.354,0.682C24.868,71.626,24.818,71.628,24.77,71.628 M24.773,68.487c-0.029,0-0.058,0.001-0.087,0.004
		c-0.64,0.047-1.119,0.606-1.074,1.245c0.024,0.309,0.166,0.591,0.401,0.794c0.235,0.203,0.535,0.307,0.844,0.278
		c0.31-0.022,0.592-0.164,0.795-0.4c0.203-0.234,0.301-0.534,0.279-0.844C25.885,68.954,25.375,68.487,24.773,68.487 M19.173,71.175
		c-1.061-0.519-1.769-1.501-1.848-2.561c-0.124-1.673,1.344-2.786,2.836-2.897c0.479-0.034,0.956,0.024,1.431,0.176
		c-0.015-0.09-0.023-0.18-0.029-0.269c-0.137-1.843,1.051-3.438,2.647-3.555c1.599-0.124,3.006,1.285,3.143,3.127
		c0.006,0.088,0.01,0.179,0.01,0.27c0.445-0.219,0.911-0.349,1.389-0.384c0.777-0.059,1.535,0.14,2.137,0.56
		c0.65,0.454,1.039,1.124,1.097,1.887c0.04,0.53-0.083,1.079-0.354,1.588l-0.72-0.383c0.196-0.367,0.287-0.774,0.259-1.145
		c-0.049-0.657-0.434-1.058-0.748-1.278c-0.44-0.307-1.029-0.464-1.607-0.415c-0.588,0.043-1.156,0.271-1.689,0.675
		c-0.134,0.103-0.316,0.112-0.462,0.022c-0.144-0.089-0.217-0.257-0.186-0.423c0.062-0.325,0.083-0.632,0.062-0.914
		c-0.111-1.512-1.262-2.444-2.268-2.373c-1.005,0.073-2.006,1.169-1.896,2.681c0.023,0.282,0.088,0.584,0.196,0.895
		c0.056,0.159,0.008,0.337-0.12,0.446c-0.13,0.109-0.311,0.128-0.461,0.047c-0.587-0.322-1.183-0.466-1.769-0.42
		c-1.09,0.081-2.168,0.859-2.081,2.022c0.056,0.76,0.603,1.502,1.391,1.888L19.173,71.175z"/>
	<path fill="#FFFFFF" d="M38.869,79.406l-0.563-0.592c0.26-0.247,0.426-0.552,0.492-0.906c0.201-1.097-0.59-2.47-2.268-2.871
		c-0.164-0.039-0.287-0.176-0.309-0.343s0.061-0.332,0.209-0.412c1.17-0.637,1.498-1.556,1.586-2.047
		c0.102-0.545,0.016-1.069-0.238-1.478c-0.262-0.415-0.674-0.685-1.193-0.781c-0.85-0.152-2.047,0.147-2.855,1.468
		c-0.088,0.144-0.258,0.22-0.422,0.188c-0.166-0.03-0.295-0.16-0.328-0.326c-0.283-1.522-1.292-2.231-2.143-2.387
		c-0.491-0.089-0.952-0.001-1.33,0.259c-0.418,0.289-0.706,0.766-0.813,1.343c-0.091,0.49-0.113,1.462,0.754,2.476
		c0.11,0.129,0.131,0.312,0.049,0.461c-0.078,0.148-0.238,0.234-0.412,0.21c-1.705-0.225-2.937,0.779-3.138,1.876
		c-0.012,0.058-0.019,0.117-0.023,0.175l-0.814-0.068c0.007-0.084,0.018-0.17,0.034-0.255c0.235-1.271,1.453-2.452,3.189-2.567
		c-0.578-1.014-0.537-1.941-0.441-2.457c0.145-0.791,0.555-1.454,1.152-1.865c0.559-0.386,1.23-0.522,1.941-0.391
		c0.942,0.174,2.031,0.846,2.564,2.21c0.984-1.085,2.24-1.326,3.182-1.153c0.742,0.137,1.361,0.546,1.738,1.151
		c0.363,0.582,0.488,1.313,0.352,2.058c-0.098,0.517-0.389,1.398-1.287,2.139c1.584,0.726,2.301,2.264,2.064,3.535
		C39.506,78.576,39.254,79.044,38.869,79.406 M32.66,77.236c-0.125,0-0.25-0.012-0.375-0.035l0.146-0.802
		c0.68,0.124,1.332-0.327,1.457-1.004c0.063-0.329-0.01-0.661-0.201-0.937c-0.188-0.276-0.473-0.46-0.801-0.521
		c-0.68-0.125-1.332,0.327-1.457,1.005c-0.033,0.178-0.027,0.354,0.016,0.524l-0.791,0.199c-0.072-0.283-0.08-0.576-0.027-0.87
		c0.205-1.122,1.285-1.868,2.406-1.66c0.543,0.1,1.016,0.404,1.328,0.859c0.314,0.455,0.432,1.005,0.33,1.548
		C34.51,76.538,33.639,77.236,32.66,77.236"/>
	
		<rect x="17.373" y="80.933" transform="matrix(0.6386 0.7695 -0.7695 0.6386 69.7602 14.005)" fill="#FFFFFF" width="5.194" height="0.68"/>
	
		<rect x="28.728" y="78.677" transform="matrix(0.7685 0.6399 -0.6399 0.7685 58.7371 0.2173)" fill="#FFFFFF" width="0.68" height="5.192"/>
	<rect x="24.263" y="78.254" fill="#FFFFFF" width="0.681" height="4.762"/>
</g>
<g>
	<circle fill="none" stroke="#FFFFFF" stroke-width="1.5" stroke-miterlimit="10" cx="25" cy="132.332" r="24.205"/>
	<path fill="#FFFFFF" d="M35.271,145.697H14.616c-1.407,0-2.551-1.145-2.551-2.552v-19.242c0-1.407,1.144-2.552,2.551-2.552h20.655
		c1.406,0,2.551,1.145,2.551,2.552v19.242C37.822,144.552,36.678,145.697,35.271,145.697 M14.616,122.372
		c-0.844,0-1.53,0.687-1.53,1.531v19.242c0,0.844,0.687,1.531,1.53,1.531h20.655c0.844,0,1.53-0.687,1.53-1.531v-19.242
		c0-0.844-0.687-1.531-1.53-1.531H14.616z"/>
	<rect x="12.93" y="127.294" fill="#FFFFFF" width="24.03" height="0.68"/>
	<rect x="14.06" y="126.02" fill="#FFFFFF" width="21.769" height="0.51"/>
	<path fill="#FFFFFF" d="M24.81,142.209h-0.007c-0.11-0.002-0.214-0.047-0.288-0.126l-0.014-0.014
		c-0.03-0.029-3.92-3.847-4.298-4.206c-0.451-0.422-0.821-0.829-1.128-1.244c-0.277-0.371-0.482-0.737-0.627-1.122
		c-0.135-0.348-0.219-0.722-0.25-1.108c-0.013-0.178-0.024-0.353-0.015-0.531c0.05-0.987,0.388-1.845,1.005-2.548
		c0.484-0.552,1.101-0.906,1.832-1.054c0.245-0.049,0.501-0.074,0.762-0.074l0.146,0.002c0.521,0.019,0.981,0.122,1.405,0.314
		c0.595,0.264,1.09,0.684,1.474,1.249c0.107-0.158,0.224-0.306,0.354-0.446c0.511-0.55,1.148-0.902,1.896-1.046
		c0.246-0.048,0.504-0.073,0.767-0.073l0.146,0.002c0.514,0.017,0.993,0.129,1.419,0.336c0.586,0.282,1.068,0.724,1.433,1.313
		c0.294,0.48,0.486,1.011,0.571,1.579c0.03,0.194,0.046,0.384,0.046,0.577c0,0.837-0.223,1.609-0.665,2.293
		c-0.202,0.32-0.449,0.636-0.753,0.971c-0.362,0.399-4.741,4.66-4.926,4.84C25.019,142.167,24.917,142.209,24.81,142.209
		 M21.782,130.998c-0.207,0-0.409,0.019-0.601,0.058c-0.552,0.112-1.017,0.379-1.379,0.793c-0.499,0.568-0.764,1.24-0.805,2.052
		c-0.007,0.143,0.003,0.282,0.015,0.424c0.023,0.307,0.09,0.604,0.198,0.881c0.118,0.314,0.287,0.616,0.519,0.925
		c0.279,0.377,0.617,0.749,1.033,1.138c0.33,0.312,3.147,3.076,4.048,3.96c1.628-1.584,4.346-4.237,4.604-4.524
		c0.273-0.3,0.493-0.582,0.673-0.863c0.359-0.56,0.534-1.166,0.534-1.853c0-0.153-0.013-0.303-0.035-0.455
		c-0.069-0.459-0.225-0.888-0.461-1.273c-0.283-0.46-0.643-0.789-1.092-1.006c-0.328-0.159-0.685-0.241-1.091-0.255l-0.12-0.002
		c-0.21,0-0.416,0.02-0.609,0.059c-0.584,0.112-1.058,0.374-1.453,0.8c-0.241,0.258-0.429,0.554-0.559,0.878
		c-0.06,0.152-0.213,0.271-0.376,0.275c-0.171-0.014-0.321-0.073-0.39-0.221c-0.006-0.014-0.025-0.062-0.03-0.076
		c-0.045-0.119-0.115-0.254-0.202-0.397c-0.311-0.5-0.704-0.851-1.203-1.073c-0.329-0.149-0.689-0.228-1.103-0.243L21.782,130.998z"
		/>
	<rect x="18.608" y="117.976" fill="#FFFFFF" width="1.361" height="3.534"/>
	<rect x="28.77" y="118.004" fill="#FFFFFF" width="1.36" height="3.533"/>
</g>
<g>
	<circle fill="none" stroke="#FFFFFF" stroke-width="1.5" stroke-miterlimit="10" cx="25" cy="185.998" r="24.205"/>
	<path fill="#FFFFFF" d="M28.291,177.786l-0.799-0.383c1.244-2.592,2.193-5.779,1.561-6.412c-0.391-0.394-1.207,0.065-2.506,0.865
		c-1.209,0.743-2.579,1.585-4.105,1.756c-1.06,0.112-1.436-0.398-1.568-0.716c-0.694-1.653,2.193-5.7,3.903-7.096l0.561,0.685
		c-1.754,1.43-4.075,5.053-3.648,6.07c0.024,0.059,0.101,0.242,0.654,0.176c1.33-0.146,2.611-0.934,3.741-1.629
		c1.379-0.848,2.684-1.648,3.594-0.738C31.076,171.764,28.768,176.792,28.291,177.786"/>
	<path fill="#FFFFFF" d="M23.207,200.175L23.207,200.175c-0.821,0-1.626-0.132-2.396-0.39c-4.851-1.638-7.105-7.987-5.025-14.155
		c1.71-5.068,5.895-8.607,10.178-8.607c0.82,0,1.625,0.131,2.394,0.392c2.373,0.8,4.199,2.729,5.143,5.433
		c0.926,2.658,0.883,5.756-0.117,8.721C31.674,196.636,27.488,200.175,23.207,200.175 M25.963,178.043
		c-3.853,0-7.638,3.254-9.211,7.914c-1.9,5.634,0.067,11.403,4.386,12.86c0.663,0.224,1.357,0.338,2.068,0.338
		c3.85,0,7.637-3.256,9.209-7.913c0.93-2.753,0.971-5.615,0.121-8.06c-0.836-2.398-2.438-4.104-4.504-4.802
		C27.369,178.157,26.672,178.043,25.963,178.043"/>
	<path fill="#FFFFFF" d="M27.527,188.267c-0.98,0-1.985-0.113-2.942-0.41c-4.136-1.28-6.713-5.401-6.821-5.576l0.753-0.465
		c0.025,0.041,2.516,4.015,6.331,5.197c3.826,1.186,8.716-0.871,8.765-0.892l0.348,0.813
		C33.799,187.003,30.789,188.267,27.527,188.267"/>
	
		<rect x="25.81" y="179.628" transform="matrix(0.94 0.3412 -0.3412 0.94 63.8856 2.013)" fill="#FFFFFF" width="0.819" height="6.032"/>
</g>
<g>
	<circle fill="none" stroke="#FFFFFF" stroke-width="1.5" stroke-miterlimit="10" cx="25" cy="239.665" r="24.206"/>
	<path fill="#FFFFFF" d="M31.679,255.922h-9.977c-0.229,0-0.43-0.151-0.493-0.373c-0.06-0.22,0.032-0.455,0.228-0.573l4.989-3.035
		c0.164-0.1,0.367-0.1,0.531,0l4.986,3.035c0.197,0.118,0.289,0.354,0.227,0.573C32.108,255.771,31.907,255.922,31.679,255.922
		 M23.522,254.901h6.336l-3.168-1.928L23.522,254.901z"/>
	<rect x="26.192" y="243.456" fill="#FFFFFF" width="1.02" height="8.92"/>
	<path fill="#FFFFFF" d="M15.014,237.124c-0.099,0-0.196-0.002-0.295-0.008c-1.602-0.078-3.077-0.775-4.155-1.963
		c-1.077-1.188-1.628-2.725-1.549-4.327c0.16-3.306,2.979-5.853,6.29-5.704c3.091,0.15,5.542,2.59,5.704,5.676l-0.816,0.043
		c-0.14-2.666-2.257-4.775-4.928-4.904c-1.384-0.08-2.712,0.408-3.739,1.338c-1.025,0.932-1.628,2.207-1.695,3.592
		c-0.068,1.384,0.407,2.712,1.339,3.738c0.931,1.026,2.205,1.629,3.59,1.695c1.282,0.067,2.542-0.35,3.536-1.164l0.519,0.631
		C17.739,236.647,16.399,237.124,15.014,237.124"/>
	
		<rect x="11.197" y="230.602" transform="matrix(0.9984 0.0561 -0.0561 0.9984 12.9654 -0.3169)" fill="#FFFFFF" width="1.863" height="0.509"/>
	
		<rect x="15.008" y="227.213" transform="matrix(0.9983 0.0575 -0.0575 0.9983 13.144 -0.5)" fill="#FFFFFF" width="0.51" height="1.988"/>
	
		<rect x="14.665" y="233.09" transform="matrix(0.9984 0.0573 -0.0573 0.9984 13.4289 -0.4703)" fill="#FFFFFF" width="0.512" height="1.956"/>
	
		<rect x="12.15" y="228.621" transform="matrix(0.6639 0.7478 -0.7478 0.6639 175.5643 67.101)" fill="#FFFFFF" width="1.956" height="0.509"/>
	
		<rect x="16.849" y="228.079" transform="matrix(0.6985 0.7156 -0.7156 0.6985 169.0952 56.8338)" fill="#FFFFFF" width="0.512" height="1.998"/>
	
		<rect x="12.698" y="232.208" transform="matrix(0.6984 0.7157 -0.7157 0.6984 170.7379 61.027)" fill="#FFFFFF" width="0.51" height="1.812"/>
	<path fill="#FFFFFF" d="M24.635,236.392c-0.561,0-0.897-0.42-1.168-0.758c-0.05-0.063-0.098-0.123-0.148-0.181
		c-0.323-0.375-0.54-0.505-0.751-0.451c-0.185,0.05-0.365,0.233-0.556,0.429c-0.114,0.115-0.231,0.232-0.354,0.332
		c-0.072,0.059-0.139,0.117-0.201,0.174c-0.242,0.215-0.49,0.437-0.879,0.437c-0.39,0-0.623-0.207-0.87-0.425
		c-0.062-0.055-0.127-0.111-0.198-0.169l0.321-0.397c0.077,0.063,0.147,0.125,0.214,0.184c0.229,0.201,0.345,0.298,0.533,0.298
		c0.185,0,0.313-0.104,0.538-0.308c0.069-0.062,0.142-0.125,0.222-0.19c0.108-0.088,0.209-0.19,0.31-0.292
		c0.229-0.234,0.469-0.479,0.79-0.564c0.531-0.139,0.939,0.23,1.268,0.611c0.053,0.061,0.105,0.127,0.159,0.195
		c0.233,0.289,0.454,0.566,0.771,0.566c0.33,0,0.592-0.318,0.844-0.625l0.139-0.166c0.198-0.232,0.663-0.77,1.268-0.611
		c0.32,0.086,0.564,0.334,0.801,0.576c0.1,0.104,0.201,0.209,0.311,0.297c0.078,0.063,0.148,0.125,0.217,0.185
		c0.225,0.2,0.344,0.296,0.531,0.296c0.184,0,0.311-0.105,0.535-0.307c0.07-0.061,0.145-0.127,0.223-0.19
		c0.107-0.087,0.207-0.188,0.307-0.29c0.232-0.236,0.471-0.48,0.793-0.566c0.607-0.158,1.07,0.379,1.268,0.611l0.043,0.049
		c0.277,0.321,0.539,0.625,0.949,0.727c0.223,0.063,0.582-0.32,0.75-0.594l0.434,0.27c-0.063,0.102-0.621,0.985-1.307,0.82
		c-0.568-0.141-0.91-0.537-1.213-0.889l-0.043-0.051c-0.318-0.369-0.545-0.5-0.75-0.449c-0.188,0.049-0.369,0.233-0.559,0.429
		c-0.113,0.116-0.229,0.231-0.35,0.329c-0.074,0.06-0.141,0.119-0.205,0.177c-0.24,0.214-0.488,0.437-0.875,0.437
		c-0.391,0-0.623-0.207-0.869-0.424c-0.063-0.056-0.127-0.113-0.201-0.172c-0.123-0.1-0.24-0.218-0.355-0.337
		c-0.195-0.2-0.381-0.39-0.564-0.438c-0.209-0.053-0.434,0.08-0.752,0.449l-0.131,0.157
		C25.576,235.94,25.207,236.392,24.635,236.392"/>
	<path fill="#FFFFFF" d="M26.706,244.223l-11.904-13.319h23.804L26.706,244.223z M17.084,231.924l9.622,10.767l9.621-10.767H17.084z
		"/>
</g>
<g>
	<path fill="#FFFFFF" d="M19.222,470.334L19.222,470.334c-1.52,0-3.193-0.671-4.975-1.991c-1.992-1.479-4.233-4.56-4.664-7.586
		c-0.453-3.191,2.634-4.593,3.951-5.189c1.311-0.594,2.958-1.728,3.654-3.133c0.266-0.533,0.47-1.172,0.686-1.85
		c0.381-1.191,0.775-2.423,1.562-3.217c1.281-1.289,2.709-1.41,3.953-0.352c0.991,0.845,0.798,2.08,0.596,3.389
		c-0.061,0.389-0.125,0.795-0.159,1.213c-0.146,1.697,0.287,2.66,1.401,3.12c0.409,0.17,1.199-0.005,1.932-0.196
		c0.537-0.139,1.047-0.271,1.504-0.271c0.885,0,1.211,0.52,1.328,0.957c0.391,1.442-1.119,2.561-2.576,3.643
		c-0.494,0.366-0.961,0.712-1.34,1.057c-0.88,0.807-0.908,1.58-0.95,2.754c-0.021,0.531-0.042,1.133-0.154,1.812
		c-0.441,2.642-1.646,4.399-3.685,5.378C20.644,470.179,19.95,470.334,19.222,470.334 M21.624,447.185
		c-0.503,0-1.027,0.271-1.561,0.807c-0.637,0.643-0.998,1.771-1.348,2.863c-0.216,0.679-0.44,1.379-0.734,1.974
		c-1.007,2.03-3.379,3.226-4.082,3.544c-1.975,0.896-3.757,2.032-3.44,4.262c0.392,2.756,2.516,5.661,4.315,6.998
		c1.625,1.206,3.123,1.817,4.447,1.817c0.595,0,1.16-0.126,1.682-0.376c1.783-0.855,2.799-2.358,3.192-4.725
		c0.104-0.623,0.124-1.172,0.145-1.701c0.044-1.242,0.085-2.316,1.237-3.373c0.41-0.377,0.917-0.752,1.409-1.115
		c1.221-0.905,2.482-1.842,2.252-2.703c-0.047-0.17-0.111-0.301-0.477-0.301c-0.344,0-0.801,0.117-1.281,0.244
		c-0.883,0.228-1.843,0.425-2.491,0.156c-1.487-0.615-2.124-1.927-1.946-4.013c0.035-0.438,0.103-0.866,0.167-1.274
		c0.198-1.273,0.291-2.08-0.295-2.578C22.421,447.354,22.02,447.185,21.624,447.185"/>
	
		<rect x="15.704" y="461.669" transform="matrix(0.7807 0.6249 -0.6249 0.7807 292.649 90.2448)" fill="#FFFFFF" width="4.066" height="0.885"/>
	
		<rect x="17.96" y="459.109" transform="matrix(0.775 0.632 -0.632 0.775 294.8901 90.8277)" fill="#FFFFFF" width="3.857" height="0.884"/>
	
		<rect x="19.746" y="456.942" transform="matrix(0.7383 0.6745 -0.6745 0.7383 314.1341 105.2159)" fill="#FFFFFF" width="3.492" height="0.884"/>
	<polygon fill="#FFFFFF" points="25.017,455.063 24.489,454.635 33.285,443.793 33.424,443.906 33.646,443.644 34.023,443.962 	"/>
	
		<rect x="27.132" y="440.79" transform="matrix(0.7661 0.6427 -0.6427 0.7661 293.7411 86.9031)" fill="#FFFFFF" width="0.681" height="12.479"/>
	<path fill="#FFFFFF" d="M33.287,444.403c-0.705,0-1.318-0.443-1.871-1.357c-0.824-1.364,0.127-2.539,0.746-2.969
		c0.365-0.262,3.654-2.586,5-2.586c0.09,0,0.174,0.01,0.25,0.029c0.764,0.188,1.078,0.597,1.209,0.908
		c0.186,0.443,0.119,0.975-0.189,1.494c-0.42,0.711-1.18,0.851-1.549,0.873c-0.258,0.604-1.055,2.297-2.064,3.01
		C34.242,444.214,33.754,444.403,33.287,444.403 M37.162,438.171c-0.957,0-3.652,1.777-4.607,2.463
		c-0.133,0.093-1.242,0.924-0.557,2.059c0.559,0.924,1.004,1.031,1.289,1.031c0.314,0,0.688-0.155,1.139-0.473
		c1.049-0.74,1.906-2.896,1.914-2.918l0.094-0.235l0.254,0.022c0.275-0.006,0.869-0.052,1.158-0.544
		c0.197-0.329,0.248-0.644,0.148-0.886c-0.127-0.303-0.475-0.443-0.744-0.51C37.234,438.177,37.207,438.171,37.162,438.171"/>
	<circle fill="none" stroke="#FFFFFF" stroke-width="1.5" stroke-miterlimit="10" cx="25" cy="454.334" r="24.205"/>
</g>
<g>
	<path fill="#FFFFFF" d="M22.923,416.121c-0.104,0-0.204-0.016-0.296-0.047c-0.66-0.219-0.858-1.099,1.948-11.418
		c0.018-0.065,0.035-0.129,0.051-0.192c-3.899,2.489-9.319,5.776-11.668,5.81c-3.311,0-7.615-6.949-7.684-8.094
		c-0.021-0.372,0.12-0.74,0.397-1.036c0.635-0.672,1.869-0.829,2.629-0.284c0.194,0.139,0.39,0.291,0.591,0.446
		c0.89,0.69,1.809,1.405,3.264,1.491h0.001c0.668,0,3.119-1.439,5.716-2.962c1.764-1.036,3.762-2.208,5.856-3.339l1.773-0.961
		c3.056-1.657,6.214-3.371,8.617-4.443c1.387-0.618,3.078-1.243,4.959-1.164c1.52,0.068,3.184,1.03,4.232,1.907
		c0.611,0.509,0.955,1.217,0.92,1.894c-0.029,0.545-0.305,1.021-0.777,1.34c-0.611,0.412-2.824,1.568-5.168,2.793
		c-2.26,1.183-5.334,2.789-5.771,3.138c-0.855,1.81-1.717,3.542-2.549,5.218c-1.006,2.027-2.049,4.124-3.064,6.33
		C26.281,413.891,24.126,416.121,22.923,416.121 M25.735,402.945l-0.044,0.655c-0.005,0.076-0.019,0.13-0.328,1.269
		c-1.995,7.338-2.4,9.763-2.344,10.426c0.744-0.145,2.551-1.811,3.139-3.09c1.021-2.219,2.066-4.319,3.076-6.352
		c0.84-1.691,1.709-3.438,2.568-5.262c0.133-0.282,0.711-0.635,6.104-3.454c2.221-1.159,4.52-2.36,5.092-2.748
		c0.262-0.175,0.402-0.411,0.418-0.702c0.02-0.416-0.221-0.885-0.629-1.226c-0.904-0.756-2.428-1.659-3.746-1.718
		c-1.719-0.084-3.287,0.513-4.588,1.094c-2.375,1.059-5.52,2.766-8.562,4.415l-1.773,0.962c-2.081,1.123-4.074,2.292-5.832,3.324
		c-3.443,2.02-5.28,3.074-6.118,3.074c-1.768-0.103-2.881-0.967-3.776-1.664c-0.191-0.148-0.378-0.293-0.563-0.426
		c-0.224-0.158-0.469-0.192-0.635-0.192c-0.349,0-0.712,0.146-0.925,0.372c-0.127,0.135-0.187,0.279-0.179,0.429
		c0.068,0.864,4.086,7.326,6.837,7.326c2.423-0.034,9.12-4.314,11.322-5.722c0.671-0.428,0.797-0.506,0.88-0.541L25.735,402.945z"/>
	<path fill="#FFFFFF" d="M20.655,398.851c-7.95-4.698-8.001-4.957-8.052-5.207c-0.025-0.126-0.012-0.315,0.195-0.507
		c0.531-0.495,2.853-1.311,3.915-1.016c1.021,0.283,2.497,0.674,4.06,1.09c2.283,0.605,4.87,1.293,6.397,1.738l-0.23,0.782
		c-1.514-0.44-4.098-1.127-6.376-1.731c-1.565-0.418-3.043-0.81-4.067-1.094c-0.664-0.179-2.223,0.321-2.876,0.657
		c0.755,0.541,2.991,1.949,7.449,4.584L20.655,398.851z"/>
	<path fill="#FFFFFF" d="M16.446,405.75c-0.661,0-1.22-0.517-1.273-1.176c-0.026-0.341,0.081-0.672,0.303-0.932
		c0.222-0.259,0.53-0.417,0.869-0.443c0.703-0.057,1.322,0.479,1.376,1.172c0.028,0.342-0.079,0.672-0.301,0.932
		s-0.533,0.418-0.872,0.443C16.513,405.75,16.48,405.75,16.446,405.75 M16.448,403.705c-0.267,0.019-0.452,0.112-0.584,0.27
		c-0.134,0.154-0.199,0.354-0.182,0.559c0.031,0.397,0.367,0.707,0.764,0.707l0.062-0.002c0.205-0.016,0.391-0.111,0.523-0.267
		c0.134-0.157,0.198-0.354,0.182-0.56C17.181,404.017,16.844,403.705,16.448,403.705"/>
	<path fill="#FFFFFF" d="M19.924,403.965c-0.661,0-1.22-0.516-1.272-1.176c-0.056-0.701,0.472-1.318,1.174-1.375
		c0.695-0.061,1.319,0.479,1.375,1.172c0.055,0.705-0.472,1.319-1.174,1.377C19.993,403.965,19.959,403.965,19.924,403.965
		 M19.928,401.92c-0.483,0.037-0.801,0.407-0.767,0.83c0.031,0.396,0.365,0.705,0.763,0.705l0.063-0.002
		c0.421-0.033,0.738-0.404,0.706-0.826C20.661,402.23,20.324,401.92,19.928,401.92"/>
	<path fill="#FFFFFF" d="M23.405,402.182c-0.662,0-1.221-0.518-1.273-1.176c-0.055-0.703,0.472-1.32,1.173-1.375
		c0.698-0.053,1.319,0.479,1.375,1.17c0.027,0.341-0.08,0.672-0.302,0.934c-0.222,0.258-0.532,0.416-0.872,0.444
		C23.472,402.181,23.438,402.182,23.405,402.182 M23.408,400.137c-0.484,0.036-0.8,0.407-0.768,0.829
		c0.031,0.396,0.367,0.706,0.765,0.706l0.062-0.002c0.205-0.016,0.391-0.112,0.523-0.268c0.133-0.156,0.197-0.355,0.182-0.56
		C24.14,400.447,23.804,400.137,23.408,400.137"/>
	<path fill="#FFFFFF" d="M26.883,400.396c-0.66,0-1.219-0.516-1.273-1.174c-0.056-0.705,0.472-1.322,1.173-1.377
		c0.701-0.062,1.32,0.479,1.377,1.172c0.055,0.703-0.471,1.32-1.174,1.375C26.951,400.396,26.918,400.396,26.883,400.396
		 M26.885,398.352c-0.482,0.035-0.799,0.406-0.766,0.83c0.031,0.396,0.369,0.705,0.764,0.705l0.063-0.002
		c0.422-0.033,0.738-0.404,0.705-0.826C27.619,398.662,27.281,398.352,26.885,398.352"/>
	<path fill="#FFFFFF" d="M30.361,398.613c-0.66,0-1.219-0.518-1.271-1.176c-0.055-0.703,0.471-1.32,1.172-1.377
		c0.715-0.05,1.322,0.479,1.377,1.174c0.055,0.703-0.473,1.318-1.174,1.375C30.43,398.611,30.396,398.613,30.361,398.613
		 M30.363,396.566c-0.48,0.037-0.797,0.408-0.766,0.83c0.031,0.396,0.369,0.707,0.764,0.707l0.063-0.002
		c0.422-0.035,0.738-0.406,0.705-0.828C31.098,396.878,30.762,396.566,30.363,396.566"/>
	<path fill="#FFFFFF" d="M33.842,396.828c-0.662,0-1.221-0.517-1.273-1.178c-0.025-0.341,0.082-0.672,0.303-0.931
		c0.223-0.261,0.533-0.417,0.869-0.442c0.691-0.047,1.322,0.479,1.375,1.172c0.029,0.34-0.08,0.672-0.301,0.932
		c-0.223,0.26-0.531,0.418-0.871,0.443C33.91,396.828,33.877,396.828,33.842,396.828 M33.844,394.783
		c-0.266,0.018-0.451,0.111-0.584,0.268s-0.197,0.355-0.182,0.561c0.031,0.396,0.367,0.707,0.764,0.707l0.063-0.002
		c0.203-0.016,0.389-0.111,0.521-0.267c0.135-0.156,0.199-0.354,0.182-0.56C34.576,395.094,34.24,394.783,33.844,394.783"/>
	<polygon fill="#FFFFFF" points="37.123,395.29 36.277,392.459 40.434,390.344 40.742,390.95 37.092,392.809 37.533,394.285 
		42.309,391.639 42.637,392.232 	"/>
	<circle fill="none" stroke="#FFFFFF" stroke-width="1.5" stroke-miterlimit="10" cx="25" cy="400.667" r="24.205"/>
</g>
<g>
	<path fill="#FFFFFF" d="M22.998,356.858c-6.693,0-12.14-5.446-12.14-12.141c0-6.693,5.447-12.139,12.14-12.139
		s12.14,5.445,12.14,12.139C35.138,351.412,29.69,356.858,22.998,356.858 M22.998,333.464c-6.205,0-11.255,5.048-11.255,11.254
		c0,6.207,5.05,11.256,11.255,11.256c6.207,0,11.255-5.049,11.255-11.256C34.253,338.512,29.204,333.464,22.998,333.464"/>
	<path fill="#FFFFFF" d="M22.667,347.197c-7.645,0-11.664-3.136-11.831-3.269l0.551-0.692c0.038,0.03,3.967,3.076,11.28,3.076
		c7.342,0,11.436-3.052,11.476-3.082l0.536,0.704C34.503,344.067,30.304,347.197,22.667,347.197"/>
	<path fill="#FFFFFF" d="M15.065,353.282l-0.807-0.362c0.017-0.036,1.619-3.661,1.619-7.681c0-4.041-1.613-8.42-1.629-8.465
		l0.829-0.308c0.068,0.185,1.686,4.575,1.686,8.772C16.763,349.454,15.135,353.127,15.065,353.282"/>
	<path fill="#FFFFFF" d="M22.536,356.757c-0.117-0.175-2.868-4.363-2.964-11.891c-0.096-7.562,3.641-12.039,3.8-12.226l0.674,0.573
		c-0.038,0.043-3.68,4.427-3.59,11.643c0.092,7.243,2.788,11.367,2.814,11.408L22.536,356.757z"/>
	<path fill="#FFFFFF" d="M30.458,353.812c-0.051-0.015-5.179-1.475-5.771-7.486c-0.586-5.959,5.37-10.44,5.624-10.628l0.527,0.711
		c-0.06,0.044-5.807,4.374-5.271,9.829c0.534,5.414,5.078,6.707,5.122,6.721L30.458,353.812z"/>
	
		<rect x="28.488" y="359.132" transform="matrix(0.6652 0.7467 -0.7467 0.6652 279.0066 96.7566)" fill="#FFFFFF" width="6.263" height="0.681"/>
	
		<rect x="30.769" y="357.56" transform="matrix(0.711 0.7032 -0.7032 0.711 262.1552 77.9844)" fill="#FFFFFF" width="10.884" height="0.679"/>
	
		<rect x="34.057" y="353.138" transform="matrix(0.7371 0.6758 -0.6758 0.7371 248.9297 67.1157)" fill="#FFFFFF" width="8.305" height="0.679"/>
	<circle fill="none" stroke="#FFFFFF" stroke-width="1.5" stroke-miterlimit="10" cx="25" cy="347" r="24.206"/>
</g>
<g>
	<path fill="#FFFFFF" d="M16.808,287.017c-0.128,0-0.257-0.006-0.388-0.021c-1.324-0.133-2.592-0.902-3.389-2.059
		c-0.771-1.115-1.023-2.469-0.691-3.713c0.704-2.643,3.225-3.785,3.331-3.832c0.154-0.066,0.333-0.037,0.455,0.078
		c0.122,0.111,0.164,0.289,0.109,0.447c-0.011,0.027-0.966,2.74,0.3,4.508c1.264,1.764,4.14,1.523,4.181,1.52
		c0.166-0.023,0.322,0.068,0.402,0.213s0.069,0.322-0.03,0.453C21.013,284.71,19.253,287.017,16.808,287.017 M15.181,278.659
		c-0.71,0.512-1.672,1.422-2.033,2.779c-0.269,1.008-0.061,2.109,0.57,3.023c0.661,0.955,1.702,1.592,2.786,1.703
		c1.406,0.145,2.612-0.738,3.301-1.393c-1.11-0.076-2.924-0.43-3.95-1.863C14.862,281.524,14.971,279.757,15.181,278.659"/>
	<path fill="#FFFFFF" d="M28.29,290.774c-0.127,0-0.252-0.027-0.377-0.08c-0.812-0.344-1.308-1.799-1.398-2.088l0.797-0.252
		c0.174,0.549,0.589,1.428,0.928,1.572c0.041,0.014,0.063,0.014,0.102-0.004c0.234-0.119,0.509-0.766,0.728-1.285
		c0.425-1.002,0.95-2.248,2.054-2.129c0.838,0.094,1.363,0.709,1.785,1.203c0.377,0.436,0.557,0.607,0.702,0.549
		c0.718-0.297,0.97-0.885,0.974-0.891l0.775,0.309c-0.015,0.039-0.377,0.918-1.427,1.354c-0.728,0.309-1.245-0.295-1.658-0.777
		c-0.36-0.42-0.735-0.857-1.244-0.914c-0.474-0.066-0.856,0.838-1.19,1.623c-0.315,0.746-0.613,1.451-1.123,1.707
		C28.577,290.739,28.434,290.774,28.29,290.774"/>
	<path fill="#FFFFFF" d="M25.454,304.476H9.76c-0.15,0-0.288-0.078-0.362-0.207c-0.074-0.129-0.074-0.289,0-0.418l7.848-13.592
		c0.075-0.129,0.213-0.209,0.362-0.209s0.287,0.08,0.361,0.209l7.847,13.592c0.075,0.129,0.075,0.289,0,0.418
		C25.741,304.397,25.604,304.476,25.454,304.476 M10.484,303.642H24.73l-7.122-12.336L10.484,303.642z"/>
	<line x1="17.623" y1="290.487" x2="17.623" y2="304.069"/>
	<rect x="17.203" y="290.487" fill="#FFFFFF" width="0.836" height="13.582"/>
	<path fill="#FFFFFF" d="M24.845,292.724c2.81-4.867,5.859-10.146,6.083-10.514c0.082-0.137,0.188-0.311,0.269-0.416
		c0.044,0.055,0.108,0.143,0.196,0.291c0.054,0.086,0.193,0.318,10.541,18.271h-4.883l0.51,0.838h5.818l-0.361-0.629
		c-10.709-18.58-10.85-18.814-10.911-18.92c-0.224-0.371-0.507-0.752-0.918-0.752c-0.438,0-0.675,0.389-0.976,0.881
		c-0.231,0.383-3.34,5.764-6.175,10.674L24.845,292.724z"/>
	<path fill="#FFFFFF" d="M39.19,303.847l-5.208-8.842c-0.062-0.107-0.171-0.182-0.293-0.201c-0.037-0.004-3.663-0.582-6.663-1.426
		c-3.003-0.844-9.204-3.275-9.266-3.301c-0.164-0.064-0.353-0.018-0.47,0.117c-0.116,0.135-0.133,0.33-0.045,0.484l7.91,13.592
		c0.076,0.127,0.213,0.205,0.362,0.205h13.311c0.151,0,0.288-0.078,0.365-0.209C39.267,304.136,39.265,303.976,39.19,303.847
		 M25.758,303.642l-7.189-12.354c1.946,0.748,5.971,2.26,8.23,2.895c2.646,0.744,5.761,1.283,6.563,1.416l4.734,8.043H25.758z"/>
	<circle fill="none" stroke="#FFFFFF" stroke-width="1.5" stroke-miterlimit="10" cx="25" cy="293.333" r="24.206"/>
</g>
</svg>
