<?xml version="1.0" encoding="utf-8"?>
<!-- Generator: Adobe Illustrator 16.0.0, SVG Export Plug-In . SVG Version: 6.00 Build 0)  -->
<!DOCTYPE svg PUBLIC "-//W3C//DTD SVG 1.1//EN" "http://www.w3.org/Graphics/SVG/1.1/DTD/svg11.dtd" [
	<!ENTITY ns_flows "http://ns.adobe.com/Flows/1.0/">
	<!ENTITY ns_extend "http://ns.adobe.com/Extensibility/1.0/">
	<!ENTITY ns_ai "http://ns.adobe.com/AdobeIllustrator/10.0/">
	<!ENTITY ns_graphs "http://ns.adobe.com/Graphs/1.0/">
]>
<svg version="1.1" id="Capa_1" xmlns:x="&ns_extend;" xmlns:i="&ns_ai;" xmlns:graph="&ns_graphs;"
	 xmlns="http://www.w3.org/2000/svg" xmlns:xlink="http://www.w3.org/1999/xlink" xmlns:a="http://ns.adobe.com/AdobeSVGViewerExtensions/3.0/"
	 x="0px" y="0px" width="36px" height="715px" viewBox="0 0 36 715" enable-background="new 0 0 36 715" xml:space="preserve">
<path fill="#010202" d="M18.295,338.075c-6.811,0-10.227-2.531-10.367-2.639l-0.18-0.137l0.049-0.219
	c0.006-0.025,0.6-2.699,2.248-7.205c1.412-3.859,3.09-5.881,3.621-6.461l-1.822-4.35l0.289-0.148
	c0.059-0.03,1.482-0.746,2.842-0.746c0.227,0,0.441,0.021,0.641,0.059c1.063,0.212,1.857,0.92,2.26,1.354
	c0.422-0.478,1.285-1.273,2.436-1.359c1.535-0.115,3.342,0.598,3.414,0.625l0.316,0.126l-1.695,4.632
	c0.578,0.543,2.34,2.42,3.75,6.27c1.652,4.516,2.105,7.328,2.125,7.445l0.031,0.195l-0.152,0.127
	C27.98,335.743,25.113,338.075,18.295,338.075 M8.533,335.002c0.785,0.506,4.066,2.373,9.762,2.373c5.67,0,8.521-1.691,9.197-2.154
	c-0.137-0.73-0.678-3.344-2.055-7.105c-1.602-4.373-3.703-6.117-3.723-6.133l-0.195-0.158l1.625-4.439
	c-0.563-0.189-1.77-0.545-2.781-0.463c-1.279,0.095-2.184,1.396-2.191,1.409l-0.281,0.409l-0.293-0.401
	c-0.008-0.012-0.863-1.173-2.119-1.423c-0.973-0.195-2.182,0.254-2.734,0.489l1.748,4.171l-0.172,0.166
	c-0.018,0.02-2.01,1.98-3.617,6.373C9.346,331.827,8.713,334.272,8.533,335.002"/>
<g>
	<path fill="#010202" d="M18.003,151.01c-2.44,0-8.159-0.012-8.51-0.122c-0.569-0.18-1.808-1.008-2.092-2.109
		c-0.241-0.936,1.124-10.394,1.604-11.122c0.114-0.171,0.378-0.57,8.75-0.57c8.853,0,9.138,0.431,9.245,0.593
		c0.491,0.744,1.732,9.443,1.619,10.578c-0.144,1.428-1.564,2.461-2.105,2.631C26.165,150.998,20.446,151.01,18.003,151.01
		 M9.564,138.104c-0.367,0.998-1.722,9.587-1.485,10.498c0.214,0.833,1.262,1.503,1.625,1.617c0.294,0.05,3.795,0.09,8.299,0.09
		c4.506,0,8.006-0.04,8.326-0.096c0.315-0.102,1.485-0.944,1.594-2.027c0.125-1.242-1.123-9.086-1.48-10.062
		c-0.586-0.168-3.727-0.34-8.687-0.34C13.085,137.785,10.124,137.946,9.564,138.104"/>
	<polygon fill="#010202" points="17.713,145.831 9.065,138.11 9.531,137.589 17.725,144.903 26.45,137.517 26.903,138.052 	"/>
	<path fill="#010202" d="M22.943,137.677c-0.019-0.045-1.747-4.454-5.125-4.454c-3.386,0-5.108,4.409-5.126,4.453l-0.468-0.178
		c0.074-0.195,1.868-4.775,5.594-4.775c3.724,0,5.519,4.58,5.592,4.775L22.943,137.677z"/>
</g>
<g>
	<path fill="#010202" d="M17.999,223.14c-4.282,0-7.766-3.483-7.766-7.767s3.483-7.767,7.766-7.767c4.283,0,7.768,3.483,7.768,7.767
		S22.282,223.14,17.999,223.14 M17.999,208.306c-3.896,0-7.066,3.171-7.066,7.067s3.17,7.067,7.066,7.067s7.068-3.171,7.068-7.067
		S21.896,208.306,17.999,208.306"/>
	<polygon fill="#010202" points="17.999,208.462 14.443,203.531 21.555,203.531 	"/>
	<polygon fill="#FFFFFF" points="15.811,204.23 17.999,207.265 20.188,204.23 	"/>
</g>
<g>
	<path fill="#010202" d="M13.676,678c-2.169,0-3.78-1.08-3.847-1.126l-0.202-0.138l0.06-0.237c0.626-2.474,1.005-3.935,1.255-4.901
		c0.401-1.545,0.475-1.823,0.711-2.983c0.237-1.16,0.274-3.509,0.313-5.996c0.039-2.494,0.08-5.074,0.328-6.75
		c0.495-3.338,1.664-5.664,1.713-5.761l0.124-0.246l0.269,0.063c0.013,0.003,1.223,0.284,3.125,0.284l0.328-0.002
		c2.111-0.035,3.472-0.289,3.485-0.292l0.254-0.049l0.121,0.229c0.051,0.098,1.255,2.417,1.783,5.751
		c0.265,1.673,0.33,4.251,0.395,6.744c0.064,2.487,0.125,4.837,0.373,5.995c0.249,1.159,0.324,1.438,0.741,2.982
		c0.261,0.964,0.655,2.421,1.306,4.884l0.063,0.236l-0.202,0.14c-0.067,0.048-1.698,1.162-3.894,1.162
		c-1.908-0.015-3.771-0.776-4.311-1.016c-0.601,0.27-2.383,0.995-4.185,1.024L13.676,678z M10.429,676.42
		c0.475,0.269,1.722,0.881,3.247,0.88h0.095c1.632-0.027,3.265-0.678,3.865-0.944c-0.259-1.375-1.305-7.07-1.238-9.473
		c0.059-2.082,0.521-4.988,0.856-7.111c0.099-0.628,0.187-1.177,0.246-1.597l0.045-0.315l0.604,0.028l0.127,0.288
		c0.068,0.448,0.172,1.046,0.29,1.731c0.361,2.09,0.856,4.952,0.936,6.99c0.092,2.405-0.908,8.162-1.145,9.484
		c0.603,0.26,2.24,0.896,3.875,0.908c1.584,0,2.855-0.634,3.334-0.91c-0.609-2.31-0.984-3.697-1.236-4.629
		c-0.422-1.561-0.497-1.841-0.749-3.018c-0.265-1.222-0.326-3.604-0.39-6.124c-0.063-2.471-0.129-5.025-0.388-6.653
		c-0.417-2.635-1.293-4.654-1.6-5.309c-0.503,0.077-1.69,0.231-3.34,0.259l-0.34,0.003c-1.468,0-2.528-0.157-3.007-0.246
		c-0.304,0.67-1.142,2.687-1.531,5.309c-0.241,1.63-0.281,4.186-0.32,6.658c-0.039,2.52-0.077,4.9-0.327,6.125
		c-0.242,1.179-0.315,1.459-0.719,3.019C11.379,672.706,11.017,674.101,10.429,676.42 M17.9,660.162
		c-0.329,2.073-0.749,4.793-0.804,6.74c-0.048,1.712,0.497,5.202,0.893,7.476c0.371-2.271,0.878-5.753,0.813-7.453
		C18.728,664.977,18.256,662.22,17.9,660.162"/>
	<path fill="#010202" d="M17.946,651.958c-2.511,0-3.832-0.409-3.887-0.427l0.106-0.334c0.012,0.004,1.33,0.411,3.78,0.411
		c2.441,0,3.692-0.468,3.706-0.473l0.125,0.326C21.725,651.482,20.463,651.958,17.946,651.958"/>
</g>
<path fill="#010202" d="M19.036,186.93c-0.493,0-0.822-0.012-1.008-0.037c-1.265-0.17-3.343-2.043-4.023-4.113
	c-0.712-2.168-2.421-5.183-3.128-5.183c-0.021,0-0.069,0-0.145,0.1c-0.668,0.888-0.441,5.403-0.141,8.042l0.05,0.439l-2.148-0.262
	H8.49c-0.279,0-0.302-0.318-0.311-0.439c-0.123-1.656-0.373-4.885-0.659-7.875c-0.04-0.422-0.09-0.855-0.142-1.288
	c-0.183-1.584-0.355-3.08-0.082-4.042c1.021-3.594,3.376-4.508,3.476-4.545l0.315-0.117l0.13,0.311c0,0,1.438,3.464,2.221,5.414
	c0.164,0.408,0.36,0.937,0.58,1.528c0.787,2.119,1.976,5.319,2.964,6.231c2.09,1.92,3.119,2.207,3.544,2.207
	c0.156,0,0.282-0.035,0.385-0.105c0.927-0.643,1.577-1.787,1.584-1.799l0.177-0.314l5.785,3.5c0.267,0.287,0.607,0.918,0.201,1.459
	C28.115,186.766,19.126,186.93,19.036,186.93 M10.876,176.897c1.576,0,3.504,4.783,3.793,5.664c0.623,1.895,2.523,3.514,3.454,3.639
	c0.085,0.012,0.315,0.031,0.912,0.031c2.93,0,8.593-0.379,9.122-0.666c0.079-0.125-0.113-0.383-0.188-0.475l-5.056-3.045
	c-0.281,0.428-0.854,1.205-1.604,1.725c-0.222,0.154-0.485,0.23-0.783,0.23h-0.001c-0.938,0-2.291-0.805-4.018-2.391
	c-1.112-1.025-2.288-4.192-3.147-6.504c-0.216-0.585-0.41-1.107-0.572-1.51c-0.633-1.576-1.693-4.142-2.076-5.063
	c-0.621,0.354-2.025,1.403-2.742,3.931c-0.237,0.828-0.064,2.324,0.103,3.771c0.051,0.437,0.102,0.875,0.143,1.302
	c0.277,2.898,0.52,6.016,0.646,7.721l0.986,0.119c-0.169-1.652-0.613-6.854,0.322-8.099
	C10.407,176.963,10.685,176.897,10.876,176.897"/>
<g>
	<path fill="#010202" d="M10.658,54.798c-1.552,0-2.949-0.779-4.042-2.254c-1.625-2.19-2.191-5.337-1.852-6.457
		c0.411-1.357,4.445-1.463,5.671-1.463c2.321,0,5.136,0.323,6.076,1.232c0.749,0.723,0.76,2.298,0.028,4.112
		C15.568,52.372,13.374,54.798,10.658,54.798 M10.436,45.323c-3.212,0-4.883,0.577-5.001,0.967
		c-0.258,0.851,0.221,3.784,1.742,5.837c0.971,1.308,2.142,1.972,3.481,1.972c2.389,0,4.35-2.207,5.231-4.394
		c0.595-1.473,0.65-2.849,0.136-3.345C15.395,45.75,13.096,45.323,10.436,45.323"/>
	<path fill="#010202" d="M25.007,54.798c-2.716,0-4.911-2.426-5.882-4.831c-0.731-1.813-0.722-3.389,0.027-4.11
		c0.94-0.909,3.756-1.232,6.076-1.232c1.227,0,5.26,0.105,5.671,1.463c0.34,1.12-0.226,4.267-1.851,6.457
		C27.956,54.019,26.558,54.798,25.007,54.798 M25.229,45.323c-2.66,0-4.959,0.427-5.59,1.037c-0.514,0.496-0.459,1.872,0.136,3.345
		c0.882,2.187,2.844,4.394,5.232,4.394c1.339,0,2.51-0.664,3.48-1.972c1.521-2.053,2-4.986,1.742-5.837
		C30.111,45.9,28.44,45.323,25.229,45.323"/>
	<rect x="16.644" y="48.43" fill="#010202" width="2.511" height="0.698"/>
	<rect x="3.554" y="48.43" fill="#010202" width="1.976" height="0.698"/>
	<rect x="30.471" y="48.43" fill="#010202" width="1.976" height="0.698"/>
</g>
<g>
	<path fill="#010202" d="M24.234,502.666h-5.125l-0.025-0.323c-0.008-0.09-0.689-9.024-0.787-10.976
		c-0.039-0.793-0.164-1.926-0.297-2.987c-0.09,0.999-0.168,2.055-0.191,2.82c-0.059,1.952-0.563,11.044-0.568,11.136l-0.018,0.33
		h-5.127l-0.037-0.31c-0.006-0.058-0.676-5.842-0.777-8.837l-0.047-1.362c-0.107-3.022-0.256-7.162-0.127-9.379
		c0.18-3.05,0.955-5.439,0.988-5.541l0.098-0.294l0.305,0.062c0.029,0.006,2.979,0.595,5.443,0.595c2.467,0,5.383-0.589,5.412-0.595
		l0.303-0.062l0.1,0.293c0.035,0.101,0.836,2.514,1.074,5.559c0.174,2.222,0.107,6.414,0.059,9.475l-0.021,1.333
		c-0.039,2.996-0.596,8.691-0.602,8.748L24.234,502.666z M19.758,501.967H23.6c0.117-1.238,0.535-5.813,0.57-8.374l0.02-1.334
		c0.047-3.047,0.115-7.22-0.057-9.409c-0.186-2.358-0.732-4.37-0.949-5.099c-0.83,0.153-3.156,0.548-5.242,0.548
		s-4.432-0.395-5.27-0.548c-0.209,0.726-0.727,2.717-0.865,5.068c-0.127,2.184,0.02,6.304,0.127,9.313l0.049,1.364
		c0.086,2.569,0.598,7.23,0.736,8.471h3.842c0.092-1.66,0.496-9.057,0.549-10.788c0.059-1.962,0.48-5.772,0.486-5.812l0.293-2.641
		l0.4,2.627c0.025,0.163,0.609,4.015,0.705,5.979C19.084,493.063,19.633,500.339,19.758,501.967"/>
	<rect x="17.799" y="479.34" fill="#010202" width="0.35" height="5.971"/>
	<path fill="#010202" d="M11.621,481.839l-0.08-0.342c0.01-0.002,0.922-0.22,1.656-0.921c0.746-0.711,1.143-1.628,1.146-1.637
		l0.322,0.137c-0.018,0.041-0.43,0.993-1.229,1.754C12.633,481.599,11.662,481.829,11.621,481.839"/>
	<path fill="#010202" d="M24.404,481.839c-0.041-0.01-1.014-0.24-1.818-1.009c-0.799-0.761-1.211-1.713-1.229-1.754l0.322-0.137
		c0.004,0.009,0.402,0.928,1.148,1.637c0.734,0.701,1.645,0.919,1.654,0.921L24.404,481.839z"/>
	<path fill="#010202" d="M17.975,479.515c-2.801,0-5.732-0.717-5.762-0.724l0.084-0.339c0.029,0.006,2.922,0.713,5.678,0.713
		c2.76,0,5.68-0.707,5.707-0.713l0.084,0.339C23.736,478.798,20.775,479.515,17.975,479.515"/>
</g>
<g>
	<path fill="#010202" d="M17.593,378.694c-6.016,0-9.207-1.147-9.34-1.196l-0.224-0.082l-0.005-0.237
		c-0.002-0.064-0.156-6.555,0.813-11.055c0.904-4.213,3.027-8.991,3.315-9.627v-1.822l6.072,0.272l-0.031,0.699l-5.342-0.239
		l-0.031,1.313c-0.023,0.051-2.349,5.127-3.299,9.551c-0.845,3.928-0.82,9.424-0.802,10.645c0.823,0.254,3.877,1.08,8.873,1.08
		c5.057,0,8.704-0.71,9.679-0.921c0.028-1.312,0.1-7.11-0.74-11.027c-0.953-4.43-3.021-9.287-3.042-9.336l-0.028-0.138v-1.166
		l-5.202,0.239l-0.031-0.699l5.933-0.272v1.827c0.255,0.605,2.149,5.188,3.054,9.398c0.967,4.501,0.753,11.398,0.75,11.467
		l-0.009,0.266l-0.257,0.063C27.658,377.705,23.588,378.694,17.593,378.694"/>
	<rect x="12.644" y="356.693" fill="#010202" width="10.558" height="0.25"/>
</g>
<g>
	<path fill="#010202" d="M17.905,12.144l-0.137-0.441l-4.159-1.804l-0.266-2.521L9.352,6.445l0.138-0.372
		c0.024-0.071,0.654-1.762,1.95-3.446c1.323-1.72,3.081-2.428,3.155-2.457l0.341-0.135l0.119,0.347
		c0.009,0.026,0.899,2.632,1.369,4.365c0.325,1.201,1.084,3.711,1.517,5.13c0.479-1.415,1.318-3.93,1.642-5.129
		c0.472-1.735,1.363-4.34,1.371-4.366L21.084,0l0.358,0.184c0.108,0.055,2.67,1.368,3.567,2.787c0.869,1.37,1.483,3.033,1.509,3.103
		l0.138,0.372l-3.993,0.932L22.399,9.9l-4.354,1.835L17.905,12.144z M21.481,1.001c-0.266,0.792-0.866,2.617-1.224,3.93
		c-0.405,1.501-1.561,4.906-1.907,5.916l3.396-1.431l0.272-2.607l3.699-0.863c-0.228-0.563-0.709-1.668-1.3-2.6
		C23.806,2.379,22.201,1.404,21.481,1.001 M14.263,9.418l3.234,1.403c-0.313-1.022-1.352-4.422-1.749-5.891
		c-0.358-1.324-0.968-3.173-1.23-3.952c-0.545,0.279-1.65,0.941-2.523,2.076c-0.879,1.144-1.445,2.314-1.697,2.893l3.692,0.861
		L14.263,9.418z"/>
	<path fill="#010202" d="M18.24,28.023c-3.003,0-7.459-0.797-7.646-0.83l-0.266-0.047l-0.022-0.268c0,0-0.187-2.205-0.236-3.148
		c-0.039-0.74-0.005-2.736,0.014-3.613c-0.367,0.045-0.906,0.068-1.353-0.061c-0.669-0.197-1.285-0.391-1.285-0.391l-0.281-0.088
		l0.039-0.291c0.006-0.041,0.555-4.174,1.103-7.193C8.86,9.053,9.843,6.166,9.852,6.137l0.662,0.227
		c-0.009,0.028-0.975,2.868-1.518,5.855c-0.462,2.538-0.924,5.871-1.059,6.865c0.24,0.076,0.607,0.188,0.99,0.301
		c0.569,0.166,1.432-0.018,1.44-0.02l0.436-0.094l-0.011,0.443c0,0.031-0.072,3.064-0.023,3.979
		c0.039,0.736,0.161,2.242,0.212,2.857c1.015,0.172,4.729,0.773,7.259,0.773c2.509,0,5.841-0.592,6.783-0.77
		c0.051-0.609,0.174-2.125,0.214-2.861c0.049-0.914-0.021-3.947-0.021-3.979l-0.012-0.443l0.435,0.094
		c0.008,0.002,0.869,0.186,1.439,0.02c0.389-0.115,0.758-0.227,0.997-0.301c-0.104-0.959-0.444-4.086-0.618-5.605
		c-0.203-1.75-1.986-6.935-2.005-6.986l0.662-0.229c0.074,0.216,1.825,5.309,2.037,7.135c0.207,1.811,0.65,5.895,0.65,5.895
		l0.032,0.287l-0.275,0.086c0,0-0.615,0.193-1.284,0.391c-0.445,0.129-0.981,0.105-1.351,0.061c0.017,0.877,0.051,2.873,0.012,3.613
		c-0.051,0.943-0.237,3.148-0.237,3.148l-0.022,0.262l-0.256,0.051C25.251,27.227,21.244,28.023,18.24,28.023"/>
	<path fill="#010202" d="M10.617,19.715l-0.35-0.014c0.001-0.033,0.143-3.383,1.053-8.546l0.344,0.061
		C10.761,16.354,10.618,19.682,10.617,19.715"/>
	<path fill="#010202" d="M25.312,19.863c-0.002-0.035-0.273-3.506-1.179-8.647l0.344-0.061c0.908,5.159,1.183,8.646,1.186,8.681
		L25.312,19.863z"/>
	<rect x="17.771" y="11.397" fill="#010202" width="0.35" height="16.274"/>
</g>
<g>
	<path fill="#010202" d="M27.119,588.918c-0.877,0-1.545-0.18-1.58-0.191l-0.223-0.061l-1.287-9.182l0.693-0.098l1.223,8.715
		c0.359,0.072,1.115,0.184,1.91,0.064c0.809-0.117,1.525-0.361,1.873-0.494c-0.111-2.283-0.975-19.486-1.66-21.715
		c-0.561-1.827-4.246-2.641-5.619-2.8l-4.577,0.16l-4.086-0.295c-1.346,0.19-5.151,1.085-5.723,2.912
		c-0.699,2.225-1.664,19.421-1.789,21.706c0.347,0.133,1.063,0.381,1.871,0.506c0.793,0.117,1.54,0.016,1.903-0.053l1.042-8.947
		l0.695,0.08l-1.099,9.432l-0.229,0.061c-0.046,0.014-1.158,0.311-2.418,0.119c-1.228-0.188-2.229-0.631-2.272-0.648l-0.219-0.098
		l0.013-0.24c0.043-0.803,1.063-19.672,1.834-22.127c0.82-2.624,6.144-3.366,6.369-3.396l4.121,0.291l4.591-0.159
		c0.273,0.027,5.453,0.657,6.262,3.292c0.756,2.459,1.664,21.334,1.701,22.137l0.012,0.24l-0.221,0.096
		c-0.041,0.02-1.045,0.457-2.273,0.635C27.666,588.902,27.383,588.918,27.119,588.918"/>
	<path fill="#010202" d="M18.015,585.082l-6.424-0.242l-0.015-0.322c-0.002-0.043-0.201-4.279-0.559-6.785
		c-0.359-2.499-1.84-7.574-1.854-7.625l0.672-0.197c0.062,0.21,1.509,5.175,1.876,7.723c0.304,2.133,0.494,5.486,0.549,6.531
		l5.755,0.219l5.745-0.219c0.045-1.049,0.209-4.396,0.527-6.529c0.379-2.543,1.791-7.494,1.852-7.704l0.674,0.193
		c-0.016,0.051-1.461,5.116-1.834,7.614c-0.373,2.504-0.531,6.734-0.533,6.775l-0.012,0.326L18.015,585.082z"/>
	<path fill="#010202" d="M18.084,566.097c-3.272,0-4.546-3.16-4.599-3.294l0.652-0.256c0.046,0.116,1.157,2.851,3.946,2.851
		c2.813,0,4.074-2.705,4.086-2.732l0.637,0.289C22.75,563.083,21.342,566.097,18.084,566.097"/>
	<path fill="#010202" d="M18.081,566.99c-3.54,0-5.07-3.274-5.085-3.308l0.318-0.145c0.015,0.03,1.455,3.103,4.767,3.103
		c3.315,0,4.806-2.815,4.821-2.844l0.311,0.16C23.197,563.987,21.615,566.99,18.081,566.99"/>
	<rect x="17.709" y="566.748" fill="#010202" width="0.35" height="17.936"/>
</g>
<path fill="#010202" d="M15.76,82.574l-0.105-0.166c-0.016-0.025-1.633-2.531-3.949-3.531c-2.375-1.028-6.148-1.599-6.187-1.604
	l-0.302-0.046l0.075-5.826l0.394,0.056c0.065,0.01,6.592,0.923,12.514,0.923c5.92,0,12.051-0.913,12.111-0.922l0.396-0.06
	l0.076,5.862l-0.338,0.016c-0.033,0.002-3.254,0.165-5.535,1.368c-2.285,1.207-4.191,3.689-4.211,3.715l-0.102,0.135L15.76,82.574z
	 M5.924,76.629c0.961,0.158,3.971,0.702,6.059,1.605c2.184,0.943,3.734,3.025,4.152,3.633l4.113-0.068
	c0.445-0.555,2.203-2.648,4.336-3.773c1.998-1.056,4.574-1.351,5.49-1.426l-0.057-4.394c-1.461,0.201-6.717,0.873-11.818,0.873
	c-5.133,0-10.709-0.679-12.218-0.876L5.924,76.629z"/>
<g>
	<path fill="#010202" d="M19.217,261.344l-1.357-5.267l-1.233,5.225l-0.295-0.019c-0.028-0.002-2.919-0.193-5.508-0.647
		l-6.005-1.049l0.02-0.314c0.005-0.055,0.373-5.498,1.274-9.454c0.9-3.96,3.045-9.511,3.066-9.566l0.117-0.306l0.314,0.099
		c0.039,0.013,4.017,1.252,7.659,1.252c3.648,0,8.22-1.44,8.265-1.455l0.321-0.102l0.113,0.317c0.022,0.058,2.072,5.787,2.969,8.834
		c0.897,3.053,2.164,9.278,2.177,9.341l0.067,0.338l-0.336,0.073c0,0-2.891,0.634-5.601,1.264c-2.71,0.634-5.692,1.355-5.692,1.355
		L19.217,261.344z M5.561,259.006l5.384,0.94c2.07,0.363,4.342,0.556,5.137,0.616l1.747-7.405l1.895,7.345
		c0.854-0.206,3.195-0.77,5.362-1.276c2.16-0.502,4.433-1.006,5.274-1.191c-0.277-1.339-1.324-6.329-2.094-8.945
		c-0.77-2.617-2.401-7.238-2.844-8.48c-1.125,0.336-4.923,1.388-8.145,1.388c-3.196,0-6.531-0.89-7.563-1.188
		c-0.457,1.208-2.151,5.783-2.922,9.164C6.03,253.333,5.653,257.796,5.561,259.006"/>
	<path fill="#010202" d="M17.708,244.419c-5.058,0-9.306-1.487-9.348-1.502l0.118-0.33c0.041,0.015,4.235,1.482,9.229,1.482
		c4.993,0,9.053-1.467,9.093-1.481l0.121,0.328C26.881,242.932,22.766,244.419,17.708,244.419"/>
	<path fill="#010202" d="M7.221,247.379l-0.035-0.348c0.028-0.003,2.922-0.34,4.838-3.388l0.297,0.186
		C10.31,247.029,7.346,247.367,7.221,247.379"/>
	<path fill="#010202" d="M28.041,247.287c-0.035-0.001-3.688-0.135-5.187-3.479l0.321-0.143c1.406,3.145,4.841,3.271,4.875,3.271
		L28.041,247.287z"/>
</g>
<g>
	<path fill="none" stroke="#010202" stroke-width="0.7" stroke-linejoin="round" stroke-miterlimit="10" d="M12.188,418.815
		l-2.896,0.271c0,0-0.162-0.416-0.355-0.609c-0.195-0.193-0.631-0.659-0.631-0.659s0.137-8.208,0.137-10.082
		c0-1.873,0.393-5.751,0.779-6.72c0.406-1.016,4.613-2.888,4.695-3.513c0.084-0.625-0.494-0.451-0.451-1.098
		c0.043-0.646,0.369-0.903,0.785-0.944c0.416-0.042,1.912,0.6,3.5,0.557s2.709-0.724,3.25-0.724s0.834,0.583,0.75,1.042
		c-0.084,0.458-0.611,0.32-0.576,0.931c0.035,0.611,5.23,2.777,5.617,3.746c0.389,0.969,0.775,4.844,0.775,6.717
		c0,1.872,0.129,10.074,0.129,10.074s-0.451,0.452-0.645,0.646c-0.193,0.193-0.389,0.581-0.389,0.581l-2.537-0.217"/>
	<path fill="none" stroke="#010202" stroke-width="0.7" stroke-linejoin="round" stroke-miterlimit="10" d="M24.402,404.178
		c0,0,0.322,4.134,0.387,6.781c0.066,2.648,0.258,5.975-0.516,7.137c-0.775,1.162-1.033,1.389-1.033,1.389H12.777
		c0,0-0.258-0.227-1.033-1.389s-0.582-4.537-0.518-7.186c0.064-2.647,0.389-6.757,0.389-6.757"/>
	<path fill="none" stroke="#010202" stroke-width="0.35" stroke-miterlimit="10" d="M12.992,414.921c0,0,1.895-1.852,2.283-3.272"/>
	<path fill="none" stroke="#010202" stroke-width="0.35" stroke-miterlimit="10" d="M23.541,414.921c0,0-1.895-1.852-2.283-3.272"/>
</g>
<g>
	<path fill="#010202" d="M18.369,545.728c-3.309,0-7.564-1.664-7.744-1.735l-0.307-0.119l0.102-0.314
		c0.012-0.036,1.189-3.666,1.383-6.108c0.195-2.439-0.65-6.951-0.658-6.997l0.688-0.131c0.035,0.189,0.871,4.651,0.668,7.184
		c-0.168,2.121-1.016,4.994-1.313,5.951c1.035,0.379,4.5,1.571,7.182,1.571c2.643,0,5.549-1.162,6.447-1.552
		c-0.307-0.949-1.217-3.893-1.387-6.031c-0.205-2.535,0.703-6.942,0.742-7.129l0.684,0.143c-0.01,0.045-0.924,4.497-0.729,6.93
		c0.195,2.443,1.439,6.129,1.451,6.166l0.102,0.295l-0.281,0.134C25.248,544.055,21.689,545.728,18.369,545.728"/>
	<polygon fill="#010202" points="17.996,532.421 13.377,528.737 14.518,526.663 11.318,523.898 13.621,519.375 14.244,519.693 
		12.191,523.727 15.404,526.505 14.275,528.558 17.996,531.526 21.727,528.558 20.598,526.505 23.811,523.729 21.732,519.719 
		22.354,519.396 24.684,523.896 21.484,526.663 22.625,528.737 	"/>
	<path fill="#010202" d="M17.998,531.915l-4.395-12.263l0.658-0.236l3.678,10.259c1.24-3.855,3.752-10.177,3.779-10.246l0.65,0.259
		c-0.031,0.075-3.018,7.596-4.068,11.192L17.998,531.915z"/>
	<path fill="#010202" d="M25.018,542.754l-0.072-0.494l3.313-0.483c-0.057-0.988-0.299-4.973-0.586-7.753
		c-0.064-0.622-0.139-1.422-0.223-2.313c-0.291-3.138-0.834-8.977-1.322-9.541c-0.506-0.584-3.057-1.854-4.105-2.346
		c-0.389,0.103-1.943,0.475-4.031,0.475c-2.084,0-3.641-0.39-4.035-0.498c-1.043,0.499-3.576,1.785-4.08,2.369
		c-0.488,0.563-1.031,6.4-1.324,9.536c-0.082,0.894-0.156,1.693-0.221,2.317c-0.289,2.78-0.531,6.765-0.588,7.753l3.314,0.483
		l-0.072,0.494l-3.768-0.548l0.012-0.229c0.004-0.048,0.273-4.813,0.602-8.005c0.066-0.622,0.141-1.422,0.223-2.313
		c0.465-4.996,0.895-9.184,1.441-9.816c0.684-0.79,3.961-2.359,4.332-2.535l0.086-0.042l0.094,0.028
		c0.016,0.005,1.693,0.504,3.984,0.504c2.299,0,3.967-0.476,3.984-0.48l0.09-0.026l0.084,0.04c0.375,0.174,3.674,1.721,4.357,2.512
		c0.547,0.633,0.977,4.822,1.441,9.82c0.084,0.89,0.158,1.688,0.223,2.309c0.328,3.191,0.598,7.957,0.602,8.005l0.012,0.229
		L25.018,542.754z"/>
	<rect x="17.852" y="531.69" fill="#010202" width="0.35" height="13.938"/>
</g>
<g>
	<path fill="#010202" d="M12.871,115.399c-2.7,0-4.97-1.679-5.065-1.75l-0.271-0.203l5.15-7.411l5.268,7.461l-0.254,0.206
		C17.613,113.771,15.578,115.399,12.871,115.399 M8.505,113.278c0.663,0.426,2.421,1.422,4.366,1.422c1.93,0,3.516-0.937,4.121-1.35
		l-4.303-6.095L8.505,113.278z"/>
	<rect x="12.297" y="99.175" fill="#010202" width="0.699" height="7.471"/>
	<path fill="#010202" d="M23.33,115.399c-2.701,0-4.971-1.679-5.066-1.75l-0.27-0.203l5.15-7.411l5.268,7.461l-0.254,0.206
		C28.072,113.771,26.037,115.399,23.33,115.399 M18.963,113.278c0.664,0.426,2.422,1.422,4.367,1.422c1.93,0,3.516-0.937,4.121-1.35
		l-4.303-6.095L18.963,113.278z"/>
	<rect x="22.818" y="99.175" fill="#010202" width="0.699" height="7.471"/>
	<rect x="17.189" y="113.02" fill="#010202" width="1.373" height="0.699"/>
	<path fill="#010202" d="M3.226,116.122c-1.597,0-2.254-1.658-2.282-1.731l0.653-0.253c0.022,0.057,0.56,1.385,1.77,1.278
		c0.483-0.04,0.566-0.278,0.64-1.203c0.05-0.629,0.111-1.411,0.616-2.042c0.253-0.316,0.596-0.492,0.99-0.508
		c1.143-0.07,2.514,1.329,2.663,1.486l-0.509,0.48c-0.345-0.361-1.437-1.31-2.127-1.268c-0.193,0.008-0.343,0.086-0.471,0.246
		c-0.37,0.463-0.419,1.071-0.466,1.66c-0.062,0.779-0.139,1.75-1.278,1.845C3.356,116.119,3.291,116.122,3.226,116.122"/>
	<path fill="#010202" d="M32.773,116.121c-0.064,0-0.131-0.003-0.199-0.009c-1.139-0.095-1.217-1.065-1.277-1.845
		c-0.047-0.589-0.096-1.197-0.467-1.66c-0.127-0.16-0.277-0.238-0.471-0.246c-0.012-0.001-0.023-0.001-0.035-0.001
		c-0.729,0-1.752,0.911-2.092,1.269l-0.508-0.48c0.148-0.157,1.516-1.557,2.662-1.486c0.395,0.016,0.738,0.191,0.99,0.508
		c0.506,0.631,0.566,1.413,0.617,2.042c0.072,0.925,0.156,1.163,0.639,1.203c1.211,0.107,1.764-1.263,1.77-1.277l0.654,0.252
		C35.027,114.463,34.371,116.121,32.773,116.121"/>
</g>
<g>
	
		<rect x="14.166" y="287.819" fill="none" stroke="#010202" stroke-width="0.7" stroke-linejoin="round" stroke-miterlimit="10" width="7.668" height="11.751"/>
	
		<rect x="15.166" y="284.319" fill="none" stroke="#010202" stroke-width="0.7" stroke-linejoin="round" stroke-miterlimit="10" width="5.668" height="3.5"/>
	<path fill="none" stroke="#010202" stroke-width="0.7" stroke-linejoin="round" stroke-miterlimit="10" d="M19.646,284.173v-3.354
		c0-1.101-0.74-2.875-1.646-2.875s-1.646,1.774-1.646,2.875v3.354"/>
</g>
<g>
	<path fill="#010202" d="M10.8,460.343l-1.202-2.531c-0.243,0.055-0.667,0.172-1.026,0.279l-0.354,0.105l-0.087-0.357
		c-0.047-0.193-0.125-0.412-0.175-0.5c-0.269-0.109-0.489-0.266-0.656-0.469c-0.565-0.684-0.29-2.23,0.001-3.867
		c0.105-0.592,0.206-1.152,0.253-1.623c0.149-1.48,2.551-12.199,3.527-13.505c0.953-1.277,3.493-1.701,3.602-1.719l0.413-0.066
		l-0.009,0.418c0,0.035-0.059,3.485,0.119,5.527c0.168,1.931,0.956,7.401,1.293,9.737l0.065,0.453c0.275,1.92,0.8,6.436,0.805,6.482
		l0.037,0.32L10.8,460.343z M9.774,457.079h0.196l0.135,0.176l1.093,2.295l5.438-1.082c-0.125-1.068-0.534-4.531-0.766-6.143
		l-0.064-0.453c-0.338-2.342-1.128-7.825-1.298-9.776c-0.146-1.662-0.137-4.16-0.126-5.164c-0.714,0.165-2.158,0.582-2.741,1.362
		c-0.791,1.058-3.209,11.34-3.391,13.156c-0.051,0.498-0.152,1.07-0.261,1.676c-0.215,1.209-0.51,2.863-0.15,3.299
		c0.101,0.121,0.242,0.217,0.42,0.281c0.077,0.027,0.27,0.098,0.449,0.615C9.117,457.204,9.601,457.079,9.774,457.079"/>
	<path fill="#010202" d="M10.085,457.413l-0.35-0.008c0.001-0.033,0.081-3.43,0.384-6.287c0.303-2.855,0.915-6.698,0.921-6.736
		l0.346,0.055c-0.006,0.04-0.617,3.874-0.919,6.719C10.166,453.997,10.086,457.38,10.085,457.413"/>
	<path fill="#010202" d="M25.2,460.343l-6.606-1.314l0.037-0.32c0.004-0.047,0.529-4.563,0.805-6.482l0.065-0.453
		c0.337-2.336,1.125-7.807,1.293-9.737c0.178-2.042,0.118-5.492,0.118-5.527l-0.008-0.418l0.413,0.066
		c0.108,0.018,2.648,0.441,3.602,1.72c0.977,1.305,3.378,12.023,3.527,13.504c0.047,0.471,0.147,1.031,0.253,1.623
		c0.291,1.637,0.566,3.184,0,3.867c-0.167,0.203-0.387,0.361-0.655,0.469c-0.05,0.088-0.128,0.307-0.175,0.5l-0.087,0.357
		l-0.354-0.105c-0.359-0.107-0.783-0.225-1.028-0.279L25.2,460.343z M19.363,458.468l5.438,1.082l1.171-2.463l0.254-0.008
		c0.174,0,0.657,0.125,1.065,0.242c0.181-0.518,0.371-0.588,0.451-0.615c0.176-0.064,0.317-0.16,0.417-0.281
		c0.36-0.436,0.065-2.09-0.149-3.299c-0.108-0.605-0.21-1.178-0.261-1.676c-0.182-1.816-2.6-12.099-3.391-13.155
		c-0.583-0.781-2.027-1.198-2.741-1.363c0.011,1.004,0.02,3.501-0.126,5.164c-0.17,1.951-0.96,7.435-1.298,9.776l-0.064,0.453
		C19.897,453.937,19.488,457.399,19.363,458.468"/>
	<path fill="#010202" d="M25.915,457.413c-0.001-0.033-0.081-3.416-0.382-6.258c-0.302-2.846-0.913-6.679-0.919-6.719l0.346-0.055
		c0.006,0.038,0.618,3.881,0.921,6.736c0.303,2.857,0.383,6.254,0.384,6.287L25.915,457.413z"/>
	<rect x="16.929" y="458.368" fill="#010202" width="2.133" height="0.699"/>
	<rect x="14.93" y="436.085" fill="#010202" width="6.094" height="0.5"/>
</g>
<g>
	<path fill="#010202" d="M16.334,612.638l-0.24-0.277c-0.01-0.012-1.033-1.193-1.834-2.241c-0.805-1.049-1.357-1.763-1.357-1.764
		l-0.211-0.271l3.168-2.565l0.121,0.554c0.004,0.017,0.375,1.685,0.922,2.507c0.572,0.858,1.361,1.731,1.367,1.739l0.23,0.253
		L16.334,612.638z M13.666,608.198c0.23,0.3,0.641,0.83,1.148,1.495c0.557,0.727,1.223,1.521,1.57,1.93l1.141-1.09
		c-0.285-0.333-0.791-0.944-1.205-1.564c-0.412-0.62-0.721-1.597-0.887-2.203L13.666,608.198z"/>
	<path fill="#010202" d="M7.01,629.664l-0.697-0.055l0.256-3.235c0.061-0.587,1.492-14.174,1.965-15.531
		c0.504-1.447,4.305-2.899,4.736-3.061l0.244,0.656c-1.512,0.563-4.021,1.776-4.318,2.635c-0.373,1.063-1.52,11.452-1.932,15.364
		L7.01,629.664z"/>
	<path fill="#010202" d="M18.412,633.261c-0.104,0-2.531-0.004-4.633-0.369c-2.105-0.366-4.291-1.194-4.385-1.229l-0.277-0.106
		l0.061-0.292c0.012-0.055,1.143-5.473,1.391-8.389c0.248-2.904-0.248-7.588-0.254-7.636l0.697-0.073
		c0.021,0.194,0.508,4.798,0.254,7.77c-0.219,2.559-1.1,6.991-1.342,8.174c0.658,0.234,2.365,0.813,3.975,1.093
		c2.043,0.354,4.49,0.359,4.514,0.359V633.261z"/>
	<polygon fill="#010202" points="9.516,631.685 5.701,631.618 5.521,629.214 9.533,629.347 9.51,630.046 6.277,629.938 
		6.352,630.929 9.527,630.985 	"/>
	<path fill="#010202" d="M19.662,612.638l-2.162-2.065l0.229-0.253c0.008-0.008,0.797-0.881,1.365-1.738
		c0.551-0.823,0.92-2.491,0.924-2.508l0.123-0.555l2.936,2.386l-0.109,0.246c-0.018,0.036-0.408,0.898-1.229,1.969
		c-0.801,1.048-1.824,2.229-1.834,2.241L19.662,612.638z M18.473,610.533l1.143,1.09c0.346-0.409,1.012-1.203,1.568-1.93
		c0.52-0.679,0.859-1.275,1.023-1.592l-1.641-1.335c-0.166,0.606-0.477,1.582-0.889,2.202S18.76,610.2,18.473,610.533"/>
	<path fill="#010202" d="M28.99,629.664l-0.256-3.235c-0.41-3.903-1.557-14.292-1.93-15.355c-0.299-0.861-2.705-2.094-4.148-2.668
		l0.258-0.65c0.414,0.164,4.049,1.645,4.553,3.088c0.475,1.357,1.904,14.944,1.963,15.522l0.256,3.244L28.99,629.664z"/>
	<path fill="#010202" d="M17.586,633.261v-0.699c0.023,0,2.475-0.005,4.516-0.359c1.609-0.28,3.316-0.858,3.973-1.093
		c-0.24-1.183-1.121-5.615-1.342-8.174c-0.252-2.972,0.234-7.575,0.256-7.77l0.695,0.073c-0.004,0.048-0.5,4.732-0.252,7.636
		c0.248,2.916,1.379,8.334,1.389,8.389l0.063,0.292l-0.279,0.106c-0.092,0.035-2.279,0.863-4.383,1.229
		C20.119,633.257,17.689,633.261,17.586,633.261"/>
	<polygon fill="#010202" points="26.484,631.685 26.473,630.985 29.648,630.929 29.721,629.938 26.49,630.046 26.467,629.347 
		30.479,629.214 30.297,631.618 	"/>
	<rect x="17.744" y="610.354" fill="#010202" width="0.5" height="22.594"/>
</g>
</svg>
