<?xml version="1.0" encoding="utf-8"?>
<!-- Generator: Adobe Illustrator 15.0.0, SVG Export Plug-In  -->
<!DOCTYPE svg PUBLIC "-//W3C//DTD SVG 1.1//EN" "http://www.w3.org/Graphics/SVG/1.1/DTD/svg11.dtd" [
	<!ENTITY ns_flows "http://ns.adobe.com/Flows/1.0/">
]>
<svg version="1.1"
	 xmlns="http://www.w3.org/2000/svg" xmlns:xlink="http://www.w3.org/1999/xlink" xmlns:a="http://ns.adobe.com/AdobeSVGViewerExtensions/3.0/"
	 x="0px" y="0px" width="42px" height="42px" viewBox="0 0 42 42" enable-background="new 0 0 42 42" xml:space="preserve">
<defs>
</defs>
<circle fill="#FFFFFF" cx="21" cy="21" r="21"/>
<path fill="#99672B" d="M11.787,2.638c0,0,2.561,5.124,5.548,6.405c2.987,1.281,7.039,1.778,7.609,3.77
	c0.568,1.994,0.215,8.54,1.92,11.313c1.708,2.774,6.759,5.55,6.828,7.827c0.072,2.277-1.422,6.262-1.422,6.262
	s6.543-5.123,7.823-9.533c1.28-4.412,2.275-12.667-1.28-18.501c-3.555-5.835-9.529-9.393-14.082-9.393s-8.393-0.143-9.957,0.427
	C13.209,1.784,11.787,2.638,11.787,2.638"/>
<path fill="#8C6239" d="M13.849,17.544c0-1.139,0.924-2.063,2.063-2.063s2.062,0.924,2.062,2.063c0,1.139-0.923,2.063-2.062,2.063
	S13.849,18.684,13.849,17.544"/>
<g>
	<defs>
		<rect id="SVGID_2_" y="6.194" width="35.456" height="35.506"/>
	</defs>
	<clipPath id="SVGID_3_">
		<use xlink:href="#SVGID_2_"  overflow="visible"/>
	</clipPath>
	<path clip-path="url(#SVGID_3_)" fill="#D88148" d="M21.863,40.006c-11.212-0.072-20.244-9.223-20.17-20.437
		c0.034-5.14,1.975-9.817,5.145-13.375C2.676,9.886,0.041,15.261,0,21.261C-0.071,32.478,8.958,41.627,20.171,41.7
		c6.075,0.04,11.538-2.601,15.285-6.807C31.84,38.103,27.074,40.039,21.863,40.006"/>
</g>
<path d="M27.487,25.158c0,0-0.038,0.063-0.101,0.175c-0.06,0.107-0.175,0.267-0.347,0.41c-0.334,0.315-0.938,0.53-1.552,0.554
	c-0.612,0.026-1.224-0.089-1.664-0.238c-0.443-0.146-0.724-0.31-0.724-0.31l-0.018-0.012c-0.154-0.088-0.205-0.287-0.115-0.44
	s0.287-0.203,0.441-0.115c0.01,0.008,0.023,0.018,0.035,0.027c0,0,0.209,0.165,0.581,0.348c0.371,0.187,0.907,0.368,1.468,0.42
	c0.558,0.054,1.134-0.063,1.485-0.313c0.182-0.115,0.309-0.243,0.384-0.347C27.441,25.215,27.487,25.158,27.487,25.158"/>
<ellipse transform="matrix(-1 -0.0064 0.0064 -1 41.8994 42.1229)" fill="none" stroke="#000000" stroke-miterlimit="10" cx="21.017" cy="20.994" rx="20.483" ry="20.494"/>
<path fill="#D86048" d="M23.664,34.693c-3.324-0.161-4.925-3.611-4.925-3.611s3.574-1.616,4.695-1.335
	c1.12,0.28,1.154,0.791,1.511,0.981c0.355,0.192,1.315-0.715,1.956-0.661c0.64,0.053,1.654,2.082,1.654,2.082
	S26.989,34.854,23.664,34.693"/>
<rect x="15.312" y="11.495" width="0.854" height="2.863"/>
<rect x="11.41" y="13.013" transform="matrix(0.4242 0.9056 -0.9056 0.4242 19.4957 -3.7832)" width="2.626" height="0.853"/>
<rect x="8.977" y="14.298" transform="matrix(0.5473 0.8369 -0.8369 0.5473 16.9681 -1.9189)" width="2.562" height="0.854"/>
<rect x="18.697" y="12.176" transform="matrix(0.931 0.365 -0.365 0.931 6.2691 -6.0446)" width="0.855" height="2.771"/>
<rect x="21.397" y="13.665" transform="matrix(0.7661 0.6428 -0.6428 0.7661 14.7581 -10.5147)" width="0.855" height="2.704"/>
<ellipse fill="none" stroke="#000000" stroke-width="0.75" stroke-miterlimit="10" cx="15.853" cy="17.619" rx="2.319" ry="2.133"/>
<path d="M22.459,17.714c-0.125-0.124-3.087-2.993-6.724-2.993c-2.946,0-5.459,1.895-6.376,2.682c0,0-1.538-1.378-1.584-1.327
	c-0.045,0.05,1.185,1.629,1.635,2.131c0.449,0.502,1.02,1.002,2.097,1.65c1.122,0.676,2.592,1.292,4.217,1.292
	c3.521,0,6.318-2.902,6.436-3.026l-0.054-0.05L22.459,17.714z M9.997,18.208c0.792-0.679,3.123-2.463,5.738-2.463
	c2.624,0,4.948,1.781,5.728,2.45c-0.871,0.776-3.127,2.529-5.74,2.529C13.124,20.724,10.878,18.989,9.997,18.208"/>
<path d="M32.311,38.577l-0.744-0.414c0.019-0.036,1.957-3.552,1.824-6.004c-0.062-1.127-1.303-2.134-2.738-3.297
	c-1.513-1.225-3.226-2.613-4.12-4.587c-0.938-2.067-1.088-4.467-1.22-6.587c-0.112-1.791-0.217-3.481-0.804-4.438
	c-1.037-1.693-2.059-2.044-4.525-2.892c-0.524-0.18-1.108-0.38-1.761-0.618c-3.866-1.408-6.694-6.679-6.813-6.901l0.756-0.401
	c0.026,0.052,2.793,5.206,6.348,6.5c0.649,0.236,1.228,0.435,1.746,0.613c2.517,0.865,3.78,1.298,4.978,3.252
	c0.696,1.138,0.803,2.85,0.928,4.833c0.126,2.045,0.271,4.362,1.145,6.285c0.812,1.791,2.441,3.111,3.878,4.278
	c1.596,1.291,2.975,2.408,3.055,3.914C34.39,34.813,32.396,38.424,32.311,38.577"/>
<g>
	<defs>
		<rect id="SVGID_1_" x="5.942" y="19.921" width="10.359" height="8.004"/>
	</defs>
	<clipPath id="SVGID_4_">
		<use xlink:href="#SVGID_1_"  overflow="visible"/>
	</clipPath>
	<path clip-path="url(#SVGID_4_)" fill-rule="evenodd" clip-rule="evenodd" fill="#D88148" d="M16.2,26.482
		c-0.499,1.115-3.964,2.173-6.95,0.778c-2.986-1.4-3.849-3.627-2.995-5.451c0.854-1.825,3.1-2.556,6.084-1.158
		C15.325,22.048,16.7,25.37,16.2,26.482"/>
</g>
</svg>
