<?xml version="1.0" encoding="utf-8"?>
<!-- Generator: Adobe Illustrator 16.0.0, SVG Export Plug-In . SVG Version: 6.00 Build 0)  -->
<!DOCTYPE svg PUBLIC "-//W3C//DTD SVG 1.1//EN" "http://www.w3.org/Graphics/SVG/1.1/DTD/svg11.dtd" [
	<!ENTITY ns_flows "http://ns.adobe.com/Flows/1.0/">
	<!ENTITY ns_extend "http://ns.adobe.com/Extensibility/1.0/">
	<!ENTITY ns_ai "http://ns.adobe.com/AdobeIllustrator/10.0/">
	<!ENTITY ns_graphs "http://ns.adobe.com/Graphs/1.0/">
]>
<svg version="1.1" id="Capa_1" xmlns:x="&ns_extend;" xmlns:i="&ns_ai;" xmlns:graph="&ns_graphs;"
	 xmlns="http://www.w3.org/2000/svg" xmlns:xlink="http://www.w3.org/1999/xlink" xmlns:a="http://ns.adobe.com/AdobeSVGViewerExtensions/3.0/"
	 x="0px" y="0px" width="62px" height="117.999px" viewBox="0 0 62 117.999" enable-background="new 0 0 62 117.999"
	 xml:space="preserve">
<g>
	<g>
		<path fill="#010202" d="M13,1c6.617,0,12,5.384,12,12.001C25,19.617,19.617,25,13,25S1,19.617,1,13.001C1,6.384,6.383,1,13,1
			 M13,0C5.82,0,0,5.82,0,13.001C0,20.18,5.82,26,13,26s13-5.82,13-12.999C26,5.82,20.18,0,13,0L13,0z"/>
	</g>
	<path fill-rule="evenodd" clip-rule="evenodd" fill="none" stroke="#010202" stroke-width="0.75" stroke-miterlimit="10" d="
		M10.272,11.18c1.52-0.796,3.03-1.594,4.55-2.378c0.199-0.104,0.165-0.252,0.17-0.412c0.038-1.105,0.525-1.945,1.535-2.414
		c0.992-0.462,1.952-0.337,2.811,0.344c1.104,0.871,1.299,2.503,0.461,3.636c-0.857,1.157-2.483,1.433-3.662,0.599
		c-0.207-0.146-0.342-0.136-0.552-0.024c-1.44,0.77-2.883,1.533-4.339,2.272c-0.279,0.142-0.271,0.354-0.26,0.565
		c0.006,0.098,0.148,0.218,0.258,0.271c1.393,0.695,2.791,1.378,4.183,2.073c0.185,0.094,0.3,0.08,0.456-0.058
		c0.877-0.762,2.086-0.895,3.061-0.354c0.953,0.529,1.512,1.642,1.35,2.687c-0.183,1.18-1,2.032-2.171,2.265
		c-1.415,0.277-2.871-0.721-3.069-2.149c-0.055-0.382-0.199-0.577-0.543-0.742c-1.425-0.677-2.836-1.385-4.245-2.094
		c-0.2-0.099-0.337-0.092-0.533,0.023c-0.981,0.576-1.978,0.563-2.911-0.081c-0.914-0.633-1.286-1.553-1.092-2.64
		c0.203-1.133,0.908-1.857,2.031-2.126c0.813-0.194,1.564-0.009,2.231,0.503C10.086,11.02,10.176,11.1,10.272,11.18z"/>
</g>
<g>
	<line fill="none" stroke="#010202" stroke-miterlimit="10" x1="32.984" y1="22.481" x2="35.178" y2="19.682"/>
	<g>
		<path fill="#010202" d="M40.999,1C47.616,1,53,6.383,53,13s-5.384,12-12.001,12C34.383,25,29,19.617,29,13S34.383,1,40.999,1
			 M40.999,0C33.819,0,28,5.821,28,13s5.819,13,12.999,13C48.18,26,54,20.179,54,13S48.18,0,40.999,0L40.999,0z"/>
	</g>
	<line fill="none" stroke="#010202" stroke-miterlimit="10" x1="41" y1="0" x2="41" y2="3.021"/>
</g>
<g>
	<g>
		<path fill="#010202" d="M13,29.5c6.341,0,11.5,5.181,11.5,11.549c0,6.368-5.159,11.548-11.5,11.548S1.5,47.417,1.5,41.049
			C1.5,34.681,6.659,29.5,13,29.5 M13,28C5.821,28,0,33.842,0,41.049c0,7.205,5.821,13.048,13,13.048s13-5.843,13-13.048
			C26,33.842,20.179,28,13,28L13,28z"/>
	</g>
	<g>
		<line fill="none" stroke="#000000" stroke-miterlimit="10" x1="13" y1="34.799" x2="13" y2="47.299"/>
		<line fill="none" stroke="#000000" stroke-miterlimit="10" x1="19.25" y1="41.049" x2="6.75" y2="41.049"/>
	</g>
</g>
<g>
	<circle fill="#FFFFFF" cx="41" cy="41" r="13"/>
</g>
<path fill-rule="evenodd" clip-rule="evenodd" d="M30.849,52.277c0.058-0.473,0.117-0.945,0.171-1.416
	c0.036-0.314,0.062-0.631,0.099-0.945c0.055-0.48,0.119-0.957,0.174-1.438c0.05-0.444,0.088-0.891,0.139-1.335
	c0.053-0.46,0.113-0.916,0.168-1.375c0.035-0.299,0.064-0.598,0.1-0.896c0.058-0.48,0.119-0.96,0.173-1.439
	c0.036-0.321,0.061-0.645,0.096-0.965c0.054-0.465,0.114-0.93,0.169-1.395c0.036-0.302,0.064-0.602,0.1-0.899
	c0.057-0.479,0.118-0.959,0.174-1.439c0.05-0.429,0.09-0.86,0.139-1.29c0.055-0.48,0.12-0.96,0.174-1.439
	c0.024-0.213,0.039-0.427,0.057-0.665h3.615c0-0.324-0.005-0.625,0.001-0.929c0.013-0.724,0.151-1.424,0.491-2.068
	c0.688-1.307,1.745-2.138,3.205-2.424c1.389-0.274,2.655,0.024,3.771,0.883c0.87,0.67,1.405,1.577,1.644,2.647
	c0.072,0.317,0.08,0.655,0.098,0.985c0.015,0.289,0.003,0.578,0.003,0.893h3.612c0.064,0.602,0.121,1.186,0.189,1.768
	c0.083,0.698,0.182,1.395,0.264,2.093c0.054,0.458,0.087,0.921,0.14,1.38c0.067,0.582,0.149,1.163,0.217,1.744
	c0.052,0.452,0.089,0.904,0.14,1.358c0.068,0.588,0.149,1.177,0.219,1.765c0.051,0.438,0.089,0.877,0.14,1.314
	c0.055,0.488,0.119,0.975,0.174,1.465c0.05,0.449,0.088,0.904,0.139,1.355c0.052,0.449,0.116,0.9,0.17,1.354
	c0.036,0.297,0.065,0.596,0.097,0.896c0.017,0.151,0.031,0.307,0.046,0.459H30.849z M50.074,51.33
	c-0.575-5.027-1.147-10.034-1.719-15.045h-2.75c0,0.282,0.005,0.549-0.003,0.816c-0.003,0.112,0.032,0.18,0.121,0.254
	c0.296,0.25,0.393,0.586,0.313,0.954c-0.076,0.354-0.32,0.599-0.656,0.673c-0.409,0.092-0.85-0.003-1.09-0.467
	c-0.211-0.408-0.101-0.885,0.242-1.158c0.041-0.031,0.084-0.093,0.084-0.144c0.009-0.31,0.005-0.622,0.005-0.929h-7.243
	c0,0.326-0.029,0.643,0.016,0.95c0.019,0.13,0.211,0.228,0.288,0.363c0.239,0.421,0.183,0.776-0.134,1.148
	c-0.234,0.276-0.737,0.325-1.07,0.185c-0.6-0.259-0.738-1.111-0.207-1.581c0.045-0.04,0.115-0.091,0.117-0.137
	c0.011-0.31,0.004-0.622,0.004-0.929h-2.751c-0.023,0.191-0.046,0.365-0.063,0.541c-0.048,0.453-0.088,0.906-0.141,1.357
	c-0.053,0.496-0.117,0.988-0.172,1.484c-0.035,0.3-0.061,0.601-0.096,0.898c-0.056,0.479-0.116,0.959-0.174,1.439
	c-0.035,0.299-0.063,0.599-0.098,0.898c-0.056,0.465-0.117,0.93-0.172,1.396c-0.035,0.318-0.058,0.644-0.093,0.965
	c-0.056,0.479-0.118,0.957-0.174,1.438c-0.05,0.429-0.091,0.86-0.141,1.291c-0.056,0.473-0.115,0.946-0.173,1.417
	c-0.039,0.32-0.084,0.639-0.121,0.959c-0.033,0.316-0.063,0.634-0.096,0.959H50.074z M44.621,35.318c0-0.33-0.003-0.647,0.001-0.967
	c0.014-0.918-0.326-1.708-0.926-2.375c-0.722-0.805-1.655-1.198-2.729-1.201c-0.658-0.002-1.282,0.179-1.851,0.528
	c-0.728,0.446-1.228,1.071-1.533,1.865c-0.196,0.504-0.222,1.029-0.207,1.56c0.005,0.2,0.001,0.396,0.001,0.59H44.621z"/>
<g>
	<path display="none" fill="#4EB8A1" d="M29.998,70.804c0.108,8.282-6.517,15.086-14.8,15.194S0.11,79.479,0.001,71.196
		c-0.108-8.283,6.519-15.087,14.803-15.195S29.889,62.52,29.998,70.804"/>
	<path fill="none" stroke="#010202" stroke-width="0.75" stroke-miterlimit="10" d="M19.337,62.818v2.799
		c-1.843-0.157-2.85,0.264-2.66,2.158c0.796,0.107,1.789,0.015,2.66,0.045v2.895h-2.615c-0.108,2.753-0.014,5.706-0.045,8.537h-3.72
		v-8.537h-2.294V67.82h2.294c-0.141-2.141,0.301-3.833,1.698-4.591C15.826,62.596,17.616,62.742,19.337,62.818"/>
</g>
<g>
	<path display="none" fill="#4EB8A1" d="M61.998,70.804c0.108,8.282-6.518,15.086-14.802,15.194
		c-8.282,0.108-15.088-6.52-15.195-14.802c-0.109-8.283,6.518-15.087,14.803-15.195C55.087,55.893,61.889,62.52,61.998,70.804"/>
	<path fill="none" stroke="#010202" stroke-width="0.75" stroke-miterlimit="10" d="M52.591,64.228
		c0.74-0.34,1.512-0.659,2.018-1.175c0.197,0.835-0.633,1.564-1.082,2.174c0.688-0.227,1.279-0.525,1.898-0.808
		c-0.381,0.813-0.938,1.496-1.521,2.155c1.816,8.244-6.957,14.776-14.416,11.514c1.564-0.221,3.971-0.964,4.916-2.306
		c-1.708,0.007-2.855-0.747-3.625-2.004c0.322-0.119,1.057-0.112,1.529-0.315c-1.6-0.316-3.084-1.326-3.277-3.192
		c0.473,0.114,0.984,0.179,1.521,0.212c-1.065-0.486-2.565-2.83-1.74-4.65c2.14,1.574,4.432,2.939,8.007,2.583
		C45.46,64.621,50.034,62.088,52.591,64.228"/>
</g>
<g>
	<path display="none" fill="#4EB8A1" d="M29.999,102.804c0.108,8.282-6.518,15.086-14.801,15.194
		c-8.283,0.108-15.088-6.52-15.196-14.802c-0.108-8.283,6.519-15.087,14.803-15.195C23.088,87.893,29.89,94.52,29.999,102.804"/>
	<path fill="none" stroke="#000000" stroke-width="0.75" stroke-miterlimit="10" d="M13.817,105.728
		c-0.121,0.458-0.225,0.877-0.346,1.293c-0.23,0.813-0.383,1.65-0.754,2.424c-0.404,0.848-0.924,1.628-1.521,2.361
		c-0.049,0.059-0.143,0.084-0.215,0.125c-0.039-0.072-0.104-0.141-0.115-0.219c-0.219-1.502-0.195-2.987,0.209-4.471
		c0.426-1.563,0.787-3.141,1.17-4.714c0.025-0.108,0.012-0.239-0.027-0.346c-0.357-1.035-0.41-2.063,0.133-3.054
		c0.34-0.622,0.859-1.041,1.633-1.064c0.789-0.022,1.34,0.448,1.447,1.198c0.086,0.601-0.076,1.17-0.24,1.737
		c-0.211,0.721-0.432,1.44-0.658,2.159c-0.357,1.134,0.602,2.236,2.002,2.041c0.717-0.103,1.264-0.482,1.709-1.01
		c0.645-0.759,0.98-1.651,1.178-2.599c0.168-0.798,0.262-1.608,0.141-2.42c-0.256-1.713-1.314-2.833-3.074-3.204
		c-1.633-0.347-3.201-0.157-4.559,0.822c-1.652,1.19-2.293,2.815-1.969,4.771c0.076,0.457,0.307,0.858,0.625,1.205
		c0.166,0.182,0.209,0.369,0.135,0.598c-0.08,0.251-0.137,0.511-0.209,0.766c-0.086,0.288-0.273,0.379-0.564,0.263
		c-0.857-0.345-1.436-0.963-1.754-1.78c-0.768-1.974-0.471-3.839,0.764-5.556c1.176-1.635,2.855-2.523,4.871-2.852
		c1.496-0.242,2.977-0.19,4.398,0.367c2.059,0.808,3.402,2.229,3.885,4.338c0.18,0.783,0.127,1.577,0.02,2.364
		c-0.168,1.258-0.568,2.44-1.338,3.486c-0.887,1.2-2.066,1.964-3.604,2.177c-1.105,0.153-2.125-0.028-2.984-0.767
		c-0.068-0.058-0.129-0.124-0.189-0.191C13.956,105.911,13.905,105.84,13.817,105.728z"/>
</g>
<g>
	<path display="none" fill="#4EB8A1" d="M61.999,102.804c0.108,8.282-6.518,15.086-14.802,15.194
		c-8.282,0.108-15.088-6.52-15.195-14.802c-0.109-8.283,6.518-15.087,14.803-15.195C55.088,87.893,61.89,94.52,61.999,102.804"/>
	<g>
		<rect x="39" y="96.944" fill="none" stroke="#010202" stroke-width="0.75" stroke-miterlimit="10" width="16" height="12.11"/>
		<polygon fill="none" stroke="#010202" stroke-width="0.75" stroke-miterlimit="10" points="54.615,97.089 46.98,104.271 
			39.348,97.089 		"/>
	</g>
</g>
</svg>
