<?xml version="1.0" encoding="utf-8"?>
<!-- Generator: Adobe Illustrator 16.0.0, SVG Export Plug-In . SVG Version: 6.00 Build 0)  -->
<!DOCTYPE svg PUBLIC "-//W3C//DTD SVG 1.1//EN" "http://www.w3.org/Graphics/SVG/1.1/DTD/svg11.dtd" [
	<!ENTITY ns_flows "http://ns.adobe.com/Flows/1.0/">
	<!ENTITY ns_extend "http://ns.adobe.com/Extensibility/1.0/">
	<!ENTITY ns_ai "http://ns.adobe.com/AdobeIllustrator/10.0/">
	<!ENTITY ns_graphs "http://ns.adobe.com/Graphs/1.0/">
]>
<svg version="1.1" id="Capa_1" xmlns:x="&ns_extend;" xmlns:i="&ns_ai;" xmlns:graph="&ns_graphs;"
	 xmlns="http://www.w3.org/2000/svg" xmlns:xlink="http://www.w3.org/1999/xlink" xmlns:a="http://ns.adobe.com/AdobeSVGViewerExtensions/3.0/"
	 x="0px" y="0px" width="250px" height="82px" viewBox="0 0 250 82" enable-background="new 0 0 250 82" xml:space="preserve">
<g>
	<g display="none">
		<path display="inline" fill="#010202" d="M230.003,43c10.363,0,18.885,8.433,18.996,18.798c0.054,5.075-1.872,9.867-5.422,13.494
			c-3.551,3.626-8.3,5.653-13.375,5.707l-0.209,0.001c-10.362,0-18.882-8.432-18.992-18.796
			c-0.112-10.476,8.319-19.09,18.796-19.202L230.003,43 M230.003,42c-0.072,0-0.145,0-0.217,0.001
			c-11.045,0.118-19.903,9.168-19.785,20.213c0.116,10.972,9.046,19.785,19.992,19.785c0.072,0,0.146,0,0.22-0.001
			c11.045-0.116,19.903-9.166,19.786-20.211C249.881,50.814,240.949,42,230.003,42L230.003,42z"/>
	</g>
	<g>
		<path fill="#010202" d="M224.507,62.837c-0.057,0-0.113-0.021-0.159-0.06l-1.663-1.449l-1.809,1.104
			c-0.09,0.056-0.205,0.046-0.285-0.021c-0.079-0.068-0.106-0.182-0.066-0.278l0.803-1.938l-1.556-1.481
			c-0.074-0.07-0.097-0.181-0.056-0.274c0.043-0.094,0.138-0.147,0.241-0.145l2.107,0.158l0.912-1.929
			c0.042-0.092,0.136-0.148,0.239-0.138c0.102,0.008,0.187,0.078,0.214,0.177l0.564,2.025l2.061,0.307
			c0.104,0.015,0.186,0.094,0.203,0.196c0.02,0.102-0.029,0.205-0.119,0.256l-1.8,1.013l0.407,2.189
			c0.02,0.103-0.028,0.205-0.117,0.256C224.591,62.827,224.549,62.837,224.507,62.837 M222.71,60.784
			c0.057,0,0.113,0.021,0.159,0.062l1.271,1.107l-0.312-1.677c-0.019-0.103,0.029-0.205,0.12-0.256l1.331-0.75l-1.513-0.224
			c-0.095-0.015-0.173-0.084-0.198-0.176l-0.433-1.551l-0.705,1.491c-0.043,0.091-0.137,0.145-0.238,0.138l-1.595-0.12l1.184,1.127
			c0.073,0.07,0.096,0.177,0.056,0.27l-0.579,1.404l1.323-0.81C222.622,60.797,222.666,60.784,222.71,60.784"/>
		<path fill="#010202" d="M229.813,69.984c-5.484,0-13.3-0.518-13.378-0.523l-0.234-0.016l-0.082-0.219
			c-0.029-0.076-0.704-1.881-0.732-3.604c-0.023-1.396,0.413-3.182,0.837-4.907c0.1-0.408,0.197-0.811,0.287-1.197
			c0.445-1.921,0.871-6.211,0.874-6.254l0.042-0.427l0.414,0.11c0.026,0.007,2.633,0.688,4.572,0.793
			c1.293,0.072,2.715-0.229,3.628-0.421c0.483-0.102,0.804-0.169,1.006-0.169c0.487,0.043,0.746,0.559,1.313,1.688
			c0.442,0.88,0.993,1.976,1.65,2.825c1.239,1.6,3.578,3.033,6.764,4.146c1.204,0.42,2.438,0.658,3.633,0.89
			c1.899,0.366,3.542,0.683,4.491,1.646c1.573,1.596,0.586,4.497,0.543,4.62l-0.08,0.229l-0.243,0.015c0,0-7.304,0.421-12.408,0.708
			C231.925,69.961,230.951,69.984,229.813,69.984 M216.723,68.749c1.357,0.087,8.172,0.506,13.091,0.506
			c1.125,0,2.085-0.022,2.855-0.065c4.539-0.255,10.819-0.616,12.152-0.692c0.181-0.662,0.59-2.592-0.442-3.64
			c-0.792-0.803-2.329-1.099-4.111-1.443c-1.162-0.223-2.481-0.476-3.734-0.915c-3.319-1.16-5.773-2.677-7.099-4.389
			c-0.702-0.905-1.27-2.036-1.727-2.945c-0.25-0.499-0.557-1.11-0.713-1.282c-0.16,0.015-0.474,0.081-0.805,0.15
			c-0.949,0.199-2.44,0.513-3.817,0.436c-1.563-0.085-3.477-0.513-4.306-0.713c-0.119,1.143-0.47,4.299-0.847,5.926
			c-0.09,0.39-0.188,0.795-0.289,1.207c-0.412,1.681-0.837,3.419-0.816,4.722C216.136,66.875,216.549,68.23,216.723,68.749"/>
		<path fill="#010202" d="M229.153,67.396c-6.208,0-13.262-0.527-13.336-0.533l0.055-0.727c0.078,0.005,7.854,0.587,14.261,0.526
			c6.396-0.063,15.173-0.785,15.261-0.791l0.06,0.726c-0.087,0.008-8.893,0.731-15.313,0.794
			C229.815,67.396,229.486,67.396,229.153,67.396"/>
		
			<rect x="229.488" y="58.732" transform="matrix(0.6537 0.7568 -0.7568 0.6537 124.663 -153.3316)" fill="#010202" width="0.729" height="1.603"/>
		
			<rect x="227.681" y="56.569" transform="matrix(0.5972 0.8021 -0.8021 0.5972 137.9191 -159.7788)" fill="#010202" width="0.729" height="1.725"/>
		
			<rect x="231.827" y="60.48" transform="matrix(0.9028 0.43 -0.43 0.9028 48.8978 -93.8876)" fill="#010202" width="0.729" height="1.543"/>
		
			<rect x="234.423" y="61.547" transform="matrix(0.9097 0.4153 -0.4153 0.9097 47.1384 -91.8715)" fill="#010202" width="0.729" height="1.783"/>
		<path fill="#010202" d="M238.022,66.81l-0.72-0.109c0.006-0.046,0.177-1.135,0.769-2.177c0.609-1.075,2.041-1.845,2.102-1.877
			l0.344,0.644c-0.014,0.007-1.308,0.705-1.812,1.594C238.18,65.809,238.023,66.8,238.022,66.81"/>
	</g>
</g>
<g>
	<g display="none">
		<path display="inline" fill="#010202" d="M104,43c10.477,0,19,8.523,19,19s-8.523,19-19,19s-19-8.523-19-19S93.523,43,104,43
			 M104,42c-11.045,0-20,8.954-20,20s8.955,20,20,20s20-8.954,20-20S115.045,42,104,42L104,42z"/>
	</g>
	<g>
		<path fill="#010202" d="M97.393,72.233L97.393,72.233c-1.664,0-2.777-0.053-2.787-0.053l-0.145-0.008l-0.117-0.083
			c-0.033-0.023-0.83-0.605-1.057-1.741c-0.166-0.826,0.473-1.651,0.939-2.256c0.068-0.087,0.148-0.191,0.213-0.28
			c-0.039-0.029-0.082-0.06-0.119-0.086c-0.402-0.289-1.009-0.726-1.302-1.53c-0.29-0.797,0.239-1.623,0.706-2.354
			c0.301-0.469,0.639-1.001,0.611-1.321c-0.02-0.197-0.6-0.312-1.16-0.423c-0.787-0.155-1.766-0.349-2.658-0.942
			c-0.52-0.348-0.832-0.815-0.929-1.396c-0.226-1.346,0.861-2.795,0.908-2.856c0.022-0.036,0.987-1.478,1.794-2.185l0.098-0.085
			c2.838-2.512,6.252-4.007,10.152-4.447c0.516-0.059,1.031-0.088,1.537-0.088c5.473,0,9.166,3.394,10.662,6.301
			c1.658,3.217,2.359,11.666,2.389,12.023l0.029,0.367l-0.346,0.129c-0.053,0.019-5.422,2.011-10.789,2.777
			C102.912,72.141,99.613,72.233,97.393,72.233 M94.816,71.215c0.988,0.04,6.24,0.207,11.07-0.483
			c4.484-0.641,8.977-2.154,10.238-2.601c-0.156-1.681-0.871-8.605-2.25-11.285c-1.373-2.663-4.762-5.772-9.797-5.772
			c-0.469,0-0.949,0.027-1.428,0.082c-3.697,0.417-6.932,1.833-9.615,4.208l-0.102,0.09c-0.711,0.622-1.635,2.002-1.643,2.016
			c-0.264,0.35-0.872,1.361-0.74,2.134c0.051,0.306,0.219,0.549,0.508,0.743c0.73,0.486,1.568,0.651,2.307,0.797
			c0.912,0.181,1.857,0.368,1.939,1.291c0.061,0.652-0.357,1.304-0.76,1.935c-0.346,0.54-0.734,1.151-0.611,1.495
			c0.189,0.522,0.615,0.827,0.955,1.072c0.289,0.207,0.539,0.389,0.602,0.694c0.066,0.334-0.156,0.623-0.492,1.059
			c-0.313,0.403-0.834,1.079-0.756,1.47C94.352,70.71,94.656,71.063,94.816,71.215"/>
		<path fill="#010202" d="M93.693,66.586l-0.051-0.729c0.076-0.005,7.631-0.52,11.148-1.272c3.523-0.756,10.896-3.165,10.971-3.19
			l0.227,0.695c-0.074,0.024-7.484,2.447-11.045,3.209C101.377,66.064,94.004,66.566,93.693,66.586"/>
		<path fill="#010202" d="M113.926,69.189l-0.484-0.047c0.002-0.031,0.285-3.099-0.711-6.402l0.465-0.141
			C114.223,65.998,113.938,69.062,113.926,69.189"/>
		<path fill="#010202" d="M111.43,70.03l-0.484-0.032c0.002-0.031,0.191-3.184-0.809-6.49l0.467-0.141
			C111.629,66.763,111.439,69.897,111.43,70.03"/>
		<path fill="#010202" d="M108.467,70.692l-0.48-0.077c0.004-0.029,0.457-2.949-0.535-6.243l0.465-0.141
			C108.945,67.638,108.488,70.569,108.467,70.692"/>
		<path fill="#010202" d="M105.248,71.381c-0.01-0.315-0.014-0.66-0.016-1.028c-0.016-1.604-0.035-3.601-0.615-5.45l0.467-0.145
			c0.6,1.917,0.619,3.953,0.635,5.59c0.004,0.364,0.006,0.706,0.016,1.019L105.248,71.381z"/>
		
			<rect x="99.328" y="68.346" transform="matrix(0.0508 0.9987 -0.9987 0.0508 165.7946 -37.262)" fill="#010202" width="6.344" height="0.487"/>
		<path fill="#010202" d="M99.457,71.912c-0.027-0.068-0.664-1.685-0.365-3.177c0.277-1.381,0.066-2.879,0.064-2.893l0.48-0.072
			c0.01,0.065,0.227,1.594-0.066,3.059c-0.27,1.353,0.334,2.887,0.34,2.902L99.457,71.912z"/>
		<path fill="#010202" d="M96.49,71.707c-0.035-0.069-0.848-1.714-0.061-3.139c0.646-1.165-0.379-2.435-0.389-2.447l0.373-0.311
			c0.053,0.063,1.25,1.537,0.443,2.993c-0.664,1.196,0.061,2.67,0.068,2.685L96.49,71.707z"/>
	</g>
</g>
<g>
	<g display="none">
		<path display="inline" fill="#010202" d="M104,1c10.477,0,19,8.523,19,19s-8.523,19-19,19s-19-8.523-19-19S93.523,1,104,1 M104,0
			C92.954,0,84,8.954,84,20c0,11.045,8.954,20,20,20c11.045,0,20-8.955,20-20C124,8.954,115.045,0,104,0L104,0z"/>
	</g>
	<path fill="#010202" d="M104.359,32.778c-0.139,0-0.277-0.001-0.416-0.004c-0.313,0.006-0.629,0.002-0.941-0.008l0.001-0.03
		c-4.177-0.253-7.995-1.56-8.18-1.624l-0.266-0.093l0.955-12.82L91,15.605l0.165-0.312c0.307-0.581,3.047-5.689,4.61-6.562
		c1.541-0.86,2.868-1.195,2.924-1.208l0.255-0.063l0.141,0.22c0.012,0.016,1.255,1.817,5.069,1.817c3.832,0,4.921-1.963,4.932-1.983
		l0.155-0.293l0.307,0.126c0.047,0.02,1.149,0.478,2.665,1.324c1.566,0.873,4.306,6.01,4.612,6.592L117,15.575l-4.514,2.607
		l0.955,12.834l-0.265,0.092c-0.186,0.064-4.003,1.373-8.181,1.626l0.002,0.034C104.785,32.775,104.571,32.778,104.359,32.778
		 M95.33,30.508c1.021,0.324,4.817,1.454,8.619,1.534c3.835-0.062,7.691-1.209,8.721-1.538l-1.053-14.141l0.728-0.074l0.137,1.053
		l3.542-2.046c-0.925-1.713-3.062-5.375-4.156-5.985c-1.044-0.583-1.9-0.982-2.317-1.167c-0.485,0.631-1.974,2.086-5.386,2.086
		c-3.474,0-5.029-1.381-5.512-1.932c-0.43,0.128-1.427,0.462-2.521,1.073c-1.093,0.609-3.228,4.25-4.153,5.955l3.539,2.033
		l0.137-1.061l0.728,0.074L95.33,30.508z"/>
</g>
<g>
	<g display="none">
		<path display="inline" fill="#010202" d="M62,1c10.477,0,19,8.523,19,19s-8.523,19-19,19s-19-8.523-19-19S51.523,1,62,1 M62,0
			C50.954,0,42,8.954,42,20c0,11.045,8.954,20,20,20c11.045,0,20-8.955,20-20C82,8.954,73.045,0,62,0L62,0z"/>
	</g>
	<g>
		<path fill="#010202" d="M60.264,11.931l-0.248-0.285c-0.009-0.012-1.077-1.243-1.911-2.335c-0.837-1.094-1.414-1.839-1.414-1.839
			l-0.216-0.278l3.289-2.666l0.125,0.568c0.003,0.018,0.392,1.757,0.962,2.617c0.596,0.894,1.417,1.804,1.425,1.813l0.235,0.259
			L60.264,11.931z M57.474,7.31c0.242,0.313,0.668,0.868,1.202,1.564c0.581,0.76,1.277,1.589,1.639,2.015l1.198-1.144
			c-0.298-0.346-0.826-0.985-1.259-1.633c-0.432-0.649-0.756-1.673-0.927-2.304L57.474,7.31z"/>
		<path fill="#010202" d="M50.541,29.684l-0.717-0.057l0.265-3.371c0.065-0.611,1.556-14.773,2.05-16.187
			c0.525-1.507,4.483-3.019,4.933-3.187l0.25,0.674c-1.574,0.588-4.191,1.853-4.504,2.75c-0.386,1.108-1.583,11.937-2.012,16.016
			L50.541,29.684z"/>
		<path fill="#010202" d="M62.429,33.428c-0.106,0-2.637-0.004-4.827-0.384c-2.194-0.38-4.473-1.245-4.569-1.283l-0.287-0.109
			l0.063-0.3c0.013-0.057,1.19-5.703,1.451-8.742c0.258-3.025-0.259-7.91-0.265-7.958l0.715-0.078
			c0.021,0.203,0.53,5.001,0.266,8.096c-0.229,2.671-1.151,7.298-1.4,8.524c0.682,0.244,2.466,0.85,4.148,1.141
			c2.129,0.371,4.681,0.374,4.705,0.374V33.428z"/>
		<polygon fill="#010202" points="53.154,31.785 49.186,31.716 49,29.228 53.428,29.29 53.416,30.009 49.776,29.958 49.855,31.008 
			53.168,31.066 		"/>
		<path fill="#010202" d="M63.734,11.931l-2.247-2.146l0.234-0.26c0.008-0.008,0.829-0.918,1.423-1.812
			c0.574-0.861,0.959-2.599,0.963-2.617l0.125-0.569l3.051,2.481L67.171,7.26c-0.018,0.037-0.425,0.934-1.278,2.05
			c-0.836,1.092-1.902,2.323-1.912,2.335L63.734,11.931z M62.485,9.745l1.198,1.144c0.362-0.426,1.058-1.255,1.639-2.015
			c0.544-0.711,0.898-1.336,1.071-1.665L64.669,5.81c-0.171,0.631-0.493,1.654-0.927,2.303C63.311,8.76,62.783,9.399,62.485,9.745"
			/>
		<path fill="#010202" d="M73.458,29.684l-0.264-3.371c-0.429-4.07-1.626-14.898-2.012-16.006c-0.313-0.9-2.82-2.186-4.328-2.784
			l0.267-0.668c0.429,0.171,4.215,1.713,4.74,3.215c0.494,1.413,1.986,15.575,2.049,16.178l0.266,3.379L73.458,29.684z"/>
		<path fill="#010202" d="M61.568,33.428v-0.719c0.025,0,2.577-0.004,4.707-0.374c1.682-0.292,3.466-0.897,4.147-1.141
			c-0.249-1.225-1.171-5.853-1.401-8.524c-0.263-3.095,0.245-7.893,0.267-8.096l0.715,0.078c-0.006,0.048-0.522,4.933-0.265,7.958
			c0.261,3.04,1.438,8.686,1.451,8.742l0.063,0.3l-0.287,0.109c-0.096,0.038-2.375,0.902-4.569,1.283
			C64.207,33.424,61.675,33.428,61.568,33.428"/>
		<polygon fill="#010202" points="70.844,31.785 70.83,31.066 74.144,31.008 74.222,29.966 70.849,30.078 70.824,29.359 75,29.22 
			74.813,31.716 		"/>
		
			<rect x="50.471" y="21.178" transform="matrix(0.0095 1 -1 0.0095 82.9483 -40.9058)" fill="#010202" width="23.303" height="0.48"/>
	</g>
</g>
<g>
	<g display="none">
		<path display="inline" fill="#010202" d="M230,1c10.477,0,19,8.523,19,19s-8.523,19-19,19s-19-8.523-19-19S219.523,1,230,1 M230,0
			c-11.046,0-20,8.955-20,20s8.954,20,20,20s20-8.955,20-20S241.046,0,230,0L230,0z"/>
	</g>
	<g>
		<path fill="#010202" d="M226.818,12.168c-0.515,0-0.995-0.133-1.425-0.395c-1.99-1.213-1.677-4.172-1.662-4.296l0.019-0.164
			l2.563-1.751l0.201,0.305c0.001,0,0.942,1.412,1.659,2.464c0.698,1.021,1.651,2.053,1.661,2.063l0.25,0.271l-0.275,0.245
			C229.752,10.96,228.376,12.168,226.818,12.168 M224.437,7.717c-0.03,0.583-0.032,2.607,1.332,3.438
			c0.315,0.193,0.669,0.29,1.05,0.29c0.908,0,1.787-0.538,2.225-0.853c-0.344-0.39-0.961-1.117-1.464-1.855
			c-0.515-0.755-1.145-1.694-1.462-2.168L224.437,7.717z"/>
		<path fill="#010202" d="M232.428,12.167L232.428,12.167c-1.557,0-2.934-1.208-2.991-1.259l-0.274-0.245l0.249-0.271
			c0.011-0.01,0.965-1.043,1.66-2.064c0.718-1.051,1.659-2.464,1.66-2.464l0.202-0.304l2.563,1.751l0.018,0.165
			c0.017,0.125,0.33,3.083-1.661,4.296C233.423,12.035,232.943,12.167,232.428,12.167 M230.203,10.593
			c0.438,0.316,1.315,0.853,2.225,0.853c0.382,0,0.735-0.097,1.049-0.29c1.37-0.834,1.365-2.856,1.333-3.438l-1.681-1.148
			c-0.317,0.474-0.945,1.414-1.462,2.168C231.164,9.476,230.547,10.202,230.203,10.593"/>
		<path fill="#010202" d="M229.979,32.659c-0.109,0-2.726-0.003-4.986-0.366c-2.263-0.362-5.878-1.521-6.031-1.57
			c-0.141-0.046-0.252-0.152-0.304-0.291s-0.036-0.293,0.04-0.419c0.029-0.049,3.018-4.948,3.276-7.747
			c0.26-2.808-1.105-6.521-1.12-6.559c-0.032-0.089-0.038-0.185-0.018-0.276c0.004-0.017,0.398-1.763-0.046-2.869
			c-0.464-1.155-1.408-2.126-1.417-2.136c-0.108-0.11-0.157-0.267-0.131-0.418c0.025-0.152,0.124-0.284,0.264-0.351l4.393-2.142
			l0.422,0.864l-3.827,1.867c0.36,0.446,0.868,1.154,1.189,1.958c0.479,1.19,0.218,2.81,0.122,3.301
			c0.253,0.718,1.382,4.104,1.128,6.85c-0.229,2.481-2.295,6.246-3.101,7.632c1.126,0.345,3.646,1.088,5.312,1.354
			c2.188,0.352,4.809,0.355,4.835,0.355V32.659z"/>
		<path fill="#010202" d="M229.5,32.659v-0.962c0.026,0,2.649-0.004,4.833-0.355c1.654-0.265,4.148-0.998,5.286-1.346
			c-0.903-1.413-3.221-5.251-3.452-7.743c-0.254-2.75,1.148-6.367,1.469-7.15c-0.098-0.455-0.303-1.746,0.159-2.898
			c0.322-0.804,0.827-1.51,1.188-1.958l-3.998-1.934l0.419-0.866l5.171,2.501l-0.469,0.478c-0.01,0.01-0.955,0.981-1.417,2.136
			c-0.439,1.094-0.088,2.444-0.084,2.458l0.043,0.161l-0.065,0.153c-0.017,0.041-1.714,4.041-1.456,6.832s3.609,7.78,3.644,7.83
			l0.357,0.531l-0.609,0.197c-0.153,0.048-3.771,1.208-6.03,1.57C232.224,32.656,229.609,32.659,229.5,32.659"/>
		<rect x="228.972" y="10.825" fill="#010202" width="0.722" height="21.177"/>
	</g>
</g>
<g>
	<g display="none">
		<path display="inline" fill="#010202" d="M188,43c10.477,0,19,8.523,19,19s-8.523,19-19,19s-19-8.523-19-19S177.523,43,188,43
			 M188,42c-11.046,0-20,8.955-20,20s8.954,20,20,20c11.045,0,20-8.955,20-20S199.045,42,188,42L188,42z"/>
	</g>
	<g>
		<path fill="#010202" d="M200.434,72.523l-0.964-0.135c0.017-0.121,0.422-3.005,0.998-5.093c0.48-1.746,1.346-4.146,1.637-4.94
			c-0.499-0.618-1.907-2.419-2.751-4.108c-0.882-1.762-1.175-5.734-1.249-7.03l-1.768-0.227c0.148,1.468,0.263,5.072-1.805,7.346
			c-1.36,1.497-3.743,2.441-6.196,2.384c-2.168-0.022-4.062-0.782-5.196-2.083c-2.077-2.384-2.608-6.252-2.735-7.661l-1.884,0.241
			c-0.074,1.296-0.367,5.269-1.249,7.03c-0.844,1.689-2.253,3.49-2.751,4.108c0.29,0.794,1.156,3.194,1.637,4.94
			c0.576,2.091,0.945,4.968,0.961,5.089l-0.966,0.123c-0.003-0.028-0.375-2.931-0.933-4.953c-0.563-2.034-1.697-5.093-1.708-5.123
			l-0.1-0.266l0.182-0.216c0.019-0.023,1.842-2.206,2.807-4.138c0.946-1.892,1.166-6.996,1.169-7.046l0.016-0.411l3.731-0.478
			l0.023,0.528c0.002,0.049,0.238,4.957,2.534,7.591c0.952,1.092,2.582,1.729,4.473,1.749c2.185,0.044,4.286-0.769,5.466-2.066
			c2.273-2.496,1.488-7.121,1.48-7.167l-0.116-0.652l3.862,0.495l0.016,0.411c0.003,0.05,0.223,5.154,1.17,7.046
			c0.965,1.932,2.787,4.114,2.806,4.138l0.183,0.216l-0.1,0.266c-0.011,0.03-1.146,3.089-1.709,5.123
			C200.846,69.581,200.438,72.494,200.434,72.523"/>
		<path fill="#010202" d="M187.953,52.942c-4.377,0-7.205-2.135-7.322-2.226l0.444-0.579c0.026,0.021,2.761,2.075,6.878,2.075
			c4.151,0,7.815-2.081,7.852-2.102l0.364,0.632C196.014,50.833,192.305,52.942,187.953,52.942"/>
		<path fill="#010202" d="M200.05,72.452c-0.062-0.004-6.291-0.43-11.737-0.43c-5.447,0-11.676,0.426-11.738,0.43l-0.05-0.729
			c0.063-0.004,6.316-0.432,11.788-0.432c5.471,0,11.726,0.428,11.788,0.432L200.05,72.452z"/>
		<path fill="#010202" d="M200.059,70.035c-0.063-0.003-6.296-0.429-11.746-0.429c-5.452,0-11.685,0.426-11.746,0.429l-0.034-0.485
			c0.063-0.004,6.312-0.431,11.78-0.431c5.467,0,11.718,0.427,11.779,0.431L200.059,70.035z"/>
	</g>
</g>
<g>
	<g display="none">
		<path display="inline" fill="#010202" d="M20,1L20,1l0.123,0C30.598,1.068,39.067,9.646,39,20.122
			C38.934,30.531,30.412,39,20.004,39l-0.125,0c-5.075-0.032-9.833-2.039-13.399-5.65C2.914,29.738,0.968,24.954,1,19.879
			C1.067,9.469,9.59,1,20,1 M20,0C9.013,0,0.071,8.871,0,19.873C-0.069,30.917,8.827,39.93,19.873,40c0.044,0,0.087,0,0.132,0
			C30.989,40,39.93,31.129,40,20.128C40.07,9.083,31.174,0.072,20.128,0C20.085,0,20.042,0,20,0L20,0z"/>
	</g>
	<g>
		<path fill="#010202" d="M15.404,26.875c-1.902,0-3.883-0.282-5.889-0.837c-3.21-0.887-6.675-3.6-6.822-3.715L1.89,21.689
			l1.024-0.004c0.021,0,2.272-0.016,4.373-0.758c1.473-0.52,2.844-1.66,3.407-2.3c0.626-0.709,1.078-1.769,1.555-2.888
			c0.722-1.694,1.467-3.445,2.942-4.226c1.022-0.542,2.425-0.853,3.846-0.853c2.363,0,4.425,0.835,5.656,2.29
			c1.23,1.455,1.589,2.361,1.904,3.162c0.261,0.663,0.489,1.237,1.202,2.039c0.632,0.71,2.416,1.765,4.063,2.204
			c2.007,0.534,4.074,0.591,4.869,0.591c0.248,0,0.389-0.005,0.392-0.005l0.766-0.029l-0.47,0.604
			c-0.062,0.078-1.564,1.969-4.291,1.827l-0.148-0.007c-0.953-0.05-1.854-0.099-2.758-0.099c-1.701,0-3.129,0.175-4.628,0.568
			c-1.297,0.34-2.159,0.82-2.993,1.285c-0.964,0.537-1.961,1.093-3.586,1.425C17.857,26.754,16.642,26.875,15.404,26.875
			 M3.926,22.344c1.206,0.853,3.591,2.401,5.779,3.007c3.204,0.886,6.339,1.045,9.168,0.467c1.518-0.31,2.422-0.815,3.382-1.35
			c0.873-0.486,1.775-0.988,3.159-1.352c1.56-0.408,3.044-0.59,4.809-0.59c0.923,0,1.833,0.049,2.796,0.099l0.146,0.008
			c1.432,0.082,2.477-0.506,3.083-0.978c-1.015-0.025-2.812-0.142-4.568-0.609c-1.831-0.486-3.716-1.634-4.415-2.419
			c-0.797-0.897-1.057-1.555-1.332-2.251c-0.309-0.786-0.63-1.597-1.785-2.962c-1.096-1.294-2.959-2.038-5.112-2.038
			c-1.309,0-2.589,0.281-3.513,0.77c-1.251,0.662-1.947,2.295-2.621,3.874c-0.5,1.175-0.973,2.284-1.674,3.08
			c-0.734,0.833-2.207,1.971-3.706,2.5C6.187,22.072,4.819,22.265,3.926,22.344"/>
		<path fill="#010202" d="M19.282,18.897c-3.969,0-7.521-0.741-7.556-0.749l0.098-0.465c0.034,0.007,3.541,0.738,7.458,0.738
			c3.898,0,7.432-1.366,7.468-1.378l0.173,0.443C26.887,17.5,23.271,18.897,19.282,18.897"/>
		<path fill="#010202" d="M19.183,20.158c-3.973,0-8.121-0.98-8.161-0.991l0.109-0.462c0.041,0.009,4.136,0.978,8.052,0.978
			c3.904,0,8.228-1.502,8.271-1.518l0.158,0.449C27.568,18.629,23.167,20.158,19.183,20.158"/>
		<path fill="#010202" d="M14.483,26.812l-0.005-0.476c0.075-0.001,7.521-0.101,12.402-1.077c4.866-0.973,8.729-3.11,8.768-3.13
			l0.232,0.415c-0.04,0.022-3.968,2.194-8.907,3.182C22.048,26.709,14.559,26.811,14.483,26.812"/>
	</g>
</g>
<g>
	<g display="none">
		<path display="inline" fill="#010202" d="M62,43c10.477,0,19,8.523,19,19s-8.523,19-19,19s-19-8.523-19-19S51.523,43,62,43 M62,42
			c-11.045,0-20,8.954-20,20s8.955,20,20,20c11.046,0,20-8.954,20-20S73.046,42,62,42L62,42z"/>
	</g>
	<g>
		<path fill="#010202" d="M54.512,75.518c-0.124,0-0.242-0.064-0.308-0.173c-0.028-0.045-0.682-1.111-1.054-2.056
			c-0.097-0.248-0.173-0.454-0.226-0.615l-1.106,0.279c-0.094,0.023-0.194,0.008-0.278-0.043c-0.083-0.05-0.142-0.133-0.164-0.228
			c-0.053-0.238-0.146-0.506-0.204-0.607c-0.291-0.121-0.533-0.302-0.72-0.54c-0.608-0.777-0.307-2.563,0.011-4.454
			c0.117-0.692,0.228-1.346,0.279-1.898c0.164-1.72,2.801-14.185,3.874-15.702c1.043-1.478,3.835-1.971,3.953-1.99
			c0.105-0.02,0.214,0.012,0.297,0.082c0.082,0.071,0.128,0.173,0.126,0.281c-0.001,0.039-0.065,4.063,0.129,6.443
			c0.187,2.262,1.057,8.654,1.428,11.382l0.069,0.492c0.303,2.234,0.879,7.495,0.886,7.547c0.02,0.187-0.103,0.356-0.286,0.395
			l-6.631,1.397C54.563,75.516,54.538,75.518,54.512,75.518 M53.56,72.268c0.016,0.066,0.069,0.263,0.264,0.756
			c0.253,0.642,0.66,1.369,0.867,1.724l6.057-1.276c-0.131-1.187-0.59-5.301-0.849-7.204l-0.066-0.489
			c-0.373-2.735-1.246-9.141-1.433-11.422c-0.161-1.936-0.148-4.926-0.139-6.059c-0.777,0.187-2.399,0.677-3.053,1.603
			c-0.874,1.235-3.543,13.234-3.744,15.353c-0.056,0.577-0.168,1.244-0.287,1.949c-0.253,1.498-0.566,3.362-0.155,3.888
			c0.115,0.148,0.273,0.26,0.469,0.333c0.089,0.036,0.299,0.116,0.494,0.741l1.125-0.284c0.188-0.047,0.375,0.061,0.434,0.241
			C53.56,72.169,53.565,72.219,53.56,72.268"/>
		<path fill="#010202" d="M53.043,72.046c0-0.038-0.003-3.853,0.331-7.19c0.333-3.328,1.01-7.808,1.018-7.854l0.715,0.108
			c-0.005,0.046-0.679,4.507-1.011,7.817c-0.332,3.301-0.328,7.079-0.328,7.117L53.043,72.046z"/>
		<path fill="#010202" d="M69.506,75.544c-0.025,0-0.05-0.003-0.077-0.009l-6.635-1.42c-0.182-0.039-0.304-0.208-0.285-0.393
			c0.005-0.053,0.564-5.311,0.859-7.546l0.079-0.591c0.36-2.706,1.2-9.045,1.375-11.278c0.189-2.38,0.109-6.402,0.109-6.441
			c-0.003-0.108,0.043-0.213,0.125-0.284c0.082-0.069,0.193-0.099,0.299-0.081c0.118,0.021,2.911,0.521,3.959,2.003
			c1.076,1.52,3.756,13.992,3.926,15.714c0.055,0.553,0.168,1.206,0.287,1.898c0.325,1.893,0.632,3.68,0.026,4.456
			c-0.185,0.236-0.425,0.417-0.719,0.539c-0.056,0.101-0.147,0.368-0.201,0.605c-0.021,0.094-0.081,0.177-0.164,0.229
			c-0.084,0.051-0.183,0.066-0.279,0.042l-1.101-0.282c-0.057,0.175-0.137,0.378-0.228,0.611c-0.369,0.943-1.019,2.007-1.048,2.054
			C69.749,75.478,69.63,75.544,69.506,75.544 M63.265,73.474l6.063,1.298c0.206-0.355,0.61-1.079,0.859-1.719
			c0.193-0.494,0.248-0.689,0.263-0.756c-0.006-0.05,0-0.1,0.014-0.148c0.059-0.183,0.251-0.288,0.434-0.239l1.126,0.287
			c0.193-0.624,0.403-0.704,0.49-0.736c0.199-0.076,0.354-0.186,0.469-0.334c0.41-0.522,0.088-2.388-0.169-3.887
			c-0.122-0.706-0.236-1.372-0.293-1.95c-0.208-2.118-2.919-14.129-3.798-15.366c-0.655-0.928-2.278-1.423-3.06-1.613
			c0.016,1.135,0.037,4.122-0.116,6.056c-0.176,2.251-1.018,8.604-1.379,11.315l-0.078,0.592
			C63.836,68.176,63.392,72.29,63.265,73.474"/>
		<path fill="#010202" d="M70.24,72.073c0-0.037-0.011-3.815-0.352-7.116c-0.344-3.312-1.033-7.776-1.039-7.821l0.716-0.11
			c0.008,0.045,0.698,4.527,1.043,7.856c0.345,3.34,0.356,7.152,0.356,7.19L70.24,72.073z"/>
		<rect x="61.042" y="73.36" fill="#010202" width="2.349" height="0.726"/>
	</g>
</g>
<g>
	<g display="none">
		<path display="inline" fill="#010202" d="M20,43c10.477,0,19,8.523,19,19s-8.523,19-19,19S1,72.477,1,62S9.523,43,20,43 M20,42
			C8.953,42,0,50.955,0,62s8.953,20,20,20c11.045,0,20-8.955,20-20S31.045,42,20,42L20,42z"/>
	</g>
	<g>
		<path fill="#010202" d="M24.936,73.327c-0.505,0-0.886-0.03-1.165-0.093c-1.96-0.436-3.792-1.726-5.445-3.834
			c-0.966-1.229-1.797-1.896-2.273-2.218l-0.913,6.061H8.58l-0.056-0.3c-0.008-0.042-0.77-4.207-1.006-6.987
			c-0.152-1.797,0.471-4.15,1.02-6.228c0.33-1.246,0.641-2.423,0.742-3.316c0.269-2.354-0.152-5.584-0.157-5.616L9.07,50.393
			l11.395-0.31l-0.032,0.405c-0.003,0.057-0.419,5.779,2.087,8.814c1.635,1.978,3.539,2.359,5.38,2.728
			c1.004,0.201,1.952,0.39,2.778,0.836c1.824,0.982,2.522,2.284,2.751,2.854l0.582-0.021l-0.37,6.628l-0.288,0.049
			C33.123,72.415,27.693,73.327,24.936,73.327 M15.48,66.065l0.438,0.192c0.053,0.023,1.344,0.604,2.982,2.692
			c1.546,1.97,3.237,3.173,5.029,3.569c0.224,0.05,0.56,0.075,1.006,0.075c2.341,0,6.83-0.702,8.006-0.893l0.293-5.242l-0.342,0.013
			l-0.074-0.286c-0.017-0.063-0.436-1.571-2.488-2.677c-0.73-0.394-1.625-0.572-2.575-0.762c-1.875-0.376-4.002-0.801-5.8-2.979
			c-2.322-2.81-2.329-7.519-2.273-8.933l-9.786,0.267c0.109,0.959,0.336,3.427,0.112,5.392c-0.108,0.947-0.427,2.149-0.765,3.422
			c-0.532,2.02-1.138,4.308-0.997,5.979c0.197,2.313,0.765,5.614,0.943,6.617h5.319L15.48,66.065z"/>
		<path fill="#010202" d="M24.648,68.405c-3.303,0-7.571-0.646-10.169-2.028l0.345-0.646c2.881,1.532,7.941,2.121,11.234,1.897
			c3.097-0.209,7.156-1.848,7.197-1.864l0.276,0.679c-0.169,0.069-4.208,1.698-7.423,1.916C25.65,68.391,25.16,68.405,24.648,68.405
			"/>
		<path fill="#010202" d="M9.546,54.195l-3.269-1.021c-0.148-0.046-0.25-0.181-0.257-0.337c-0.004-0.156,0.09-0.298,0.236-0.354
			l3.171-1.213l0.261,0.683l-2.187,0.838l2.263,0.705L9.546,54.195z"/>
		<path fill="#010202" d="M9.6,56.604L6.259,55.46c-0.15-0.053-0.251-0.196-0.248-0.355c0.004-0.159,0.111-0.298,0.263-0.342
			l3.342-0.982l0.207,0.702L7.584,55.14l2.253,0.771L9.6,56.604z"/>
		<path fill="#010202" d="M16.394,67.438c-0.019-0.015-1.917-1.331-3.879-1.82c-1.962-0.489-4.507-0.09-4.531-0.085l-0.116-0.723
			c0.11-0.018,2.719-0.428,4.825,0.098c2.097,0.522,4.04,1.873,4.122,1.931L16.394,67.438z"/>
		<path fill="#010202" d="M13.315,59.03c-2.154,0-3.751-0.411-3.836-0.433l0.187-0.708c0.025,0.008,2.599,0.667,5.543,0.292
			c2.918-0.37,5.278-2.268,5.301-2.287l0.463,0.567c-0.104,0.084-2.549,2.05-5.672,2.446C14.607,58.996,13.939,59.03,13.315,59.03"
			/>
		<path fill="#010202" d="M14.129,62.384c-2.881,0-5.348-0.537-5.466-0.563l0.159-0.714c0.031,0.007,3.176,0.692,6.413,0.517
			c3.185-0.17,6.675-2.525,6.709-2.549l0.413,0.604c-0.149,0.102-3.692,2.493-7.083,2.676
			C14.888,62.374,14.505,62.384,14.129,62.384"/>
		<path fill="#010202" d="M10.882,60.957c-0.454,0-0.821-0.368-0.821-0.821c0-0.452,0.368-0.82,0.821-0.82
			c0.452,0,0.819,0.368,0.819,0.82C11.701,60.589,11.333,60.957,10.882,60.957 M10.882,59.804c-0.184,0-0.333,0.148-0.333,0.332
			s0.15,0.333,0.333,0.333c0.183,0,0.332-0.149,0.332-0.333S11.064,59.804,10.882,59.804"/>
		<path fill="#010202" d="M13.958,61.102c-0.454,0-0.821-0.369-0.821-0.821c0-0.453,0.368-0.821,0.821-0.821
			c0.453,0,0.821,0.368,0.821,0.821C14.779,60.732,14.41,61.102,13.958,61.102 M13.958,59.946c-0.184,0-0.333,0.149-0.333,0.334
			c0,0.183,0.15,0.333,0.333,0.333c0.183,0,0.333-0.15,0.333-0.333C14.291,60.096,14.14,59.946,13.958,59.946"/>
		<path fill="#010202" d="M17.071,60.662c-0.452,0-0.819-0.368-0.819-0.82s0.368-0.821,0.819-0.821c0.454,0,0.821,0.369,0.821,0.821
			S17.525,60.662,17.071,60.662 M17.071,59.508c-0.183,0-0.332,0.15-0.332,0.334c0,0.183,0.149,0.332,0.332,0.332
			c0.184,0,0.333-0.149,0.333-0.332C17.405,59.658,17.255,59.508,17.071,59.508"/>
		<path fill="#010202" d="M19.731,59.597c-0.454,0-0.821-0.368-0.821-0.821c0-0.452,0.368-0.82,0.821-0.82
			c0.452,0,0.819,0.368,0.819,0.82C20.551,59.229,20.183,59.597,19.731,59.597 M19.731,58.443c-0.183,0-0.333,0.149-0.333,0.332
			c0,0.184,0.15,0.334,0.333,0.334c0.183,0,0.332-0.15,0.332-0.334C20.063,58.593,19.914,58.443,19.731,58.443"/>
	</g>
</g>
<g>
	<g display="none">
		<path display="inline" fill="#010202" d="M146,43c10.477,0,19,8.523,19,19s-8.523,19-19,19s-19-8.523-19-19S135.523,43,146,43
			 M146,42c-11.045,0-20,8.955-20,20s8.955,20,20,20s20-8.955,20-20S157.045,42,146,42L146,42z"/>
	</g>
	<path fill="#010202" d="M148.843,71.658l-0.052-0.001c-1.908-0.053-3.955-1.507-5.212-3.707c-1.394-2.443-4.054-5.593-4.968-5.593
		c-0.71,1.027-0.938,5.045-0.938,7.506v0.485h-1.907l0.028-0.513c0.002-0.041,0.227-4.234-0.201-6.157
		c-0.148-0.67-0.403-1.34-0.648-1.987c-0.48-1.269-0.977-2.578-0.693-3.917c0.316-1.491,2.106-5.579,3.102-5.688h0.006
		c0.636,0,1.094,0.7,2.639,3.438c0.44,0.781,0.889,1.575,1.284,2.205c0.256,0.409,0.572,0.94,0.924,1.537
		c1.263,2.131,3.171,5.354,4.401,6.134c2.221,1.405,3.379,1.701,3.961,1.701c0.266,0,0.454-0.061,0.576-0.183
		c0.862-0.861,1.334-2.205,1.338-2.219l0.163-0.472l7.068,2.702c0.368,0.277,0.896,0.939,0.533,1.666
		c-0.493,0.982-10.385,3.062-11.396,3.062H148.843z M138.611,61.389c1.931,0,5.238,5.081,5.809,6.081
		c1.243,2.176,3.105,3.185,4.397,3.218l0.032,0.485v-0.484c1.673,0,9.549-2.026,10.545-2.59c0.002-0.129-0.149-0.287-0.226-0.358
		l-5.957-2.261c-0.237,0.541-0.7,1.442-1.383,2.125c-0.31,0.308-0.733,0.466-1.262,0.466c-1.032,0-2.539-0.623-4.479-1.851
		c-1.428-0.905-3.329-4.115-4.717-6.46c-0.348-0.589-0.658-1.112-0.912-1.515c-0.402-0.641-0.857-1.449-1.308-2.245
		c-0.544-0.964-1.33-2.359-1.729-2.836c-0.563,0.681-1.889,3.233-2.224,4.813c-0.225,1.06,0.201,2.182,0.651,3.371
		c0.257,0.681,0.524,1.384,0.688,2.121c0.182,0.817,0.256,1.972,0.278,3.077c0.121-1.816,0.376-3.849,0.902-4.665
		C137.927,61.563,138.242,61.389,138.611,61.389"/>
</g>
<g>
	<g display="none">
		<path display="inline" fill="#010202" d="M145.998,1L145.998,1l0.122,0c5.076,0.033,9.835,2.04,13.4,5.651
			c3.565,3.612,5.512,8.396,5.479,13.471C164.932,30.531,156.41,39,146.003,39l-0.126,0c-5.074-0.032-9.832-2.039-13.398-5.65
			c-3.565-3.611-5.511-8.396-5.479-13.47C127.066,9.469,135.589,1,145.998,1 M145.998,0C135.012,0,126.07,8.871,126,19.873
			C125.93,30.917,134.826,39.93,145.871,40c0.045,0,0.087,0,0.132,0c10.985,0,19.925-8.871,19.996-19.872
			C166.07,9.083,157.173,0.072,146.127,0C146.084,0,146.041,0,145.998,0L145.998,0z"/>
	</g>
	<g>
		<path fill="#010202" d="M145.996,32.468c-7.309,0-10.973-2.627-11.125-2.739l-0.191-0.139l0.053-0.231
			c0.006-0.026,0.644-2.803,2.416-7.485c1.518-4.005,3.315-6.104,3.89-6.708l-1.962-4.519l0.309-0.152
			c0.064-0.032,1.59-0.773,3.046-0.773c0.242,0,0.472,0.02,0.683,0.062c1.148,0.221,2.007,0.968,2.433,1.416
			c0.444-0.492,1.379-1.332,2.621-1.421c1.627-0.118,3.578,0.618,3.654,0.647l0.336,0.129l-1.821,4.811
			c0.621,0.564,2.513,2.513,4.027,6.509c1.776,4.693,2.264,7.612,2.283,7.735l0.033,0.207l-0.162,0.132
			C156.39,30.051,153.313,32.468,145.996,32.468 M135.496,29.277c0.844,0.526,4.372,2.469,10.5,2.469s9.177-1.758,9.896-2.24
			c-0.146-0.763-0.728-3.474-2.204-7.376c-1.722-4.543-3.981-6.355-4.004-6.373l-0.209-0.164l1.746-4.613
			c-0.604-0.196-1.902-0.562-3.004-0.483c-1.392,0.099-2.359,1.456-2.37,1.469l-0.285,0.407l-0.299-0.398
			c-0.009-0.012-0.929-1.222-2.287-1.482c-1.061-0.203-2.366,0.266-2.957,0.511l1.88,4.333l-0.187,0.174
			c-0.021,0.02-2.16,2.058-3.89,6.62C136.367,25.978,135.688,28.514,135.496,29.277"/>
		<rect x="141.26" y="15.139" fill="#010202" width="8.855" height="0.722"/>
		<rect x="140.808" y="5.467" fill="#010202" width="0.722" height="4.844"/>
		<rect x="149.397" y="5.467" fill="#010202" width="0.722" height="4.844"/>
	</g>
</g>
<g>
	<g display="none">
		<path display="inline" fill="#010202" d="M188.004,1c10.397,0,18.92,8.461,18.997,18.862c0.076,10.476-8.386,19.061-18.862,19.138
			l-0.142,0c-10.397,0-18.919-8.461-18.996-18.862C168.925,9.664,177.387,1.078,187.862,1L188.004,1 M188.004,0
			c-0.05,0-0.1,0-0.148,0c-11.045,0.082-19.935,9.1-19.854,20.145C168.083,31.141,177.02,40,187.997,40c0.05,0,0.1,0,0.149,0
			c11.046-0.081,19.935-9.1,19.854-20.145C207.919,8.859,198.982,0,188.004,0L188.004,0z"/>
	</g>
	<g>
		<path fill="#010202" d="M176.916,29.437l-0.082-6.206l0.432-0.054c0.186-0.022,4.566-0.558,8.62,0.071
			c1.582,0.246,2.882,0.662,4.141,1.065c2.006,0.641,3.737,1.198,6.169,0.949c2.903-0.294,5.166-1.111,6.176-1.531
			c0-0.027,0.004-0.058,0.01-0.087c0.06-0.363,0.084-1.614-2.136-2.337c-0.709-0.231-1.522-0.439-2.384-0.66
			c-2.314-0.594-4.938-1.268-7.069-2.725c-3.033-2.075-2.97-10.039-2.965-10.376l0.974,0.012c-0.027,2.158,0.38,8.083,2.541,9.562
			c1.99,1.36,4.524,2.01,6.761,2.583c0.877,0.226,1.706,0.438,2.443,0.678c2.425,0.789,2.801,2.25,2.82,3.007
			c0.101,0.022,0.185,0.037,0.185,0.037l0.251,0.044l1.032,2.261l-0.267,0.24c-0.089,0.08-2.262,1.987-7.91,2.763
			c-3.188,0.438-5.489-0.326-7.522-1.001c-1.443-0.478-2.708-0.897-4.02-0.782l-0.424,2.41L176.916,29.437z M177.819,24.097
			l0.057,4.357l5.996-0.06l0.407-2.308l0.343-0.055c1.674-0.269,3.202,0.24,4.82,0.777c1.931,0.64,4.12,1.365,7.084,0.96
			c4.218-0.58,6.386-1.821,7.109-2.314l-0.462-1.01c-0.736,0.338-3.323,1.424-6.88,1.786c-2.637,0.27-4.543-0.343-6.563-0.991
			c-1.223-0.391-2.487-0.796-3.993-1.029C182.535,23.714,179.022,23.979,177.819,24.097"/>
		<path fill="#010202" d="M177.47,23.658c-0.02-0.14-0.463-3.427,0.8-6.379c1.139-2.665-0.593-8.242-0.61-8.298l0.928-0.291
			c0.077,0.243,1.858,5.979,0.578,8.972c-1.158,2.706-0.735,5.831-0.73,5.861L177.47,23.658z"/>
		<path fill="#010202" d="M177.817,9.142l-0.251-0.94c0.114-0.031,2.85-0.759,4.912-0.986c2.052-0.225,6.051-0.21,6.221-0.213
			l-0.004,0.974c-0.037,0-4.112-0.012-6.111,0.208C180.596,8.402,177.846,9.135,177.817,9.142"/>
		
			<rect x="190.935" y="17.882" transform="matrix(0.8717 0.4901 -0.4901 0.8717 33.9532 -91.2876)" fill="#010202" width="0.729" height="2.622"/>
		
			<rect x="188.17" y="14.601" transform="matrix(0.4706 0.8824 -0.8824 0.4706 113.8966 -157.9048)" fill="#010202" width="0.73" height="2.72"/>
		
			<rect x="186.847" y="10.481" transform="matrix(0.2353 0.9719 -0.9719 0.2353 154.6363 -172.9279)" fill="#010202" width="0.73" height="2.649"/>
		<rect x="183.254" y="7.712" fill="#010202" width="0.974" height="11.683"/>
	</g>
</g>
</svg>
